<?xml version="1.0" standalone="no"?>
<!DOCTYPE svg PUBLIC "-//W3C//DTD SVG 20010904//EN"
 "http://www.w3.org/TR/2001/REC-SVG-20010904/DTD/svg10.dtd">
<svg version="1.0" xmlns="http://www.w3.org/2000/svg"
 width="247.000000pt" height="204.000000pt" viewBox="0 0 247.000000 204.000000"
 preserveAspectRatio="xMidYMid meet">

<g transform="translate(0.000000,204.000000) scale(0.100000,-0.100000)"
fill="#002835" stroke="none">
<path d="M2135 2021 c-17 -10 -74 -52 -127 -93 -123 -97 -250 -181 -321 -213
-30 -14 -158 -52 -284 -84 -249 -64 -313 -86 -378 -131 -103 -71 -147 -163
-149 -310 0 -89 2 -100 38 -183 48 -108 48 -106 -83 -226 -52 -47 -164 -151
-250 -230 -86 -79 -169 -152 -186 -162 -26 -16 -51 -19 -168 -19 -151 0 -184
-9 -205 -55 -7 -14 -12 -43 -12 -64 0 -73 89 -130 320 -207 106 -35 124 -38
230 -38 65 0 134 5 158 12 24 7 98 50 165 96 209 141 187 133 377 138 183 5
220 15 278 71 35 34 56 93 67 188 l7 56 87 -5 c74 -4 94 -1 138 18 54 23 82
47 105 93 8 16 37 41 63 55 62 34 84 69 69 111 -11 27 -9 32 28 68 47 45 68
82 68 120 0 24 9 32 63 61 136 70 200 171 152 239 -14 20 -13 25 17 67 38 54
43 118 13 179 l-18 38 32 61 c37 72 41 128 11 158 -11 11 -24 20 -29 20 -24 0
-66 -23 -127 -70 -36 -27 -72 -50 -79 -50 -8 0 -22 11 -30 24 -15 23 -14 28
21 98 41 82 47 137 19 168 -22 25 -42 25 -80 1z m11 -132 c-35 -69 -78 -119
-150 -178 -141 -114 -252 -163 -544 -240 -197 -53 -319 -102 -374 -154 -41
-39 -61 -86 -66 -163 -4 -58 -1 -77 17 -111 11 -23 25 -44 31 -48 5 -3 10 -13
10 -21 0 -11 -9 -14 -32 -12 -29 3 -37 10 -66 68 -32 63 -33 68 -30 170 3 90
7 113 29 155 30 59 87 105 166 135 32 12 163 49 292 82 255 65 292 80 451 186
103 68 123 83 231 171 44 36 55 40 57 26 2 -9 -8 -39 -22 -66z m228 -187 c-79
-135 -239 -245 -462 -318 -42 -13 -153 -40 -247 -59 -254 -51 -373 -95 -414
-154 -54 -75 -72 -205 -36 -255 48 -68 55 -83 55 -118 0 -80 -49 -61 -89 35
-52 126 -66 197 -52 278 32 192 110 242 486 310 211 38 273 53 349 88 73 33
241 136 351 215 91 65 106 59 59 -22z m-238 -3 c9 -15 -20 -37 -132 -98 -127
-69 -171 -77 -74 -13 41 27 95 65 120 85 46 38 73 46 86 26z m234 -180 c11
-26 11 -36 -3 -65 -23 -46 -121 -116 -216 -153 -81 -31 -303 -81 -360 -81 -29
0 -32 2 -26 23 8 25 32 47 53 47 28 0 221 69 289 104 37 19 106 61 153 95 47
33 88 60 91 61 4 0 12 -14 19 -31z m-32 -246 c4 -30 -66 -99 -134 -130 -64
-29 -241 -63 -330 -63 -56 0 -62 2 -68 23 -13 51 -11 52 97 70 130 21 262 59
335 97 66 34 96 35 100 3z m-628 -8 c0 -20 -35 -67 -55 -75 -28 -11 -306 -43
-312 -36 -18 18 106 63 262 96 105 22 105 22 105 15z m-619 -49 c-14 -36 -22
-33 -9 5 6 16 12 28 14 26 3 -2 0 -16 -5 -31z m647 -101 c12 -26 2 -44 -39
-65 -18 -10 -264 -29 -381 -30 -55 0 -58 1 -58 24 0 42 34 56 135 56 92 0 291
23 302 34 13 13 30 5 41 -19z m362 -105 c0 -28 -64 -88 -102 -95 -18 -3 -71
-5 -118 -3 l-84 3 -9 38 c-5 21 -6 41 -3 45 8 8 182 29 259 31 51 1 57 -1 57
-19z m-380 -50 c15 -28 -2 -55 -41 -69 -18 -6 -101 -11 -192 -11 l-161 0 -28
27 c-15 15 -28 32 -28 38 0 9 61 15 208 22 114 5 212 10 219 11 7 1 17 -7 23
-18z m-628 -77 c12 -14 38 -75 38 -88 0 -1 -41 -33 -91 -70 l-90 -68 -26 20
c-54 39 -53 44 32 137 82 90 108 103 137 69z m922 -53 c18 -19 -28 -48 -90
-56 -62 -7 -211 9 -227 25 -14 14 8 39 41 45 51 9 264 -2 276 -14z m-394 -35
c18 -22 -2 -63 -36 -71 -58 -15 -230 19 -248 49 -18 29 10 37 145 37 102 0
129 -3 139 -15z m255 -97 c7 -6 0 -18 -20 -34 -52 -42 -137 -56 -206 -33 -19
7 -36 14 -38 16 -3 2 11 19 30 39 l34 36 95 -7 c52 -4 100 -11 105 -17z m-462
-28 c48 -15 73 -30 97 -57 31 -35 32 -38 28 -114 -3 -85 -19 -116 -77 -156
-54 -36 -312 -44 -339 -10 -5 7 -12 33 -16 58 -4 26 -23 79 -42 119 l-35 73
28 29 c15 15 49 39 77 53 65 33 183 35 279 5z m-502 -121 c65 -63 91 -118 97
-205 4 -68 3 -73 -19 -84 -13 -7 -67 -43 -119 -80 -120 -85 -142 -96 -223
-111 -53 -10 -84 -10 -150 0 -103 16 -253 67 -349 118 -77 41 -90 62 -68 104
12 21 15 21 139 14 175 -10 172 -11 396 195 50 46 107 96 129 111 l39 29 40
-23 c22 -12 62 -43 88 -68z"/>
</g>
</svg>
