<svg width="1024" height="1024" xmlns="http://www.w3.org/2000/svg" class="icon">

 <g>
  <title>background</title>
  <rect fill="none" id="canvas_background" height="402" width="582" y="-1" x="-1"/>
 </g>
 <g>
  <title>Layer 1</title>
  <path id="svg_1" fill="#002835" d="m512,512l228.21888,156.89728a290.7648,290.7648 0 0 1 -235.264,118.9376c-160.11264,0 -289.91488,-127.65184 -289.91488,-285.11232c0,-157.47072 129.80224,-285.12256 289.91488,-285.12256c2.38592,0 4.67968,0.28672 7.04512,0.34816l0,294.05184z"/>
  <path id="svg_2" fill="#002835" d="m835.21216,469.04l-274.01216,0l0,-294.92224c152.9344,7.90528 274.55488,131.9936 274.55488,284.3648c0,3.56352 -0.4096,7.02464 -0.54272,10.55744z"/>
  <path id="svg_3" fill="#002835" d="m847.98464,501.76a279.71584,279.71584 0 0 1 -32.37888,130.27328l-246.65088,-127.30368l0,-2.9696l279.02976,0z"/>
 </g>
</svg>