<svg xmlns="http://www.w3.org/2000/svg" width="64" height="64"><g><title>background</title><rect id="canvas_background" width="582" height="402" x="-1" y="-1" fill="none"/></g><g><title>Layer 1</title><polygon id="svg_1" fill="#002835" points="52.299 58.101 52.299 41.001 57.999 41.001 57.999 63.801 6.599 63.801 6.599 41.001 12.299 41.001 12.299 58.101"/><path id="svg_2" fill="#002835" d="m18.3,39.6l27.9,5.9l1.2,-5.6l-27.9,-5.9l-1.2,5.6zm3.7,-13.4l25.9,12.1l2.4,-5.2l-25.9,-12.1l-2.4,5.2zm7.2,-12.7l21.9,18.3l3.7,-4.4l-22,-18.3l-3.6,4.4zm14.1,-13.5l-4.6,3.4l17,22.9l4.6,-3.4l-17,-22.9zm-25.6,52.6l28.6,0l0,-5.7l-28.6,0l0,5.7z"/><path id="svg_4" fill="none" fill-opacity="null" stroke="null" stroke-opacity="null" stroke-width="null" d="m49.512436,11.544465c-0.099503,0 -0.39801,0 -0.995022,0c-0.298508,0 -1.515697,-0.271966 -2.089554,-0.796021c-0.831272,-0.75913 -0.914455,-0.883734 -1.094528,-1.19403c-0.111675,-0.192437 -0.099503,-0.298507 -0.099503,-0.597014c0,-0.099503 0,-0.199005 0,-0.497513c0,-0.199005 0,-0.597014 -0.099503,-0.895522l0,-0.199005"/><path id="svg_5" fill="none" fill-opacity="null" stroke="null" stroke-opacity="null" stroke-width="null" d="m42.845772,4.877798c-0.099503,-0.099503 1.065132,0.902537 1.990047,1.890547c1.062214,1.134675 3.151531,2.614952 3.582092,3.084577c0.242447,0.264442 0.208675,0.375701 0,0.298508c-0.384777,-0.142338 -0.796021,-0.298508 -1.094528,-0.597015l-0.796021,-0.497512l-0.199005,-0.199005"/><path id="svg_6" fill="none" fill-opacity="null" stroke="null" stroke-opacity="null" stroke-width="null" d="m43.741295,6.370336c-0.696518,-0.497512 -3.376286,-2.293804 -8.358212,-3.084577c-3.543255,-0.562415 -5.271688,-0.182637 -8.557213,0.199005c-0.895016,0.103964 -1.691542,0.199005 -2.38806,0.298507l-0.099503,0l-0.298508,0"/><line id="svg_10" x1="24.338" x2="31.204" y1="6.569" y2="40.201" fill="none" stroke="null" stroke-linecap="null" stroke-linejoin="null" stroke-opacity="null" stroke-width="null"/></g></svg>