<svg width="929.0411399999999" height="930.9264500000002" xmlns="http://www.w3.org/2000/svg">

 <metadata id="metadata2998">image/svg+xml</metadata>
 <g>
  <title>background</title>
  <rect fill="none" id="canvas_background" height="402" width="582" y="-1" x="-1"/>
 </g>
 <g>
  <title>Layer 1</title>
  <g id="layer1">
   <path fill="#002835" id="path3351" d="m472.788666,930.338204c-112.3058,-7.73463 -213.4963,-48.96208 -298.27061,-121.52267c-18.4877,-15.82403 -48.09549,-46.52226 -63.8174,-66.16773c-14.27619,-17.83908 -33.49949,-45.89145 -43.93239,-64.11022c-36.1461,-63.12166 -58.3292,-133.57664 -65.16901,-206.98129c-2.1266,-22.82189 -2.1334,-66.76566 -0.014,-89.91833c10.3946,-113.55353 57.22041,-217.96659 135.1573,-301.37642c4.5351,-4.85356 8.9207,-8.82468 9.7457,-8.82468c1.58,0 25.5073,23.4521 25.5073,25.00073c0,0.49497 -4.6385,5.78227 -10.3078,11.74952c-53.8817,56.71347 -95.64279,135.69475 -113.4795,214.61961c-8.3736,37.05212 -11.2366,63.4885 -11.2366,103.75692c0,32.7067 1.3574,49.7158 6.2999,78.94064c15.54571,91.92205 60.1114,179.54678 125.4485,246.65566c76.04021,78.10252 174.09651,126.30015 283.23231,139.21707c19.8981,2.35507 63.8567,3.21342 84.4144,1.64838c108.4889,-8.25979 206.63789,-51.01863 285.65839,-124.44813l11.57863,-10.75943l12.97249,12.98609l12.97253,12.98625l-4.78318,4.96665c-2.63074,2.73174 -10.5948,10.08119 -17.69789,16.33214c-80.99066,71.27445 -180.69347,114.12513 -288.94707,124.18524c-17.3384,1.61126 -58.8691,2.19792 -75.3319,1.064l-0.0001,0zm-25.6448,-81.28038c-17.8199,-2.48087 -38.4594,-6.64319 -53.7115,-10.83166l-12.0384,-3.30612l-19.4834,-17.1025c-10.7158,-9.40642 -20.0839,-17.66927 -20.8178,-18.36195c-1.0527,-0.99353 0.1075,-3.21818 5.4947,-10.53571c13.1284,-17.83229 23.129,-41.25488 26.9617,-63.14738c2.2783,-13.01367 2.2548,-35.73174 -0.051,-48.90868c-9.0988,-52.00525 -46.0197,-95.97799 -95.1836,-113.36361c-14.2443,-5.03719 -26.3603,-7.38501 -44.5895,-8.64058c-28.1934,-1.94188 -44.91501,-6.29547 -67.60691,-17.602c-30.5283,-15.21115 -54.2202,-38.60666 -69.95399,-69.0789c-11.3029,-21.89061 -17.5323,-45.05873 -17.3732,-64.61275c0.1847,-22.68232 5.6536,-57.70573 11.061,-70.83502c20.81959,-50.55059 65.10049,-86.43684 120.0762,-97.31235c13.2721,-2.62554 50.498,-2.59984 72.1262,0.0497c104.6074,12.81523 198.0213,56.97966 272.6925,128.92405c37.2045,35.84599 69.5807,80.07322 93.2914,127.44016c24.878,49.69867 40.7119,104.34945 47.1629,162.78254c2.2073,19.99385 2.498,70.05314 0.5173,89.1024c-2.7655,26.59846 -9.6386,65.72506 -12.0599,68.65438c-2.9581,3.57882 -49.5577,20.75945 -71.7132,26.43973l-10.4382,2.67613l-28.5634,-10.75091c-15.7099,-5.9131 -28.8986,-11.06418 -29.3081,-11.44706c-0.4096,-0.38288 0.7036,-4.78755 2.4737,-9.78829c6.8522,-19.35837 12.7977,-46.06066 16.0764,-72.20199c1.9766,-15.7593 1.6513,-58.835 -0.5735,-75.94572c-6.9763,-53.65386 -24.4985,-100.98511 -53.7986,-145.32162c-54.5806,-82.59053 -142.6035,-136.26849 -242.315,-147.76815c-31.8797,-3.67664 -42.7495,-1.07649 -50.4711,12.07313c-2.5759,4.3866 -2.9604,6.16083 -2.9474,13.6019c0.017,9.84433 1.4351,13.28789 8.1629,19.82385c5.5849,5.42565 11.3105,7.01538 30.2895,8.41003c86.3696,6.34666 164.7603,52.70191 212.7334,125.797c54.6034,83.19729 60.7576,190.79494 15.9683,279.181c-10.1879,20.10432 -12.822,24.09563 -15.8091,23.95409c-1.3149,-0.0621 -8.6417,-0.98357 -16.2817,-2.04714l0.0004,0zm-230.5292,-74.81806c-28.87591,-5.28237 -51.38321,-26.15939 -58.58291,-54.33974c-2.5278,-9.89386 -2.7099,-25.69514 -0.4096,-35.54859c4.6143,-19.76599 20.072,-39.31224 37.92121,-47.95147c13.0838,-6.33267 21.2742,-7.9787 36.8245,-7.40062c10.9386,0.40663 14.0952,0.9527 21.4857,3.71675c22.0522,8.24755 37.8408,24.72367 44.8683,46.82187c5.8586,18.42315 4.3344,37.08196 -4.5003,55.08749c-8.833,18.00201 -26.7,32.77658 -45.8256,37.89415c-7.7455,2.07242 -24.8074,2.9959 -31.7813,1.72016zm556.43297,-65.23732l-21.37075,-0.58369l-0.23671,-11.23141c-0.37811,-17.94212 -2.38219,-45.20929 -4.61146,-62.74309c-11.89732,-93.57542 -50.73885,-184.89208 -110.43195,-259.62653c-76.2485,-95.46126 -183.9952,-161.22121 -304.1918,-185.65414c-28.5204,-5.79749 -50.8524,-8.42534 -85.9462,-10.11346l-24.5764,-1.18219l-0.5342,-34.22908c-0.2939,-18.82599 -0.258,-34.86085 0.08,-35.633c0.8649,-1.97724 21.6341,-18.92263 33.9424,-27.69319c12.0635,-8.59618 29.0947,-19.42191 41.6192,-26.45492l8.8579,-4.97407l8.773,1.1711c175.8161,23.46975 333.0094,115.44656 439.64026,257.2419c64.33861,85.5561 106.9624,187.18268 123.62912,294.76514c1.51013,9.74791 2.74572,19.02217 2.74572,20.60949c0,7.64916 -30.73084,54.83482 -51.00986,78.32302l-7.33355,8.4941l-13.8369,0.049c-7.61033,0.0269 -23.45378,-0.21381 -35.20768,-0.53481l-0.00014,-0.00017zm-429.8272,-175.81416c-0.5403,-1.28971 -3.18901,-8.36178 -5.88622,-15.71567c544.72053,-97.17151 523.12684,-142.88731 505.6555,-172.73789c-45.23141,-77.27982 -103.73661,-144.93423 -173.05595,-200.11882c-58.0048,-46.17725 -124.9221,-83.81412 -195.8094,-110.13089c-7.5339,-2.79693 -13.6239,-5.65803 -13.6239,-6.40053c0,-0.7385 1.977,-6.90363 4.3934,-13.7003c5.1294,-14.42803 2.7495,-13.11493 25.5257,-14.08347c54.0404,-2.298 116.1916,8.65574 170.6526,30.07643c125.88479,49.51322 222.37379,159.80036 255.54027,292.08309c9.21431,36.75104 12.41002,64.01084 12.42813,106.01449c0.0143,26.69384 -0.22349,31.47612 -1.58923,32.33719c-0.88161,0.55578 -7.27575,2.91707 -14.2092,5.24732l-12.60642,4.23681l-0.98217,-2.34491l-556.43311,65.23715z"/>
  </g>
 </g>
</svg>