<svg width="100" height="100" xmlns="http://www.w3.org/2000/svg">
 <g>
  <title>background</title>
  <rect x="-1" y="-1" width="102" height="102" id="canvas_background" fill="none"/>
 </g>

 <g>
  <title>Layer 1</title>
  <g id="svg_1">
   <g stroke="null" id="_x31_86_50_">
    <g stroke="null" id="svg_2">
     <path stroke="null" d="m29.877793,42.276255c0,0 -0.138116,-1.438808 -0.206078,-2.160286c0.35954,-0.194882 0.703735,-0.406349 1.026006,-0.642695c0.572195,0.310982 1.712202,0.935018 1.712202,0.935018l1.944588,-0.483058l2.205474,-3.605313l-0.510811,-1.838938c0,0 -1.468854,-0.806479 -2.203281,-1.204535c-0.019731,-0.40013 -0.06577,-0.798186 -0.15127,-1.179657c0.583157,-0.474765 1.745087,-1.41393 1.745087,-1.41393l0,-1.901134l-2.869747,-3.16372l-2.010357,0c0,0 -0.953659,0.771234 -1.429393,1.158925c-0.517387,-0.236346 -1.063275,-0.431228 -1.633278,-0.578426c-0.046039,-0.534888 -0.138116,-1.606738 -0.138116,-1.606738l-1.420623,-1.343441l-4.391217,0.33586l-1.420623,1.343441c0,0 0.120578,1.411856 0.17977,2.116748c-0.429695,0.230126 -0.835274,0.491351 -1.214545,0.783674c-0.616042,-0.269517 -1.854703,-0.802333 -1.854703,-0.802333l-1.944588,0.480985l-1.839356,3.789829l-0.063577,0.259151l0.57658,1.579787c0,0 1.433777,0.61989 2.152858,0.930872c0.030692,0.447814 0.103039,0.881115 0.221424,1.306123c-0.54808,0.435374 -1.642048,1.316489 -1.642048,1.316489l0,1.899061l2.847824,3.180305c0,0 1.655202,0.186589 1.745087,0.138905c0.089885,-0.045611 0.267463,-0.138905 0.267463,-0.138905s1.041352,-0.833431 1.560932,-1.252219c0.438464,0.186589 0.896659,0.34208 1.372392,0.464399c0.052616,0.559767 0.162232,1.677227 0.162232,1.677227l1.420623,1.343441l4.38464,-0.379398l1.418431,-1.345514zm-5.14099,-4.461549c-2.446629,0 -4.430678,-1.876256 -4.430678,-4.189959c0,-2.315776 1.984049,-4.192032 4.430678,-4.192032c2.451014,0 4.435063,1.876256 4.435063,4.192032c0,2.31163 -1.984049,4.189959 -4.435063,4.189959z" id="svg_3" fill="#002835"/>
     <path stroke="null" d="m42.062707,55.907616c0,0 -0.105231,-1.088436 -0.155655,-1.635763c0.271848,-0.145125 0.532734,-0.304762 0.776081,-0.483058c0.431887,0.2322 1.293469,0.706965 1.293469,0.706965l1.471047,-0.364885l1.668355,-2.726272l-0.385848,-1.389051c0,0 -1.109314,-0.609524 -1.666163,-0.91014c-0.013154,-0.302689 -0.048231,-0.603304 -0.114001,-0.891481c0.440656,-0.356592 1.319777,-1.069777 1.319777,-1.069777l0,-1.436735l-2.170397,-2.392485l-1.52147,0c0,0 -0.721273,0.582572 -1.080814,0.874895c-0.390233,-0.178296 -0.804581,-0.325494 -1.234276,-0.437447c-0.035077,-0.404276 -0.103039,-1.214901 -0.103039,-1.214901l-1.074237,-1.015873l-3.319172,0.255005l-1.074237,1.015873c0,0 0.092077,1.067704 0.135924,1.598445c-0.324463,0.17415 -0.63358,0.373178 -0.918582,0.592938c-0.464772,-0.203175 -1.400892,-0.605378 -1.400892,-0.605378l-1.471047,0.364885l-1.389931,2.865177l-0.048231,0.194882l0.436272,1.194169c0,0 1.085198,0.468546 1.626701,0.702818c0.024116,0.340007 0.078924,0.663427 0.168809,0.988922c-0.414348,0.329641 -1.240853,0.993068 -1.240853,0.993068l0,1.436735l2.152858,2.404924c0,0 1.251815,0.140978 1.319777,0.105734c0.067962,-0.035245 0.201693,-0.105734 0.201693,-0.105734s0.787043,-0.632329 1.179468,-0.945384c0.33104,0.138905 0.677427,0.259151 1.03916,0.350373c0.041654,0.422935 0.12277,1.266732 0.12277,1.266732l1.074237,1.015873l3.314788,-0.288176l1.06766,-1.015873zm-3.886983,-3.373114c-1.850318,0 -3.349865,-1.422223 -3.349865,-3.169939c0,-1.74979 1.499547,-3.167866 3.349865,-3.167866c1.85251,0 3.354249,1.420149 3.354249,3.167866c0,1.747717 -1.501739,3.169939 -3.354249,3.169939z" id="svg_4" fill="#002835"/>
     <path stroke="null" d="m72.612684,16.386c-14.070309,0 -28.138426,0 -42.208734,0c-3.53402,0 -3.53402,5.183027 0,5.183027c14.070309,0 28.138426,0 42.208734,0c3.53402,0 3.53402,-5.183027 0,-5.183027z" id="svg_5" fill="#002835"/>
     <path stroke="null" d="m72.612684,28.653188c-14.070309,0 -6.217419,0 -20.287728,0c-3.531827,0 -3.531827,5.183027 0,5.183027c14.070309,0 6.217419,0 20.287728,0c3.53402,0 3.53402,-5.183027 0,-5.183027z" id="svg_6" fill="#002835"/>
     <polygon stroke="null" points="16.80718231201172,9.907217025756836 80.5050163269043,9.907217025756836 80.5050163269043,42.80284881591797 87.08198928833008,42.80284881591797 87.08198928833008,3.6875839233398438 10.230220794677734,3.6875839233398438 10.230220794677734,23.971878051757812 16.80718231201172,23.971878051757812 " id="svg_7" fill="#002835"/>
     <path stroke="null" d="m75.499969,77.894015c-0.008769,-0.661354 -0.063577,-1.320635 -0.184155,-1.955038c0.984352,-0.748429 2.959632,-2.243214 2.959632,-2.243214l0.107424,-3.132621l-4.551256,-5.361323l-3.319172,-0.101587c0,0 -1.613547,1.227341 -2.420321,1.838938c-0.839659,-0.414642 -1.72974,-0.765015 -2.659284,-1.036605c-0.046039,-0.885261 -0.140308,-2.657856 -0.140308,-2.657856l-2.269051,-2.284678l-7.254386,0.333787l-2.420321,2.1437c0,0 0.120578,2.332362 0.175386,3.497506c-0.719081,0.358665 -1.405277,0.771234 -2.045434,1.229414c-1.00189,-0.472692 -3.012248,-1.416003 -3.012248,-1.416003l-3.233672,0.698672l-3.242441,6.157436l-0.120578,0.420862l0.859389,2.635051c0,0 2.330436,1.090509 3.49675,1.63991c0.026308,0.740136 0.12277,1.461614 0.291579,2.162359c-0.927351,0.692452 -2.782054,2.09187 -2.782054,2.09187l-0.107424,3.128475l4.516179,5.386201c0,0 2.718477,0.389764 2.867554,0.317201s0.447233,-0.215614 0.447233,-0.215614s1.764817,-1.322708 2.64613,-1.984063c0.710312,0.331714 1.4557,0.611597 2.236166,0.833431c0.054808,0.924652 0.171001,2.773956 0.171001,2.773956l2.269051,2.284678l7.245617,-0.402203l2.420321,-2.139553c0,0 -0.144693,-2.382119 -0.219232,-3.574215c0.598503,-0.302689 1.18166,-0.638549 1.72974,-1.009654c0.920774,0.543181 2.771092,1.629544 2.771092,1.629544l3.233672,-0.700745l3.840944,-5.831942l-0.741004,-3.060059c0.004385,-0.002073 -2.37209,-1.399417 -3.56252,-2.096016zm-15.269508,7.019891c-4.033869,-0.122319 -7.201771,-3.315064 -7.070232,-7.127698c0.129347,-3.823001 3.507712,-6.81257 7.539388,-6.692324c4.038253,0.124393 7.201771,3.315064 7.074616,7.135991c-0.131539,3.816781 -3.505519,6.806351 -7.543773,6.684031z" id="svg_8" fill="#002835"/>
     <path stroke="null" d="m88.973967,63.27166c0,0 -2.556245,-1.503078 -3.83656,-2.251507c-0.008769,-0.713184 -0.063577,-1.418076 -0.197309,-2.100162c1.061083,-0.806479 3.185441,-2.41529 3.185441,-2.41529l0.116193,-3.368967l-4.897643,-5.767672l-3.566904,-0.10988c0,0 -1.73851,1.316489 -2.604476,1.979916c-0.903236,-0.449887 -1.859087,-0.827211 -2.865362,-1.117461c-0.046039,-0.953677 -0.144693,-2.858958 -0.144693,-2.858958l-2.435667,-2.460901l-7.809043,0.360739l-2.600091,2.30541c0,0 0.129347,2.506512 0.18854,3.758731c-0.776081,0.38769 -1.510508,0.827211 -2.196705,1.326855c-1.078621,-0.51001 -3.244633,-1.521737 -3.244633,-1.521737l-3.472635,0.752575l-3.492366,6.617689l-0.131539,0.456106l0.927351,2.832006c0,0 1.635471,0.767088 2.926747,1.372465l1.446931,-1.283317l0.591926,-0.520376l0.804581,-0.037318l5.822802,-0.267444c1.019429,-3.122255 4.114984,-5.357176 7.732312,-5.245223c4.345178,0.130612 7.749851,3.563849 7.609542,7.67088c-0.035077,1.105021 -0.342002,2.13748 -0.830889,3.066279l4.088677,4.818142l0.508618,0.599158l-0.026308,0.767088l-0.067962,1.986136c0.848428,0.497571 1.661778,0.976482 1.661778,0.976482l3.477019,-0.752575l4.128138,-6.271462l-0.795812,-3.296405z" id="svg_9" fill="#002835"/>
     <path stroke="null" d="m14.020743,55.909689c0.644542,0 1.177276,-0.165857 1.600394,-0.493424c0.423118,-0.325494 0.743196,-0.789893 0.955851,-1.389051c0.212655,-0.603304 0.320079,-1.393198 0.320079,-2.373826c0,-0.825138 -0.067962,-1.484419 -0.197309,-1.967477c-0.133732,-0.491351 -0.317886,-0.90392 -0.54808,-1.246c-0.236771,-0.337933 -0.530541,-0.599158 -0.885697,-0.777454c-0.357348,-0.178296 -0.771697,-0.269517 -1.245238,-0.269517c-0.64235,0 -1.175083,0.16171 -1.598201,0.489278c-0.423118,0.325494 -0.743196,0.78782 -0.960236,1.389051c-0.210463,0.605378 -0.320079,1.395271 -0.320079,2.382119c0,1.567347 0.289386,2.697247 0.868159,3.393846c0.488887,0.574279 1.157545,0.862456 2.010357,0.862456zm-1.203584,-7.071722c0.295963,-0.398056 0.694965,-0.599158 1.192622,-0.599158c0.504234,0 0.925159,0.22598 1.267161,0.675867c0.337617,0.45196 0.508618,1.364173 0.508618,2.736638c0,1.366246 -0.171001,2.276385 -0.508618,2.728345c-0.33981,0.45818 -0.758543,0.68416 -1.254007,0.68416c-0.497657,0 -0.91639,-0.22598 -1.254007,-0.680013c-0.33981,-0.454033 -0.508618,-1.364173 -0.508618,-2.732492c-0.004385,-1.364173 0.181963,-2.30541 0.556849,-2.813347z" id="svg_10" fill="#002835"/>
     <path stroke="null" d="m20.413548,48.508327c-0.45381,0.383544 -0.984352,0.709038 -1.589432,0.980629l0,0.988922c0.337617,-0.1161 0.719081,-0.292323 1.142199,-0.526596c0.423118,-0.234273 0.762927,-0.472692 1.023813,-0.704892l0,6.524394l1.083006,0l0,-8.375771l-0.69935,0c-0.186347,0.360739 -0.506426,0.72977 -0.960236,1.113314z" id="svg_11" fill="#002835"/>
     <path stroke="null" d="m16.357756,60.881248c-0.234578,-0.337933 -0.526157,-0.599158 -0.885697,-0.777454c-0.357348,-0.178296 -0.771697,-0.269517 -1.245238,-0.269517c-0.640157,0 -1.175083,0.16171 -1.598201,0.489278c-0.423118,0.323421 -0.738812,0.785747 -0.955851,1.389051c-0.212655,0.599158 -0.322271,1.395271 -0.322271,2.377973c0,1.567347 0.291579,2.69932 0.872543,3.391773c0.484503,0.576353 1.150968,0.866602 2.00378,0.866602c0.644542,0 1.179468,-0.165857 1.604778,-0.493424c0.418733,-0.327567 0.738812,-0.79404 0.953659,-1.393198c0.212655,-0.599158 0.320079,-1.389051 0.320079,-2.371753c0,-0.823065 -0.06577,-1.484419 -0.197309,-1.96955c-0.135924,-0.489278 -0.320079,-0.899773 -0.550272,-1.23978zm-0.876928,5.941822c-0.33981,0.456106 -0.75635,0.68416 -1.254007,0.68416s-0.914197,-0.228053 -1.254007,-0.682086c-0.33981,-0.45196 -0.504234,-1.364173 -0.504234,-2.732492c0,-1.366246 0.181963,-2.30541 0.554657,-2.81542c0.295963,-0.395983 0.694965,-0.599158 1.192622,-0.599158c0.506426,0 0.927351,0.22598 1.267161,0.675867c0.33981,0.454033 0.508618,1.364173 0.508618,2.736638c-0.002192,1.370392 -0.171001,2.278459 -0.510811,2.732492z" id="svg_12" fill="#002835"/>
     <path stroke="null" d="m22.281404,68.207975l0,-8.375771l-0.69935,0c-0.186347,0.360739 -0.508618,0.731843 -0.960236,1.115387c-0.451618,0.383544 -0.982159,0.709038 -1.58724,0.980629l0,0.988922c0.335425,-0.1161 0.716889,-0.292323 1.140006,-0.526596s0.76512,-0.472692 1.023813,-0.704892l0,6.524394l1.083006,-0.002073l0,0z" id="svg_13" fill="#002835"/>
     <path stroke="null" d="m28.218207,68.207975l0,-8.375771l-0.697158,0c-0.186347,0.360739 -0.508618,0.731843 -0.960236,1.115387c-0.451618,0.383544 -0.982159,0.709038 -1.58724,0.980629l0,0.988922c0.333233,-0.1161 0.716889,-0.292323 1.140006,-0.526596s0.767312,-0.472692 1.023813,-0.704892l0,6.524394l1.080814,-0.002073l0,0z" id="svg_14" fill="#002835"/>
     <path stroke="null" d="m35.99875,60.881248c-0.234578,-0.337933 -0.526157,-0.599158 -0.885697,-0.777454c-0.357348,-0.178296 -0.771697,-0.269517 -1.243045,-0.269517c-0.64235,0 -1.177276,0.16171 -1.600394,0.489278c-0.423118,0.323421 -0.738812,0.785747 -0.955851,1.389051c-0.212655,0.603304 -0.320079,1.395271 -0.320079,2.380046c0,1.567347 0.289386,2.697247 0.870351,3.393846c0.484503,0.574279 1.15316,0.862456 2.005973,0.862456c0.64235,0 1.177276,-0.165857 1.600394,-0.493424c0.423118,-0.325494 0.738812,-0.789893 0.953659,-1.389051c0.212655,-0.603304 0.322271,-1.393198 0.322271,-2.373826c0,-0.825138 -0.067962,-1.484419 -0.201693,-1.967477c-0.129347,-0.493424 -0.311309,-0.90392 -0.545888,-1.243926zm-0.876928,5.941822c-0.33981,0.456106 -0.75635,0.68416 -1.251815,0.68416c-0.499849,0 -0.91639,-0.228053 -1.258392,-0.682086c-0.33981,-0.45196 -0.504234,-1.364173 -0.504234,-2.732492c0,-1.366246 0.186347,-2.30541 0.554657,-2.81542c0.300348,-0.395983 0.694965,-0.599158 1.192622,-0.599158c0.506426,0 0.927351,0.22598 1.267161,0.675867c0.33981,0.454033 0.508618,1.364173 0.508618,2.736638c0.002192,1.370392 -0.166616,2.278459 -0.508618,2.732492z" id="svg_15" fill="#002835"/>
     <path stroke="null" d="m16.357756,74.865054c-0.234578,-0.340007 -0.526157,-0.599158 -0.885697,-0.779527c-0.357348,-0.178296 -0.771697,-0.269517 -1.245238,-0.269517c-0.640157,0 -1.175083,0.16171 -1.598201,0.489278c-0.423118,0.323421 -0.738812,0.789893 -0.955851,1.389051c-0.212655,0.603304 -0.322271,1.393198 -0.322271,2.380046c0,1.569421 0.291579,2.69932 0.872543,3.391773c0.484503,0.576353 1.150968,0.868675 2.00378,0.868675c0.644542,0 1.179468,-0.165857 1.604778,-0.493424c0.418733,-0.327567 0.738812,-0.79404 0.953659,-1.393198c0.212655,-0.599158 0.320079,-1.393198 0.320079,-2.373826c0,-0.820991 -0.06577,-1.484419 -0.197309,-1.96955c-0.135924,-0.487205 -0.320079,-0.899773 -0.550272,-1.23978zm-0.876928,5.943895c-0.33981,0.454033 -0.75635,0.680013 -1.254007,0.680013s-0.914197,-0.223907 -1.254007,-0.680013c-0.33981,-0.454033 -0.504234,-1.362099 -0.504234,-2.732492c0,-1.366246 0.181963,-2.303337 0.554657,-2.813347c0.295963,-0.395983 0.694965,-0.599158 1.192622,-0.599158c0.506426,0 0.927351,0.22598 1.267161,0.675867c0.33981,0.454033 0.508618,1.364173 0.508618,2.736638c-0.002192,1.366246 -0.171001,2.276385 -0.510811,2.732492z" id="svg_16" fill="#002835"/>
     <path stroke="null" d="m23.210948,74.865054c-0.236771,-0.340007 -0.530541,-0.599158 -0.885697,-0.779527c-0.357348,-0.178296 -0.771697,-0.269517 -1.245238,-0.269517c-0.640157,0 -1.175083,0.16171 -1.598201,0.489278c-0.423118,0.323421 -0.743196,0.789893 -0.960236,1.389051c-0.212655,0.603304 -0.320079,1.393198 -0.320079,2.377973c0,1.569421 0.289386,2.69932 0.868159,3.391773c0.486695,0.576353 1.15316,0.866602 2.005973,0.866602c0.644542,0 1.179468,-0.16171 1.600394,-0.493424c0.423118,-0.325494 0.743196,-0.789893 0.955851,-1.393198c0.212655,-0.599158 0.320079,-1.389051 0.320079,-2.371753c0,-0.823065 -0.067962,-1.484419 -0.197309,-1.96955c-0.129347,-0.485131 -0.313502,-0.8977 -0.543695,-1.237707zm-0.876928,5.943895c-0.33981,0.454033 -0.75635,0.680013 -1.254007,0.680013s-0.91639,-0.223907 -1.254007,-0.680013c-0.33981,-0.454033 -0.508618,-1.362099 -0.508618,-2.732492c0,-1.366246 0.186347,-2.303337 0.559042,-2.813347c0.295963,-0.395983 0.694965,-0.599158 1.192622,-0.599158c0.506426,0 0.927351,0.22598 1.267161,0.675867c0.337617,0.454033 0.508618,1.364173 0.508618,2.736638c-0.002192,1.366246 -0.173193,2.276385 -0.510811,2.732492z" id="svg_17" fill="#002835"/>
     <path stroke="null" d="m30.059755,74.865054c-0.232386,-0.340007 -0.526157,-0.599158 -0.881313,-0.779527c-0.361733,-0.178296 -0.776081,-0.269517 -1.245238,-0.269517c-0.640157,0 -1.175083,0.16171 -1.598201,0.489278c-0.42531,0.323421 -0.743196,0.789893 -0.960236,1.389051c-0.212655,0.603304 -0.320079,1.393198 -0.320079,2.377973c0,1.569421 0.289386,2.69932 0.868159,3.391773c0.486695,0.576353 1.15316,0.866602 2.005973,0.866602c0.64235,0 1.179468,-0.16171 1.600394,-0.493424c0.423118,-0.325494 0.738812,-0.789893 0.953659,-1.393198c0.212655,-0.599158 0.322271,-1.389051 0.322271,-2.371753c0,-0.823065 -0.067962,-1.484419 -0.201693,-1.96955c-0.124962,-0.485131 -0.309117,-0.8977 -0.543695,-1.237707zm-0.874736,5.943895c-0.337617,0.454033 -0.758543,0.680013 -1.251815,0.680013c-0.499849,0 -0.91639,-0.223907 -1.256199,-0.680013c-0.33981,-0.454033 -0.506426,-1.362099 -0.506426,-2.732492c0,-1.366246 0.186347,-2.303337 0.556849,-2.813347c0.298156,-0.395983 0.697158,-0.599158 1.192622,-0.599158c0.504234,0 0.927351,0.22598 1.267161,0.675867c0.33981,0.454033 0.510811,1.364173 0.510811,2.736638c-0.002192,1.366246 -0.173193,2.276385 -0.513003,2.732492z" id="svg_18" fill="#002835"/>
     <path stroke="null" d="m35.98998,82.189708l0,-8.373698l-0.697158,0c-0.18854,0.360739 -0.510811,0.731843 -0.964621,1.113314c-0.45381,0.385617 -0.982159,0.711111 -1.58724,0.982702l0,0.990995c0.337617,-0.120246 0.716889,-0.296469 1.140006,-0.530742s0.767312,-0.472692 1.023813,-0.704892l0,6.526467l1.085198,0l0,-0.004146z" id="svg_19" fill="#002835"/>
     <path stroke="null" d="m41.836898,88.506781c-0.45381,0.383544 -0.984352,0.709038 -1.589432,0.980629l0,0.988922c0.337617,-0.118173 0.719081,-0.292323 1.142199,-0.526596c0.423118,-0.2322 0.762927,-0.470619 1.023813,-0.704892l0,6.524394l1.083006,0l0,-8.377845l-0.69935,0c-0.18854,0.360739 -0.508618,0.731843 -0.960236,1.115387z" id="svg_20" fill="#002835"/>
     <path stroke="null" d="m16.357756,88.846787c-0.234578,-0.337933 -0.526157,-0.597085 -0.885697,-0.777454c-0.357348,-0.182443 -0.771697,-0.271591 -1.245238,-0.271591c-0.640157,0 -1.175083,0.16171 -1.598201,0.487205c-0.423118,0.325494 -0.738812,0.791966 -0.955851,1.391124c-0.212655,0.603304 -0.322271,1.397344 -0.322271,2.382119c0,1.567347 0.291579,2.695174 0.872543,3.391773c0.484503,0.572206 1.150968,0.862456 2.00378,0.862456c0.644542,0 1.179468,-0.16171 1.604778,-0.489278c0.418733,-0.327567 0.738812,-0.796113 0.953659,-1.397344c0.212655,-0.599158 0.320079,-1.391124 0.320079,-2.367607c0,-0.827211 -0.06577,-1.488565 -0.197309,-1.971623c-0.135924,-0.487205 -0.320079,-0.899773 -0.550272,-1.23978zm-0.876928,5.943895c-0.33981,0.456106 -0.75635,0.68416 -1.254007,0.68416s-0.914197,-0.228053 -1.254007,-0.68416c-0.33981,-0.454033 -0.504234,-1.360026 -0.504234,-2.728345c0,-1.370392 0.181963,-2.307484 0.554657,-2.817493c0.295963,-0.395983 0.694965,-0.595011 1.192622,-0.595011c0.506426,0 0.927351,0.221834 1.267161,0.675867c0.33981,0.449887 0.508618,1.362099 0.508618,2.736638c-0.002192,1.364173 -0.171001,2.274312 -0.510811,2.728345z" id="svg_21" fill="#002835"/>
     <path stroke="null" d="m20.621818,88.911057c-0.45381,0.385617 -0.982159,0.709038 -1.58724,0.982702l0,0.988922c0.335425,-0.118173 0.716889,-0.292323 1.140006,-0.526596c0.423118,-0.2322 0.76512,-0.472692 1.023813,-0.704892l0,6.524394l1.083006,0l0,-8.377845l-0.69935,0c-0.186347,0.362812 -0.508618,0.731843 -0.960236,1.113314z" id="svg_22" fill="#002835"/>
     <path stroke="null" d="m26.560813,88.911057c-0.45381,0.385617 -0.982159,0.709038 -1.58724,0.982702l0,0.988922c0.333233,-0.118173 0.716889,-0.292323 1.140006,-0.526596c0.423118,-0.2322 0.767312,-0.472692 1.023813,-0.704892l0,6.524394l1.083006,0l0,-8.377845l-0.697158,0c-0.18854,0.362812 -0.510811,0.731843 -0.962428,1.113314z" id="svg_23" fill="#002835"/>
     <path stroke="null" d="m35.99875,88.846787c-0.234578,-0.337933 -0.526157,-0.597085 -0.885697,-0.777454c-0.357348,-0.182443 -0.771697,-0.271591 -1.243045,-0.271591c-0.64235,0 -1.177276,0.16171 -1.600394,0.487205s-0.738812,0.791966 -0.955851,1.391124c-0.212655,0.603304 -0.320079,1.397344 -0.320079,2.382119c0,1.567347 0.289386,2.695174 0.870351,3.391773c0.484503,0.572206 1.15316,0.862456 2.005973,0.862456c0.64235,0 1.177276,-0.16171 1.600394,-0.489278s0.738812,-0.796113 0.953659,-1.397344c0.212655,-0.599158 0.322271,-1.391124 0.322271,-2.367607c0,-0.827211 -0.067962,-1.488565 -0.201693,-1.971623c-0.129347,-0.487205 -0.311309,-0.899773 -0.545888,-1.23978zm-0.876928,5.943895c-0.33981,0.456106 -0.75635,0.68416 -1.251815,0.68416c-0.499849,0 -0.91639,-0.228053 -1.258392,-0.68416c-0.33981,-0.454033 -0.504234,-1.360026 -0.504234,-2.728345c0,-1.370392 0.186347,-2.307484 0.554657,-2.817493c0.300348,-0.395983 0.694965,-0.595011 1.192622,-0.595011c0.506426,0 0.927351,0.221834 1.267161,0.675867c0.33981,0.449887 0.508618,1.362099 0.508618,2.736638c0.002192,1.364173 -0.166616,2.274312 -0.508618,2.728345z" id="svg_24" fill="#002835"/>
    </g>
   </g>
  </g>
  <g id="svg_25"/>
  <g id="svg_26"/>
  <g id="svg_27"/>
  <g id="svg_28"/>
  <g id="svg_29"/>
  <g id="svg_30"/>
  <g id="svg_31"/>
  <g id="svg_32"/>
  <g id="svg_33"/>
  <g id="svg_34"/>
  <g id="svg_35"/>
  <g id="svg_36"/>
  <g id="svg_37"/>
  <g id="svg_38"/>
  <g id="svg_39"/>
 </g>
</svg>