<svg width="200" height="200" xmlns="http://www.w3.org/2000/svg">
 <g>
  <title>background</title>
  <rect x="-1" y="-1" width="202" height="202" id="canvas_background" fill="none"/>
 </g>

 <g>
  <title>Layer 1</title>
  <g stroke="null" id="svg_1">
   <g stroke="null" id="svg_2">
    <path stroke="null" d="m144.833862,84.89636l-5.052676,7.874076c-0.96328,-0.40346 -2.020465,-0.629398 -3.138233,-0.629398c-0.7785,0 -1.529737,0.112969 -2.24311,0.3169l-4.979976,-8.654588c-1.338899,0.513495 -2.615699,1.176637 -3.795566,1.995294l5.123862,8.905467c-1.26014,1.360028 -2.032581,3.149924 -2.032581,5.117343c0,4.235599 3.55626,7.681882 7.92737,7.681882c4.374139,0 7.9304,-3.447751 7.9304,-7.681882c0,-1.627045 -0.528592,-3.135253 -1.422201,-4.37791l5.142037,-8.011986c-1.054155,-0.982976 -2.209789,-1.836844 -3.459326,-2.535197zm-8.190909,19.857578c-2.808052,0 -5.090541,-2.212429 -5.090541,-4.931017c0,-2.718588 2.284004,-4.92955 5.090541,-4.92955s5.090541,2.212429 5.090541,4.92955c0.001515,2.718588 -2.282489,4.931017 -5.090541,4.931017z" id="svg_3" fill="#002835"/>
    <path stroke="null" d="m154.460604,77.818934l13.390501,-20.865495c0.696712,0.195128 1.429774,0.305163 2.191613,0.305163c4.372625,0 7.928885,-3.446284 7.928885,-7.681882c0,-4.235599 -3.557775,-7.680415 -7.928885,-7.680415c-4.374139,0 -7.9304,3.446284 -7.9304,7.680415c0,1.987958 0.790617,3.796927 2.07499,5.162824l-13.269334,20.677703c1.237421,0.711557 2.420317,1.515543 3.542629,2.401689zm15.582114,-33.173232c2.806538,0 5.089026,2.212429 5.089026,4.931017c0,2.720055 -2.284004,4.932484 -5.089026,4.932484c-2.808052,0 -5.090541,-2.212429 -5.090541,-4.932484c-0.001515,-2.718588 2.280974,-4.931017 5.090541,-4.931017z" id="svg_4" fill="#002835"/>
    <path stroke="null" d="m110.90096,66.642353c0.490728,0.092429 0.993572,0.145246 1.511562,0.145246c0.730033,0 1.434318,-0.104166 2.106796,-0.283156l5.487364,9.536332c1.211673,-0.764374 2.471813,-1.445121 3.78042,-2.02317l-5.576725,-9.688914c1.319209,-1.371765 2.132544,-3.205675 2.132544,-5.222976c0,-4.235599 -3.557775,-7.680415 -7.9304,-7.680415c-4.372625,0 -7.92737,3.444817 -7.92737,7.680415c0,2.231502 0.992057,4.237066 2.564203,5.642574l-17.828253,36.022395c-0.708829,-0.202464 -1.457037,-0.315433 -2.235537,-0.315433c-0.748208,0 -1.469153,0.105633 -2.155263,0.29636l-15.989539,-28.631004c1.082933,-1.314547 1.735722,-2.975336 1.735722,-4.782837c0,-4.235599 -3.55626,-7.681882 -7.928885,-7.681882c-4.372625,0 -7.9304,3.446284 -7.9304,7.681882c0,0.801052 0.12874,1.575696 0.366531,2.303391l-30.129763,18.179184c-1.40857,-1.24119 -3.273032,-2.005564 -5.323788,-2.005564c-4.372625,0 -7.928885,3.446284 -7.928885,7.681882c0,4.235599 3.557775,7.680415 7.928885,7.680415c4.372625,0 7.9304,-3.444817 7.9304,-7.680415c0,-0.739433 -0.115109,-1.452457 -0.31655,-2.13027l30.217609,-18.233467c1.390395,1.170768 3.20336,1.88526 5.187475,1.88526c0.931474,0 1.820539,-0.164318 2.650535,-0.451875l15.853226,28.385993c-1.29649,1.367363 -2.09468,3.183668 -2.09468,5.181896c0,4.237066 3.557775,7.681882 7.928885,7.681882c4.372625,0 7.9304,-3.446284 7.9304,-7.681882c0,-1.960083 -0.769412,-3.748512 -2.023494,-5.107073l18.006975,-36.384775zm1.511562,-12.469121c2.808052,0 5.090541,2.212429 5.090541,4.931017c0,2.720055 -2.284004,4.931017 -5.090541,4.931017c-2.805023,0 -5.089026,-2.212429 -5.089026,-4.931017s2.285518,-4.931017 5.089026,-4.931017zm-92.782343,44.25445c-2.806538,0 -5.090541,-2.212429 -5.090541,-4.931017c0,-2.720055 2.284004,-4.931017 5.090541,-4.931017c2.808052,0 5.092056,2.212429 5.092056,4.931017c-0.001515,2.718588 -2.285518,4.931017 -5.092056,4.931017zm43.015905,-26.158893c-2.808052,0 -5.090541,-2.212429 -5.090541,-4.931017c0,-2.720055 2.284004,-4.932484 5.090541,-4.932484s5.090541,2.212429 5.090541,4.932484c0.001515,2.717121 -2.284004,4.931017 -5.090541,4.931017zm24.339481,40.800831c-2.806538,0 -5.090541,-2.213896 -5.090541,-4.933952c0,-2.718588 2.284004,-4.92955 5.090541,-4.92955c2.808052,0 5.092056,2.212429 5.092056,4.92955c0,2.718588 -2.284004,4.933952 -5.092056,4.933952z" id="svg_5" fill="#002835"/>
    <path stroke="null" d="m187.41205,152.328499l-31.688277,-35.237481c8.827038,-9.72119 9.111781,-24.539184 0.096934,-34.562602c-9.81758,-10.918367 -26.977899,-12.064194 -38.246457,-2.55427c-11.270073,9.509924 -12.454484,26.132485 -2.635389,37.047917c9.013332,10.024886 24.206197,11.783972 35.356617,4.646394l31.688277,35.240415c1.305578,1.449523 3.578979,1.602104 5.079939,0.337439s1.653934,-3.463889 0.348356,-4.917813zm-38.952257,-38.010353c-8.278756,6.986464 -20.881669,6.145799 -28.092638,-1.873523c-7.212483,-8.019322 -6.343108,-20.225827 1.934133,-27.210824c8.28027,-6.986464 20.881669,-6.144332 28.091123,1.87499c7.213998,8.017855 6.344623,20.225827 -1.932618,27.209357z" id="svg_6" fill="#002835"/>
   </g>
  </g>
  <g id="svg_7"/>
  <g id="svg_8"/>
  <g id="svg_9"/>
  <g id="svg_10"/>
  <g id="svg_11"/>
  <g id="svg_12"/>
  <g id="svg_13"/>
  <g id="svg_14"/>
  <g id="svg_15"/>
  <g id="svg_16"/>
  <g id="svg_17"/>
  <g id="svg_18"/>
  <g id="svg_19"/>
  <g id="svg_20"/>
  <g id="svg_21"/>
 </g>
</svg>