<svg width="110.103" height="110.103" xmlns="http://www.w3.org/2000/svg">

 <g>
  <title>background</title>
  <rect fill="none" id="canvas_background" height="112.103" width="112.103" y="-1" x="-1"/>
 </g>
 <g>
  <title>Layer 1</title>
  <g id="svg_1">
   <g id="Layer_1_14_">
    <g id="svg_2">
     <g id="svg_3">
      <g id="svg_4">
       <path fill="#002835" id="svg_5" d="m55.060951,7.500502c-21.633,0 -39.171,6.393 -39.171,14.283l0,11.72c0,7.891 17.538,14.282 39.171,14.282c21.632,0 39.17,-6.392 39.17,-14.282l0,-11.72c0,-7.89 -17.538,-14.283 -39.17,-14.283z"/>
      </g>
     </g>
     <g id="svg_6">
      <g id="svg_7">
       <path fill="#002835" id="svg_8" d="m55.060951,54.615502c-20.654,0 -37.682,-5.832 -39.171,-13.227c-0.071,0.353 0,19.355 0,19.355c0,7.892 17.538,14.283 39.171,14.283c21.632,0 39.17,-6.393 39.17,-14.283c0,0 0.044,-19.003 -0.026,-19.355c-1.491,7.396 -18.491,13.227 -39.144,13.227z"/>
      </g>
     </g>
     <path fill="#002835" id="svg_9" d="m94.193951,68.964502c-1.488,7.391 -18.479,13.226 -39.133,13.226s-37.686,-5.836 -39.175,-13.226l0.004,19.356c0,7.891 17.538,14.282 39.171,14.282c21.632,0 39.17,-6.393 39.17,-14.282l-0.037,-19.356z"/>
    </g>
   </g>
  </g>
  <g id="svg_10"/>
  <g id="svg_11"/>
  <g id="svg_12"/>
  <g id="svg_13"/>
  <g id="svg_14"/>
  <g id="svg_15"/>
  <g id="svg_16"/>
  <g id="svg_17"/>
  <g id="svg_18"/>
  <g id="svg_19"/>
  <g id="svg_20"/>
  <g id="svg_21"/>
  <g id="svg_22"/>
  <g id="svg_23"/>
  <g id="svg_24"/>
 </g>
</svg>