<?xml version="1.0" standalone="no"?>
<!DOCTYPE svg PUBLIC "-//W3C//DTD SVG 20010904//EN"
 "http://www.w3.org/TR/2001/REC-SVG-20010904/DTD/svg10.dtd">
<svg version="1.0" xmlns="http://www.w3.org/2000/svg"
 width="6050.000000pt" height="5676.000000pt" viewBox="0 0 6050.000000 5676.000000"
 preserveAspectRatio="xMidYMid meet">

<g transform="translate(0.000000,5676.000000) scale(0.100000,-0.100000)"
fill="#000000" stroke="none">
<path d="M14320 56690 c0 -18 -7 -20 -60 -20 -53 0 -60 -2 -60 -20 0 -17 -7
-20 -45 -20 -41 0 -45 -2 -45 -25 0 -22 -4 -25 -40 -25 -33 0 -40 -3 -40 -20
0 -17 -7 -20 -40 -20 -33 0 -40 -3 -40 -20 0 -18 -7 -20 -65 -20 -58 0 -65 -2
-65 -20 0 -17 -7 -20 -40 -20 -33 0 -40 -3 -40 -20 0 -18 -7 -20 -65 -20 -58
0 -65 -2 -65 -20 0 -17 -7 -20 -40 -20 -36 0 -40 -2 -40 -25 0 -22 -4 -25 -40
-25 -33 0 -40 -3 -40 -20 0 -18 -7 -20 -65 -20 -58 0 -65 -2 -65 -20 0 -17 -7
-20 -40 -20 -33 0 -40 -3 -40 -20 0 -17 -7 -20 -45 -20 -38 0 -45 -3 -45 -20
0 -18 -7 -20 -60 -20 -53 0 -60 -2 -60 -20 0 -17 -7 -20 -40 -20 -36 0 -40 -2
-40 -25 0 -24 -2 -25 -65 -25 -58 0 -65 -2 -65 -20 0 -17 -7 -20 -40 -20 -33
0 -40 -3 -40 -20 0 -17 -7 -20 -45 -20 -38 0 -45 -3 -45 -20 0 -17 -7 -20 -40
-20 -33 0 -40 -3 -40 -20 0 -18 -7 -20 -60 -20 -53 0 -60 -2 -60 -20 0 -17 -7
-20 -45 -20 -41 0 -45 -2 -45 -25 0 -24 -3 -25 -60 -25 -53 0 -60 -2 -60 -20
0 -17 -7 -20 -45 -20 -38 0 -45 -3 -45 -20 0 -17 -7 -20 -40 -20 -33 0 -40 -3
-40 -20 0 -18 -7 -20 -60 -20 -53 0 -60 -2 -60 -20 0 -17 -7 -20 -45 -20 -38
0 -45 -3 -45 -20 0 -17 -7 -20 -40 -20 -36 0 -40 -2 -40 -25 0 -24 -2 -25 -65
-25 -58 0 -65 -2 -65 -20 0 -17 -7 -20 -40 -20 -33 0 -40 -3 -40 -20 0 -17 -7
-20 -40 -20 -33 0 -40 -3 -40 -20 0 -18 -7 -20 -65 -20 -58 0 -65 -2 -65 -20
0 -17 -7 -20 -40 -20 -33 0 -40 -3 -40 -20 0 -17 -7 -20 -40 -20 -36 0 -40 -2
-40 -25 0 -24 -2 -25 -65 -25 -58 0 -65 -2 -65 -20 0 -17 -7 -20 -40 -20 -33
0 -40 -3 -40 -20 0 -18 -7 -20 -65 -20 -58 0 -65 -2 -65 -20 0 -17 -7 -20 -40
-20 -33 0 -40 -3 -40 -20 0 -17 -7 -20 -40 -20 -33 0 -40 -3 -40 -20 0 -18 -7
-20 -65 -20 -63 0 -65 -1 -65 -25 0 -22 -4 -25 -40 -25 -33 0 -40 -3 -40 -20
0 -17 -7 -20 -45 -20 -38 0 -45 -3 -45 -20 0 -18 -7 -20 -60 -20 -53 0 -60 -2
-60 -20 0 -17 -7 -20 -40 -20 -33 0 -40 -3 -40 -20 0 -18 -7 -20 -65 -20 -58
0 -65 -2 -65 -20 0 -17 -7 -20 -40 -20 -36 0 -40 -2 -40 -25 0 -18 -5 -25 -20
-25 -20 0 -20 -7 -20 -475 l0 -475 -25 0 c-20 0 -25 -5 -25 -25 0 -22 -4 -25
-40 -25 -33 0 -40 -3 -40 -20 0 -17 -7 -20 -40 -20 -33 0 -40 -3 -40 -20 0
-18 -7 -20 -65 -20 -58 0 -65 -2 -65 -20 0 -17 -7 -20 -40 -20 -33 0 -40 -3
-40 -20 0 -18 -7 -20 -65 -20 -58 0 -65 -2 -65 -20 0 -17 -7 -20 -40 -20 -36
0 -40 -2 -40 -25 0 -22 -4 -25 -40 -25 -33 0 -40 -3 -40 -20 0 -18 -7 -20 -65
-20 -58 0 -65 -2 -65 -20 0 -17 -7 -20 -40 -20 -33 0 -40 -3 -40 -20 0 -17 -7
-20 -40 -20 -33 0 -40 -3 -40 -20 0 -18 -7 -20 -65 -20 -58 0 -65 -2 -65 -20
0 -17 -7 -20 -40 -20 -36 0 -40 -2 -40 -25 0 -23 -4 -25 -45 -25 -38 0 -45 -3
-45 -20 0 -18 -7 -20 -60 -20 -53 0 -60 -2 -60 -20 0 -17 -7 -20 -40 -20 -33
0 -40 -3 -40 -20 0 -18 -7 -20 -65 -20 -58 0 -65 -2 -65 -20 0 -17 -7 -20 -40
-20 -33 0 -40 -3 -40 -20 0 -17 -7 -20 -45 -20 -41 0 -45 -2 -45 -25 0 -24 -3
-25 -60 -25 -53 0 -60 -2 -60 -20 0 -17 -7 -20 -40 -20 -33 0 -40 -3 -40 -20
0 -17 -7 -20 -45 -20 -38 0 -45 -3 -45 -20 0 -18 -7 -20 -60 -20 l-60 0 -1
-14772 c-1 -8125 -4 -14763 -6 -14750 -2 12 -11 22 -19 22 -12 0 -14 37 -14
228 0 125 -3 284 -7 355 l-6 127 -59 0 c-51 0 -58 -2 -58 -20 0 -18 -7 -20
-65 -20 -63 0 -65 -1 -65 -25 0 -25 -1 -25 -80 -25 -73 0 -80 -2 -80 -20 0
-18 -7 -20 -65 -20 -58 0 -65 -2 -65 -20 0 -17 -7 -20 -40 -20 l-40 0 0 -40
c0 -33 -3 -40 -20 -40 -13 0 -20 -7 -20 -20 0 -15 -7 -20 -25 -20 -23 0 -25
-4 -25 -45 l0 -45 -40 0 c-33 0 -40 -3 -40 -20 0 -13 -7 -20 -20 -20 -13 0
-20 -7 -20 -20 0 -13 -7 -20 -20 -20 -13 0 -20 -7 -20 -20 0 -17 -7 -20 -45
-20 l-45 0 0 -45 0 -45 -40 0 c-33 0 -40 -3 -40 -20 0 -13 -7 -20 -20 -20 -13
0 -20 -7 -20 -20 0 -13 -7 -20 -20 -20 -13 0 -20 -7 -20 -20 0 -13 -7 -20 -20
-20 -13 0 -20 -7 -20 -20 0 -15 -7 -20 -25 -20 -23 0 -25 -4 -25 -45 0 -38 -3
-45 -20 -45 -15 0 -20 7 -20 25 0 18 -5 25 -20 25 -17 0 -20 -7 -20 -45 0 -38
-3 -45 -20 -45 -13 0 -20 -7 -20 -20 0 -13 -7 -20 -20 -20 -13 0 -20 -7 -20
-20 0 -13 -7 -20 -20 -20 -13 0 -20 -7 -20 -20 0 -15 -7 -20 -25 -20 -18 0
-25 -5 -25 -20 0 -17 -7 -20 -40 -20 -36 0 -40 -2 -40 -25 0 -22 -4 -25 -40
-25 -33 0 -40 -3 -40 -20 0 -17 -7 -20 -45 -20 -38 0 -45 -3 -45 -20 0 -13 -7
-20 -20 -20 -13 0 -20 -7 -20 -20 0 -13 -7 -20 -20 -20 -13 0 -20 -7 -20 -20
0 -13 -7 -20 -20 -20 -13 0 -20 -7 -20 -20 0 -13 -7 -20 -20 -20 -15 0 -20 -7
-20 -25 0 -23 -4 -25 -45 -25 -38 0 -45 -3 -45 -20 0 -13 -7 -20 -20 -20 -13
0 -20 -7 -20 -20 0 -13 -7 -20 -20 -20 -13 0 -20 -7 -20 -20 0 -13 -7 -20 -20
-20 -13 0 -20 -7 -20 -20 0 -13 -7 -20 -20 -20 -13 0 -20 -7 -20 -20 0 -17 -7
-20 -45 -20 -41 0 -45 -2 -45 -25 0 -22 -4 -25 -40 -25 -33 0 -40 -3 -40 -20
0 -17 -7 -20 -40 -20 -33 0 -40 -3 -40 -20 0 -17 -7 -20 -45 -20 -38 0 -45 -3
-45 -20 0 -13 -7 -20 -20 -20 -13 0 -20 -7 -20 -20 0 -13 -7 -20 -20 -20 -13
0 -20 -7 -20 -20 0 -13 -7 -20 -20 -20 -15 0 -20 -7 -20 -25 0 -18 -5 -25 -20
-25 -13 0 -20 -7 -20 -20 0 -13 -7 -20 -20 -20 -13 0 -20 -7 -20 -20 0 -15 -7
-20 -25 -20 -18 0 -25 -5 -25 -20 0 -13 -7 -20 -20 -20 -13 0 -20 -7 -20 -20
0 -13 -7 -20 -20 -20 -13 0 -20 -7 -20 -20 0 -13 -7 -20 -20 -20 -15 0 -20 -7
-20 -25 0 -24 -2 -25 -65 -25 -58 0 -65 -2 -65 -20 0 -17 -7 -20 -40 -20 -33
0 -40 -3 -40 -20 0 -13 -7 -20 -20 -20 -13 0 -20 -7 -20 -20 0 -13 -7 -20 -20
-20 -13 0 -20 -7 -20 -20 0 -13 -7 -20 -20 -20 -13 0 -20 -7 -20 -20 0 -15 -7
-20 -25 -20 -20 0 -25 -5 -25 -25 0 -22 -4 -25 -40 -25 -33 0 -40 -3 -40 -20
0 -17 -7 -20 -40 -20 -33 0 -40 -3 -40 -20 0 -13 -7 -20 -20 -20 -13 0 -20 -7
-20 -20 0 -17 -7 -20 -45 -20 -38 0 -45 -3 -45 -20 0 -13 -7 -20 -20 -20 -13
0 -20 -7 -20 -20 0 -17 -7 -20 -40 -20 -36 0 -40 -2 -40 -25 0 -18 -5 -25 -20
-25 -13 0 -20 -7 -20 -20 0 -17 -7 -20 -45 -20 -38 0 -45 -3 -45 -20 0 -13 -7
-20 -20 -20 -13 0 -20 -7 -20 -20 0 -13 -7 -20 -20 -20 -13 0 -20 -7 -20 -20
0 -18 -7 -20 -65 -20 -58 0 -65 -2 -65 -20 0 -13 -7 -20 -20 -20 -15 0 -20 -7
-20 -25 0 -18 -5 -25 -20 -25 -13 0 -20 -7 -20 -20 0 -17 -7 -20 -40 -20 -33
0 -40 -3 -40 -20 0 -17 -7 -20 -45 -20 -38 0 -45 -3 -45 -20 0 -17 -7 -20 -40
-20 -33 0 -40 -3 -40 -20 0 -13 -7 -20 -20 -20 -13 0 -20 7 -20 20 0 13 -7 20
-20 20 -17 0 -20 -7 -20 -40 l0 -40 -45 0 c-41 0 -45 -2 -45 -25 0 -18 -5 -25
-20 -25 -13 0 -20 -7 -20 -20 0 -13 -7 -20 -20 -20 -13 0 -20 -7 -20 -20 0
-13 -7 -20 -20 -20 -13 0 -20 -7 -20 -20 0 -17 -7 -20 -40 -20 -33 0 -40 -3
-40 -20 0 -17 -7 -20 -45 -20 -38 0 -45 -3 -45 -20 0 -19 -7 -20 -105 -20 -98
0 -105 1 -105 20 0 17 -7 20 -40 20 -33 0 -40 3 -40 20 0 18 -7 20 -60 20 -53
0 -60 2 -60 20 0 17 -7 20 -45 20 -38 0 -45 -3 -45 -20 0 -17 7 -20 45 -20 38
0 45 -3 45 -20 0 -18 7 -20 60 -20 53 0 60 -2 60 -20 0 -17 7 -20 40 -20 36 0
40 -2 40 -25 0 -23 4 -25 45 -25 38 0 45 -3 45 -20 0 -17 7 -20 40 -20 33 0
40 -3 40 -20 0 -18 7 -20 65 -20 58 0 65 -2 65 -20 0 -17 7 -20 40 -20 33 0
40 -3 40 -20 0 -18 7 -20 60 -20 53 0 60 -2 60 -20 0 -17 7 -20 45 -20 41 0
45 -2 45 -25 0 -22 4 -25 40 -25 33 0 40 -3 40 -20 0 -18 7 -20 65 -20 58 0
65 -2 65 -20 0 -17 7 -20 40 -20 33 0 40 -3 40 -20 0 -17 7 -20 40 -20 33 0
40 -3 40 -20 0 -18 7 -20 65 -20 58 0 65 -2 65 -20 0 -17 7 -20 40 -20 36 0
40 -2 40 -25 0 -24 2 -25 65 -25 58 0 65 -2 65 -20 0 -17 7 -20 40 -20 33 0
40 -3 40 -20 0 -17 7 -20 40 -20 33 0 40 -3 40 -20 0 -18 7 -20 65 -20 58 0
65 -2 65 -20 0 -17 7 -20 40 -20 33 0 40 -3 40 -20 0 -18 7 -20 65 -20 63 0
65 -1 65 -25 0 -22 4 -25 40 -25 33 0 40 -3 40 -20 0 -17 7 -20 40 -20 33 0
40 -3 40 -20 0 -18 7 -20 65 -20 58 0 65 -2 65 -20 0 -17 7 -20 40 -20 33 0
40 -3 40 -20 0 -17 7 -20 40 -20 33 0 40 -3 40 -20 0 -18 7 -20 65 -20 63 0
65 -1 65 -25 0 -22 4 -25 40 -25 33 0 40 -3 40 -20 0 -18 7 -20 65 -20 58 0
65 -2 65 -20 0 -17 7 -20 40 -20 33 0 40 -3 40 -20 0 -17 7 -20 40 -20 33 0
40 -3 40 -20 0 -18 7 -20 65 -20 58 0 65 -2 65 -20 0 -17 7 -20 40 -20 36 0
40 -2 40 -25 0 -24 2 -25 65 -25 58 0 65 -2 65 -20 0 -17 7 -20 40 -20 33 0
40 -3 40 -20 0 -17 7 -20 40 -20 33 0 40 -3 40 -20 0 -18 7 -20 65 -20 58 0
65 -2 65 -20 0 -17 7 -20 40 -20 33 0 40 -3 40 -20 0 -18 7 -20 65 -20 63 0
65 -1 65 -25 0 -22 4 -25 40 -25 33 0 40 -3 40 -20 0 -17 7 -20 40 -20 33 0
40 -3 40 -20 0 -18 7 -20 65 -20 58 0 65 -2 65 -20 0 -17 7 -20 40 -20 33 0
40 -3 40 -20 0 -18 7 -20 65 -20 58 0 65 -2 65 -20 0 -17 7 -20 40 -20 36 0
40 -2 40 -25 0 -24 2 -25 65 -25 58 0 65 -2 65 -20 0 -17 7 -20 40 -20 33 0
40 -3 40 -20 0 -17 7 -20 40 -20 33 0 40 -3 40 -20 0 -18 7 -20 65 -20 58 0
65 -2 65 -20 0 -17 7 -20 40 -20 33 0 40 -3 40 -20 0 -18 7 -20 65 -20 63 0
65 -1 65 -25 0 -22 4 -25 40 -25 33 0 40 -3 40 -20 0 -17 7 -20 40 -20 33 0
40 -3 40 -20 0 -18 7 -20 65 -20 58 0 65 -2 65 -20 0 -17 7 -20 40 -20 33 0
40 -3 40 -20 0 -18 7 -20 65 -20 58 0 65 -2 65 -20 0 -17 7 -20 40 -20 36 0
40 -2 40 -25 0 -22 4 -25 40 -25 33 0 40 -3 40 -20 0 -18 7 -20 65 -20 58 0
65 -2 65 -20 0 -17 7 -20 40 -20 33 0 40 -3 40 -20 0 -17 7 -20 40 -20 33 0
40 -3 40 -20 0 -18 7 -20 65 -20 58 0 65 -2 65 -20 0 -17 7 -20 40 -20 36 0
40 -2 40 -25 0 -24 2 -25 65 -25 58 0 65 -2 65 -20 0 -17 7 -20 40 -20 33 0
40 -3 40 -20 0 -17 7 -20 40 -20 33 0 40 -3 40 -20 0 -18 7 -20 65 -20 58 0
65 -2 65 -20 0 -17 7 -20 40 -20 33 0 40 -3 40 -20 0 -18 7 -20 65 -20 63 0
65 -1 65 -25 0 -22 4 -25 40 -25 33 0 40 -3 40 -20 0 -17 7 -20 40 -20 33 0
40 -3 40 -20 0 -18 7 -20 65 -20 58 0 65 -2 65 -20 0 -17 7 -20 40 -20 33 0
40 -3 40 -20 0 -18 7 -20 65 -20 58 0 65 -2 65 -20 0 -17 7 -20 40 -20 36 0
40 -2 40 -25 0 -22 4 -25 40 -25 33 0 40 -3 40 -20 0 -18 7 -20 65 -20 58 0
65 -2 65 -20 0 -17 7 -20 40 -20 33 0 40 -3 40 -20 0 -18 7 -20 65 -20 58 0
65 -2 65 -20 0 -17 7 -20 40 -20 33 0 40 -3 40 -20 0 -17 7 -20 40 -20 36 0
40 -2 40 -25 0 -24 2 -25 65 -25 58 0 65 -2 65 -20 0 -17 7 -20 40 -20 33 0
40 -3 40 -20 0 -17 7 -20 45 -20 38 0 45 -3 45 -20 0 -18 7 -20 60 -20 53 0
60 -2 60 -20 0 -17 7 -20 40 -20 33 0 40 -3 40 -20 0 -18 7 -20 65 -20 63 0
65 -1 65 -25 0 -22 4 -25 40 -25 33 0 40 -3 40 -20 0 -18 7 -20 65 -20 58 0
65 -2 65 -20 0 -17 7 -20 40 -20 33 0 40 -3 40 -20 0 -17 7 -20 40 -20 33 0
40 -3 40 -20 0 -18 7 -20 65 -20 58 0 65 -2 65 -20 0 -17 7 -20 40 -20 36 0
40 -2 40 -25 0 -23 4 -25 45 -25 38 0 45 -3 45 -20 0 -18 7 -20 60 -20 53 0
60 -2 60 -20 0 -17 7 -20 40 -20 33 0 40 -3 40 -20 0 -18 7 -20 65 -20 58 0
65 -2 65 -20 0 -17 7 -20 40 -20 33 0 40 -3 40 -20 0 -17 7 -20 45 -20 41 0
45 -2 45 -25 0 -24 3 -25 60 -25 53 0 60 -2 60 -20 0 -17 7 -20 40 -20 33 0
40 -3 40 -20 0 -18 7 -20 65 -20 58 0 65 -2 65 -20 0 -17 7 -20 45 -20 38 0
45 -3 45 -20 0 -18 7 -20 60 -20 53 0 60 -2 60 -20 0 -17 7 -20 40 -20 36 0
40 -2 40 -25 0 -24 2 -25 65 -25 58 0 65 -2 65 -20 0 -17 7 -20 40 -20 33 0
40 -3 40 -20 0 -18 7 -20 65 -20 58 0 65 -2 65 -20 0 -17 7 -20 40 -20 33 0
40 -3 40 -20 0 -17 7 -20 40 -20 33 0 40 -3 40 -20 0 -18 7 -20 65 -20 63 0
65 -1 65 -25 0 -22 4 -25 40 -25 33 0 40 -3 40 -20 0 -17 7 -20 45 -20 38 0
45 -3 45 -20 0 -18 7 -20 60 -20 53 0 60 -2 60 -20 0 -17 7 -20 40 -20 33 0
40 -3 40 -20 0 -18 7 -20 65 -20 58 0 65 -2 65 -20 0 -17 7 -20 40 -20 36 0
40 -2 40 -25 0 -23 4 -25 45 -25 38 0 45 -3 45 -20 0 -18 7 -20 60 -20 53 0
60 -2 60 -20 0 -17 7 -20 40 -20 33 0 40 -3 40 -20 0 -17 7 -20 45 -20 38 0
45 -3 45 -20 0 -18 7 -20 60 -20 53 0 60 -2 60 -20 0 -17 7 -20 45 -20 41 0
45 -2 45 -25 0 -24 3 -25 60 -25 53 0 60 -2 60 -20 0 -17 7 -20 40 -20 33 0
40 -3 40 -20 0 -17 7 -20 45 -20 38 0 45 -3 45 -20 0 -18 7 -20 60 -20 53 0
60 -2 60 -20 0 -17 7 -20 45 -20 38 0 45 -3 45 -20 0 -17 7 -20 40 -20 36 0
40 -2 40 -25 0 -24 3 -25 60 -25 53 0 60 -2 60 -20 0 -17 7 -20 45 -20 38 0
45 -3 45 -20 0 -18 7 -20 60 -20 53 0 60 -2 60 -20 0 -17 7 -20 45 -20 38 0
45 -3 45 -20 0 -17 7 -20 40 -20 33 0 40 -3 40 -20 0 -18 7 -20 60 -20 57 0
60 -1 60 -25 0 -23 4 -25 45 -25 38 0 45 -3 45 -20 0 -17 7 -20 40 -20 33 0
40 -3 40 -20 0 -17 7 -20 40 -20 33 0 40 -3 40 -20 0 -18 7 -20 65 -20 58 0
65 -2 65 -20 0 -17 7 -20 40 -20 33 0 40 -3 40 -20 0 -18 7 -20 65 -20 63 0
65 -1 65 -25 0 -22 4 -25 40 -25 33 0 40 -3 40 -20 0 -17 7 -20 40 -20 33 0
40 -3 40 -20 0 -17 7 -20 45 -20 38 0 45 -3 45 -20 0 -18 7 -20 60 -20 53 0
60 -2 60 -20 0 -17 7 -20 45 -20 38 0 45 -3 45 -20 0 -18 7 -20 60 -20 57 0
60 -1 60 -25 0 -22 4 -25 40 -25 33 0 40 -3 40 -20 0 -17 7 -20 45 -20 38 0
45 -3 45 -20 0 -18 7 -20 60 -20 53 0 60 -2 60 -20 0 -17 7 -20 45 -20 38 0
45 -3 45 -20 0 -17 7 -20 40 -20 33 0 40 -3 40 -20 0 -18 7 -20 60 -20 57 0
60 -1 60 -25 0 -23 4 -25 45 -25 38 0 45 -3 45 -20 0 -18 7 -20 60 -20 53 0
60 -2 60 -20 0 -17 7 -20 45 -20 38 0 45 -3 45 -20 0 -18 7 -20 60 -20 53 0
60 -2 60 -20 0 -17 7 -20 40 -20 33 0 40 -3 40 -20 0 -17 7 -20 45 -20 41 0
45 -2 45 -25 0 -24 3 -25 60 -25 53 0 60 -2 60 -20 0 -17 7 -20 45 -20 38 0
45 -3 45 -20 0 -17 7 -20 40 -20 33 0 40 -3 40 -20 0 -18 7 -20 60 -20 53 0
60 -2 60 -20 0 -17 7 -20 45 -20 38 0 45 -3 45 -20 0 -18 7 -20 60 -20 57 0
60 -1 60 -25 0 -23 4 -25 45 -25 38 0 45 -3 45 -20 0 -17 7 -20 40 -20 33 0
40 -3 40 -20 0 -18 7 -20 60 -20 53 0 60 -2 60 -20 0 -17 7 -20 45 -20 38 0
45 -3 45 -20 0 -17 7 -20 40 -20 33 0 40 -3 40 -20 0 -18 7 -20 65 -20 63 0
65 -1 65 -25 0 -22 4 -25 40 -25 33 0 40 -3 40 -20 0 -18 7 -20 60 -20 53 0
60 -2 60 -20 0 -17 7 -20 45 -20 38 0 45 -3 45 -20 0 -17 7 -20 40 -20 33 0
40 -3 40 -20 0 -18 7 -20 65 -20 58 0 65 -2 65 -20 0 -17 7 -20 40 -20 36 0
40 -2 40 -25 0 -22 4 -25 40 -25 33 0 40 -3 40 -20 0 -18 7 -20 65 -20 58 0
65 -2 65 -20 0 -17 7 -20 40 -20 33 0 40 -3 40 -20 0 -17 7 -20 40 -20 33 0
40 -3 40 -20 0 -18 7 -20 65 -20 58 0 65 -2 65 -20 0 -17 7 -20 40 -20 36 0
40 -2 40 -25 0 -23 4 -25 45 -25 38 0 45 -3 45 -20 0 -18 7 -20 60 -20 53 0
60 -2 60 -20 0 -17 7 -20 40 -20 33 0 40 -3 40 -20 0 -17 7 -20 45 -20 38 0
45 -3 45 -20 0 -18 7 -20 60 -20 53 0 60 -2 60 -20 0 -17 7 -20 45 -20 41 0
45 -2 45 -25 0 -22 4 -25 40 -25 33 0 40 -3 40 -20 0 -18 7 -20 60 -20 53 0
60 -2 60 -20 0 -17 7 -20 45 -20 38 0 45 -3 45 -20 0 -17 7 -20 40 -20 33 0
40 -3 40 -20 0 -18 7 -20 65 -20 58 0 65 -2 65 -20 0 -17 7 -20 40 -20 36 0
40 -2 40 -25 0 -24 3 -25 60 -25 53 0 60 -2 60 -20 0 -17 7 -20 45 -20 38 0
45 -3 45 -20 0 -17 7 -20 40 -20 33 0 40 -3 40 -20 0 -18 7 -20 65 -20 58 0
65 -2 65 -20 0 -17 7 -20 40 -20 33 0 40 -3 40 -20 0 -17 7 -20 40 -20 36 0
40 -2 40 -25 0 -24 2 -25 65 -25 58 0 65 -2 65 -20 0 -17 7 -20 40 -20 33 0
40 -3 40 -20 0 -18 7 -20 65 -20 58 0 65 -2 65 -20 0 -17 7 -20 40 -20 33 0
40 -3 40 -20 0 -17 7 -20 40 -20 33 0 40 -3 40 -20 0 -18 7 -20 65 -20 63 0
65 -1 65 -25 0 -22 4 -25 40 -25 33 0 40 -3 40 -20 0 -17 7 -20 40 -20 33 0
40 -3 40 -20 0 -18 7 -20 65 -20 58 0 65 -2 65 -20 0 -17 7 -20 40 -20 33 0
40 -3 40 -20 0 -18 7 -20 65 -20 58 0 65 -2 65 -20 0 -17 7 -20 40 -20 36 0
40 -2 40 -25 0 -22 4 -25 40 -25 33 0 40 -3 40 -20 0 -18 7 -20 65 -20 58 0
65 -2 65 -20 0 -17 7 -20 40 -20 33 0 40 -3 40 -20 0 -17 7 -20 45 -20 38 0
45 -3 45 -20 0 -18 7 -20 60 -20 53 0 60 -2 60 -20 0 -17 7 -20 40 -20 36 0
40 -2 40 -25 0 -24 2 -25 65 -25 58 0 65 -2 65 -20 0 -17 7 -20 40 -20 33 0
40 -3 40 -20 0 -18 7 -20 65 -20 58 0 65 -2 65 -20 0 -17 7 -20 40 -20 33 0
40 -3 40 -20 0 -17 7 -20 40 -20 33 0 40 -3 40 -20 0 -17 7 -20 45 -20 41 0
45 -2 45 -25 0 -24 3 -25 60 -25 53 0 60 -2 60 -20 0 -17 7 -20 45 -20 38 0
45 -3 45 -20 0 -18 7 -20 60 -20 53 0 60 -2 60 -20 0 -17 7 -20 40 -20 33 0
40 -3 40 -20 0 -17 7 -20 45 -20 38 0 45 -3 45 -20 0 -18 7 -20 60 -20 57 0
60 -1 60 -25 0 -23 4 -25 45 -25 38 0 45 -3 45 -20 0 -17 7 -20 40 -20 33 0
40 -3 40 -20 0 -18 7 -20 60 -20 53 0 60 -2 60 -20 0 -17 7 -20 45 -20 38 0
45 -3 45 -20 0 -17 7 -20 40 -20 33 0 40 -3 40 -20 0 -18 7 -20 65 -20 63 0
65 -1 65 -25 0 -22 4 -25 40 -25 33 0 40 -3 40 -20 0 -17 7 -20 40 -20 33 0
40 -3 40 -20 0 -18 7 -20 65 -20 58 0 65 -2 65 -20 0 -17 7 -20 40 -20 33 0
40 -3 40 -20 0 -17 7 -20 40 -20 33 0 40 -3 40 -20 0 -18 7 -20 65 -20 63 0
65 -1 65 -25 0 -22 4 -25 40 -25 33 0 40 -3 40 -20 0 -17 7 -20 45 -20 38 0
45 -3 45 -20 0 -18 7 -20 60 -20 53 0 60 -2 60 -20 0 -17 7 -20 40 -20 33 0
40 -3 40 -20 0 -18 7 -20 65 -20 58 0 65 -2 65 -20 0 -17 7 -20 40 -20 36 0
40 -2 40 -25 0 -23 4 -25 45 -25 38 0 45 -3 45 -20 0 -18 7 -20 60 -20 53 0
60 -2 60 -20 0 -17 7 -20 40 -20 33 0 40 -3 40 -20 0 -18 7 -20 65 -20 58 0
65 -2 65 -20 0 -17 7 -20 40 -20 33 0 40 -3 40 -20 0 -17 7 -20 45 -20 41 0
45 -2 45 -25 0 -24 3 -25 60 -25 53 0 60 -2 60 -20 0 -17 7 -20 40 -20 33 0
40 -3 40 -20 0 -17 7 -20 45 -20 38 0 45 -3 45 -20 0 -18 7 -20 60 -20 53 0
60 -2 60 -20 0 -17 7 -20 45 -20 38 0 45 -3 45 -20 0 -18 7 -20 60 -20 57 0
60 -1 60 -25 0 -22 4 -25 40 -25 33 0 40 -3 40 -20 0 -17 7 -20 45 -20 38 0
45 -3 45 -20 0 -18 7 -20 60 -20 53 0 60 -2 60 -20 0 -17 7 -20 45 -20 38 0
45 -3 45 -20 0 -17 7 -20 40 -20 33 0 40 -3 40 -20 0 -18 7 -20 60 -20 57 0
60 -1 60 -25 0 -23 4 -25 45 -25 38 0 45 -3 45 -20 0 -18 7 -20 60 -20 53 0
60 -2 60 -20 0 -17 7 -20 45 -20 38 0 45 -3 45 -20 0 -17 7 -20 40 -20 33 0
40 -3 40 -20 0 -18 7 -20 60 -20 53 0 60 -2 60 -20 0 -17 7 -20 45 -20 41 0
45 -2 45 -25 0 -22 4 -25 40 -25 33 0 40 -3 40 -20 0 -18 7 -20 65 -20 58 0
65 -2 65 -20 0 -17 7 -20 40 -20 33 0 40 -3 40 -20 0 -18 7 -20 60 -20 53 0
60 -2 60 -20 0 -15 7 -20 25 -20 18 0 25 -5 25 -20 0 -18 7 -20 60 -20 57 0
60 -1 60 -25 0 -22 4 -25 40 -25 33 0 40 -3 40 -20 0 -18 7 -20 65 -20 58 0
65 -2 65 -20 0 -17 7 -20 40 -20 33 0 40 -3 40 -20 0 -18 7 -20 65 -20 58 0
65 -2 65 -20 0 -17 7 -20 40 -20 33 0 40 -3 40 -20 0 -17 7 -20 40 -20 36 0
40 -2 40 -25 0 -23 4 -25 45 -25 38 0 45 -3 45 -20 0 -18 7 -20 60 -20 53 0
60 -2 60 -20 0 -17 7 -20 45 -20 38 0 45 -3 45 -20 0 -18 7 -20 60 -20 53 0
60 -2 60 -20 0 -17 7 -20 40 -20 33 0 40 -3 40 -20 0 -17 7 -20 45 -20 41 0
45 -2 45 -25 0 -24 3 -25 60 -25 53 0 60 -2 60 -20 0 -17 7 -20 45 -20 38 0
45 -3 45 -20 0 -17 7 -20 40 -20 33 0 40 -3 40 -20 0 -18 7 -20 60 -20 53 0
60 -2 60 -20 0 -17 7 -20 45 -20 38 0 45 -3 45 -20 0 -18 7 -20 60 -20 57 0
60 -1 60 -25 0 -23 4 -25 45 -25 38 0 45 -3 45 -20 0 -17 7 -20 40 -20 33 0
40 -3 40 -20 0 -18 7 -20 60 -20 53 0 60 -2 60 -20 0 -17 7 -20 45 -20 38 0
45 -3 45 -20 0 -17 7 -20 40 -20 33 0 40 -3 40 -20 0 -18 7 -20 65 -20 63 0
65 -1 65 -25 0 -22 4 -25 40 -25 33 0 40 -3 40 -20 0 -18 7 -20 60 -20 53 0
60 -2 60 -20 0 -17 7 -20 45 -20 38 0 45 -3 45 -20 0 -17 7 -20 40 -20 33 0
40 -3 40 -20 0 -18 7 -20 65 -20 58 0 65 -2 65 -20 0 -17 7 -20 40 -20 36 0
40 -2 40 -25 0 -22 4 -25 40 -25 33 0 40 -3 40 -20 0 -18 7 -20 65 -20 58 0
65 -2 65 -20 0 -17 7 -20 40 -20 33 0 40 -3 40 -20 0 -18 7 -20 65 -20 58 0
65 -2 65 -20 0 -17 7 -20 40 -20 33 0 40 -3 40 -20 0 -17 7 -20 40 -20 36 0
40 -2 40 -25 0 -24 2 -25 65 -25 58 0 65 -2 65 -20 0 -17 7 -20 40 -20 33 0
40 -3 40 -20 0 -18 7 -20 65 -20 58 0 65 -2 65 -20 0 -17 7 -20 40 -20 33 0
40 -3 40 -20 0 -17 7 -20 40 -20 33 0 40 -3 40 -20 0 -18 7 -20 65 -20 63 0
65 -1 65 -25 0 -22 4 -25 40 -25 33 0 40 -3 40 -20 0 -17 7 -20 40 -20 33 0
40 -3 40 -20 0 -18 7 -20 65 -20 58 0 65 -2 65 -20 0 -17 7 -20 40 -20 33 0
40 -3 40 -20 0 -17 7 -20 45 -20 38 0 45 -3 45 -20 0 -17 7 -20 40 -20 36 0
40 -2 40 -25 0 -24 3 -25 60 -25 53 0 60 -2 60 -20 0 -17 7 -20 45 -20 38 0
45 -3 45 -20 0 -18 7 -20 60 -20 53 0 60 -2 60 -20 0 -17 7 -20 45 -20 38 0
45 -3 45 -20 0 -17 7 -20 40 -20 33 0 40 -3 40 -20 0 -17 7 -20 40 -20 36 0
40 -2 40 -25 0 -24 2 -25 65 -25 58 0 65 -2 65 -20 0 -17 7 -20 40 -20 33 0
40 -3 40 -20 0 -18 7 -20 65 -20 58 0 65 -2 65 -20 0 -17 7 -20 40 -20 33 0
40 -3 40 -20 0 -17 7 -20 40 -20 33 0 40 -3 40 -20 0 -18 7 -20 65 -20 63 0
65 -1 65 -25 0 -22 4 -25 40 -25 33 0 40 -3 40 -20 0 -17 7 -20 40 -20 33 0
40 -3 40 -20 0 -18 7 -20 65 -20 58 0 65 -2 65 -20 0 -17 7 -20 40 -20 33 0
40 -3 40 -20 0 -18 7 -20 65 -20 58 0 65 -2 65 -20 0 -17 7 -20 40 -20 36 0
40 -2 40 -25 0 -22 4 -25 40 -25 33 0 40 -3 40 -20 0 -18 7 -20 65 -20 58 0
65 -2 65 -20 0 -17 7 -20 40 -20 33 0 40 -3 40 -20 0 -18 7 -20 65 -20 58 0
65 -2 65 -20 0 -17 7 -20 40 -20 33 0 40 -3 40 -20 0 -17 7 -20 40 -20 36 0
40 -2 40 -25 0 -24 2 -25 65 -25 58 0 65 -2 65 -20 0 -17 7 -20 40 -20 33 0
40 -3 40 -20 0 -18 7 -20 65 -20 58 0 65 -2 65 -20 0 -17 7 -20 40 -20 33 0
40 -3 40 -20 0 -17 7 -20 40 -20 33 0 40 -3 40 -20 0 -18 7 -20 65 -20 63 0
65 -1 65 -25 0 -22 4 -25 40 -25 33 0 40 -3 40 -20 0 -17 7 -20 45 -20 38 0
45 -3 45 -20 0 -18 7 -20 60 -20 53 0 60 -2 60 -20 0 -17 7 -20 40 -20 33 0
40 -3 40 -20 0 -18 7 -20 65 -20 58 0 65 -2 65 -20 0 -17 7 -20 40 -20 36 0
40 -2 40 -25 0 -23 4 -25 45 -25 38 0 45 -3 45 -20 0 -18 7 -20 60 -20 53 0
60 -2 60 -20 0 -17 7 -20 40 -20 33 0 40 -3 40 -20 0 -17 7 -20 45 -20 38 0
45 -3 45 -20 0 -18 7 -20 60 -20 53 0 60 -2 60 -20 0 -17 7 -20 45 -20 41 0
45 -2 45 -25 0 -24 3 -25 60 -25 53 0 60 -2 60 -20 0 -17 7 -20 40 -20 33 0
40 -3 40 -20 0 -17 7 -20 45 -20 38 0 45 -3 45 -20 0 -18 7 -20 60 -20 53 0
60 -2 60 -20 0 -17 7 -20 45 -20 38 0 45 -3 45 -20 0 -17 7 -20 40 -20 36 0
40 -2 40 -25 0 -24 3 -25 60 -25 53 0 60 -2 60 -20 0 -17 7 -20 45 -20 38 0
45 -3 45 -20 0 -17 7 -20 40 -20 33 0 40 -3 40 -20 0 -18 7 -20 65 -20 58 0
65 -2 65 -20 0 -17 7 -20 40 -20 33 0 40 -3 40 -20 0 -17 7 -20 40 -20 36 0
40 -2 40 -25 0 -24 2 -25 65 -25 58 0 65 -2 65 -20 0 -17 7 -20 40 -20 33 0
40 -3 40 -20 0 -17 7 -20 40 -20 33 0 40 -3 40 -20 0 -18 7 -20 65 -20 58 0
65 -2 65 -20 0 -17 7 -20 40 -20 33 0 40 -3 40 -20 0 -17 7 -20 45 -20 41 0
45 -2 45 -25 0 -24 3 -25 60 -25 53 0 60 -2 60 -20 0 -17 7 -20 40 -20 33 0
40 -3 40 -20 0 -17 7 -20 45 -20 38 0 45 -3 45 -20 0 -18 7 -20 60 -20 53 0
60 -2 60 -20 0 -17 7 -20 45 -20 38 0 45 -3 45 -20 0 -18 7 -20 60 -20 57 0
60 -1 60 -25 0 -22 4 -25 40 -25 33 0 40 -3 40 -20 0 -17 7 -20 45 -20 38 0
45 -3 45 -20 0 -18 7 -20 60 -20 53 0 60 -2 60 -20 0 -17 7 -20 45 -20 38 0
45 -3 45 -20 0 -17 7 -20 40 -20 33 0 40 -3 40 -20 0 -18 7 -20 60 -20 57 0
60 -1 60 -25 0 -23 4 -25 45 -25 38 0 45 -3 45 -20 0 -18 7 -20 60 -20 53 0
60 -2 60 -20 0 -17 7 -20 45 -20 38 0 45 -3 45 -20 0 -17 7 -20 40 -20 33 0
40 -3 40 -20 0 -18 7 -20 60 -20 53 0 60 -2 60 -20 0 -17 7 -20 45 -20 41 0
45 -2 45 -25 0 -24 3 -25 60 -25 53 0 60 -2 60 -20 0 -17 7 -20 45 -20 38 0
45 -3 45 -20 0 -17 7 -20 40 -20 33 0 40 -3 40 -20 0 -18 7 -20 60 -20 53 0
60 -2 60 -20 0 -17 7 -20 45 -20 38 0 45 -3 45 -20 0 -18 7 -20 60 -20 57 0
60 -1 60 -25 0 -23 4 -25 45 -25 38 0 45 -3 45 -20 0 -17 7 -20 40 -20 33 0
40 -3 40 -20 0 -17 7 -20 40 -20 33 0 40 -3 40 -20 0 -18 7 -20 65 -20 58 0
65 -2 65 -20 0 -17 7 -20 40 -20 33 0 40 -3 40 -20 0 -18 7 -20 65 -20 63 0
65 -1 65 -25 0 -22 4 -25 40 -25 33 0 40 -3 40 -20 0 -18 7 -20 60 -20 53 0
60 -2 60 -20 0 -17 7 -20 45 -20 38 0 45 -3 45 -20 0 -17 7 -20 40 -20 33 0
40 -3 40 -20 0 -17 7 -20 40 -20 33 0 40 -3 40 -20 0 -18 7 -20 65 -20 63 0
65 -1 65 -25 0 -22 4 -25 40 -25 33 0 40 -3 40 -20 0 -18 7 -20 65 -20 58 0
65 -2 65 -20 0 -13 7 -20 20 -20 13 0 20 -7 20 -20 0 -18 7 -20 60 -20 53 0
60 -2 60 -20 0 -17 7 -20 45 -20 38 0 45 -3 45 -20 0 -18 7 -20 60 -20 57 0
60 -1 60 -25 0 -23 4 -25 45 -25 38 0 45 -3 45 -20 0 -17 7 -20 40 -20 33 0
40 -3 40 -20 0 -18 7 -20 60 -20 53 0 60 -2 60 -20 0 -17 7 -20 45 -20 38 0
45 -3 45 -20 0 -17 7 -20 40 -20 33 0 40 -3 40 -20 0 -18 7 -20 65 -20 63 0
65 -1 65 -25 0 -22 4 -25 40 -25 33 0 40 -3 40 -20 0 -18 7 -20 60 -20 53 0
60 -2 60 -20 0 -17 7 -20 45 -20 38 0 45 -3 45 -20 0 -17 7 -20 40 -20 33 0
40 -3 40 -20 0 -18 7 -20 65 -20 58 0 65 -2 65 -20 0 -17 7 -20 40 -20 36 0
40 -2 40 -25 0 -24 3 -25 60 -25 53 0 60 -2 60 -20 0 -17 7 -20 45 -20 38 0
45 -3 45 -20 0 -17 7 -20 40 -20 33 0 40 -3 40 -20 0 -18 7 -20 65 -20 58 0
65 -2 65 -20 0 -17 7 -20 40 -20 33 0 40 -3 40 -20 0 -18 7 -20 60 -20 57 0
60 -1 60 -25 0 -23 4 -25 45 -25 38 0 45 -3 45 -20 0 -17 7 -20 40 -20 33 0
40 -3 40 -20 0 -18 7 -20 65 -20 58 0 65 -2 65 -20 0 -17 7 -20 40 -20 33 0
40 -3 40 -20 0 -17 7 -20 40 -20 33 0 40 -3 40 -20 0 -18 7 -20 65 -20 63 0
65 -1 65 -25 0 -22 4 -25 40 -25 33 0 40 -3 40 -20 0 -18 7 -20 65 -20 58 0
65 -2 65 -20 0 -17 7 -20 40 -20 33 0 40 -3 40 -20 0 -17 7 -20 40 -20 33 0
40 -3 40 -20 0 -18 7 -20 65 -20 58 0 65 -2 65 -20 0 -17 7 -20 40 -20 36 0
40 -2 40 -25 0 -22 4 -25 40 -25 33 0 40 -3 40 -20 0 -18 7 -20 65 -20 58 0
65 -2 65 -20 0 -17 7 -20 40 -20 33 0 40 -3 40 -20 0 -17 7 -20 45 -20 38 0
45 -3 45 -20 0 -18 7 -20 60 -20 53 0 60 -2 60 -20 0 -17 7 -20 40 -20 36 0
40 -2 40 -25 0 -24 2 -25 65 -25 58 0 65 -2 65 -20 0 -17 7 -20 40 -20 33 0
40 -3 40 -20 0 -17 7 -20 45 -20 38 0 45 -3 45 -20 0 -18 7 -20 60 -20 53 0
60 -2 60 -20 0 -17 7 -20 40 -20 33 0 40 -3 40 -20 0 -17 7 -20 45 -20 41 0
45 -2 45 -25 0 -24 3 -25 60 -25 53 0 60 -2 60 -20 0 -17 7 -20 45 -20 38 0
45 -3 45 -20 0 -17 7 -20 40 -20 33 0 40 -3 40 -20 0 -17 7 -20 40 -20 33 0
40 -3 40 -20 0 -18 7 -20 65 -20 58 0 65 -2 65 -20 0 -17 7 -20 40 -20 36 0
40 -2 40 -25 0 -24 2 -25 65 -25 58 0 65 -2 65 -20 0 -17 7 -20 40 -20 33 0
40 -3 40 -20 0 -17 7 -20 40 -20 33 0 40 -3 40 -20 0 -18 7 -20 65 -20 58 0
65 -2 65 -20 0 -17 7 -20 40 -20 33 0 40 -3 40 -20 0 -17 7 -20 40 -20 36 0
40 -2 40 -25 0 -24 2 -25 65 -25 58 0 65 -2 65 -20 0 -17 7 -20 40 -20 33 0
40 -3 40 -20 0 -18 7 -20 65 -20 58 0 65 -2 65 -20 0 -17 7 -20 40 -20 33 0
40 -3 40 -20 0 -17 7 -20 40 -20 33 0 40 -3 40 -20 0 -18 7 -20 65 -20 63 0
65 -1 65 -25 0 -22 4 -25 40 -25 33 0 40 -3 40 -20 0 -17 7 -20 45 -20 38 0
45 -3 45 -20 0 -18 7 -20 60 -20 53 0 60 -2 60 -20 0 -17 7 -20 40 -20 33 0
40 -3 40 -20 0 -18 7 -20 65 -20 58 0 65 -2 65 -20 0 -17 7 -20 40 -20 36 0
40 -2 40 -25 0 -23 4 -25 45 -25 38 0 45 -3 45 -20 0 -18 7 -20 60 -20 53 0
60 -2 60 -20 0 -17 7 -20 40 -20 33 0 40 -3 40 -20 0 -17 7 -20 45 -20 38 0
45 -3 45 -20 0 -18 7 -20 60 -20 53 0 60 -2 60 -20 0 -17 7 -20 45 -20 41 0
45 -2 45 -25 0 -24 3 -25 60 -25 53 0 60 -2 60 -20 0 -18 7 -20 65 -20 58 0
65 2 65 20 0 18 7 20 60 20 57 0 60 1 60 25 0 23 4 25 40 25 33 0 40 3 40 20
0 17 7 20 45 20 38 0 45 3 45 20 0 18 7 20 60 20 53 0 60 2 60 20 0 17 7 20
45 20 38 0 45 3 45 20 0 17 7 20 40 20 33 0 40 3 40 20 0 18 7 20 60 20 57 0
60 1 60 25 0 23 4 25 45 25 38 0 45 3 45 20 0 18 7 20 60 20 53 0 60 2 60 20
0 17 7 20 45 20 38 0 45 3 45 20 0 17 7 20 40 20 33 0 40 3 40 20 0 18 7 20
60 20 53 0 60 2 60 20 0 17 7 20 45 20 41 0 45 2 45 25 0 23 4 25 40 25 33 0
40 3 40 20 0 18 7 20 65 20 58 0 65 2 65 20 0 17 7 20 40 20 33 0 40 3 40 20
0 17 7 20 40 20 33 0 40 3 40 20 0 18 7 20 65 20 58 0 65 2 65 20 0 17 7 20
40 20 36 0 40 3 40 25 0 24 2 25 65 25 58 0 65 2 65 20 0 17 7 20 40 20 33 0
40 3 40 20 0 17 7 20 40 20 33 0 40 3 40 20 0 17 7 20 45 20 38 0 45 3 45 20
0 18 7 20 60 20 53 0 60 2 60 20 0 17 7 20 40 20 36 0 40 3 40 25 0 24 2 25
65 25 58 0 65 2 65 20 0 17 7 20 40 20 33 0 40 3 40 20 0 17 7 20 45 20 38 0
45 3 45 20 0 18 7 20 60 20 53 0 60 2 60 20 0 17 7 20 40 20 33 0 40 3 40 20
0 17 7 20 45 20 41 0 45 2 45 25 0 24 3 25 60 25 53 0 60 2 60 20 0 17 7 20
45 20 38 0 45 3 45 20 0 17 7 20 40 20 33 0 40 3 40 20 0 18 7 20 60 20 53 0
60 2 60 20 0 17 7 20 45 20 38 0 45 3 45 20 0 18 7 20 60 20 57 0 60 1 60 25
0 23 4 25 45 25 38 0 45 3 45 20 0 17 7 20 40 20 33 0 40 3 40 20 0 18 7 20
60 20 53 0 60 2 60 20 0 17 7 20 45 20 38 0 45 3 45 20 0 17 7 20 40 20 33 0
40 3 40 20 0 18 7 20 65 20 63 0 65 1 65 25 0 23 4 25 40 25 l40 0 0 475 c0
468 0 475 20 475 15 0 20 7 20 25 0 18 5 25 20 25 13 0 20 7 20 20 0 17 7 20
45 20 38 0 45 3 45 20 0 18 7 20 60 20 53 0 60 2 60 20 0 17 7 20 40 20 33 0
40 3 40 20 0 17 7 20 45 20 38 0 45 3 45 20 0 18 7 20 60 20 57 0 60 1 60 25
0 23 4 25 45 25 38 0 45 3 45 20 0 17 7 20 40 20 33 0 40 3 40 20 0 18 7 20
60 20 53 0 60 2 60 20 0 17 7 20 45 20 38 0 45 3 45 20 0 17 7 20 40 20 33 0
40 3 40 20 0 18 7 20 65 20 63 0 65 1 65 25 0 23 4 25 40 25 33 0 40 3 40 20
0 18 7 20 60 20 53 0 60 2 60 20 0 17 7 20 45 20 38 0 45 3 45 20 0 17 7 20
40 20 33 0 40 3 40 20 0 18 7 20 65 20 58 0 65 2 65 20 0 17 7 20 40 20 36 0
40 3 40 25 0 23 4 25 40 25 33 0 40 3 40 20 0 18 7 20 65 20 58 0 65 2 65 20
0 17 7 20 40 20 33 0 40 3 40 20 0 18 7 20 65 20 58 0 65 2 65 20 0 17 7 20
40 20 l40 0 0 15645 c0 15638 0 15645 -20 15645 -15 0 -20 7 -20 25 0 23 -4
25 -45 25 -38 0 -45 3 -45 20 0 18 -7 20 -60 20 -53 0 -60 2 -60 20 0 17 -7
20 -40 20 -33 0 -40 3 -40 20 0 17 -7 20 -45 20 -38 0 -45 3 -45 20 0 18 -7
20 -60 20 -53 0 -60 2 -60 20 0 17 -7 20 -45 20 -41 0 -45 2 -45 25 0 23 -4
25 -40 25 -33 0 -40 3 -40 20 0 18 -7 20 -60 20 -53 0 -60 2 -60 20 0 17 -7
20 -45 20 -38 0 -45 3 -45 20 0 18 -7 20 -60 20 -53 0 -60 2 -60 20 0 17 -7
20 -45 20 -38 0 -45 3 -45 20 0 17 -7 20 -40 20 -36 0 -40 3 -40 25 0 24 -3
25 -60 25 -53 0 -60 2 -60 20 0 17 -7 20 -45 20 -38 0 -45 3 -45 20 0 17 -7
20 -40 20 -33 0 -40 3 -40 20 0 18 -7 20 -65 20 -58 0 -65 2 -65 20 0 17 -7
20 -40 20 -33 0 -40 3 -40 20 0 17 -7 20 -40 20 -36 0 -40 3 -40 25 0 24 -2
25 -65 25 -58 0 -65 2 -65 20 0 17 -7 20 -40 20 -33 0 -40 3 -40 20 0 17 -7
20 -40 20 -33 0 -40 3 -40 20 0 17 -7 20 -45 20 -38 0 -45 3 -45 20 0 17 -7
20 -40 20 l-40 0 0 1440 0 1440 -65 0 c-58 0 -65 2 -65 20 0 17 -7 20 -40 20
-33 0 -40 3 -40 20 0 17 -7 20 -40 20 -33 0 -40 3 -40 20 0 18 -7 20 -65 20
-58 0 -65 2 -65 20 0 17 -7 20 -40 20 -36 0 -40 3 -40 25 0 24 -2 25 -65 25
-58 0 -65 2 -65 20 0 17 -7 20 -40 20 -33 0 -40 3 -40 20 0 17 -7 20 -40 20
-33 0 -40 3 -40 20 0 18 -7 20 -65 20 -58 0 -65 2 -65 20 0 17 -7 20 -40 20
-33 0 -40 3 -40 20 0 17 -7 20 -40 20 -36 0 -40 3 -40 25 0 24 -2 25 -65 25
-58 0 -65 2 -65 20 0 17 -7 20 -40 20 -33 0 -40 3 -40 20 0 18 -7 20 -65 20
-58 0 -65 2 -65 20 0 17 -7 20 -40 20 -33 0 -40 3 -40 20 0 17 -7 20 -40 20
-33 0 -40 3 -40 20 0 18 -7 20 -65 20 -63 0 -65 1 -65 25 0 23 -4 25 -40 25
-33 0 -40 3 -40 20 0 17 -7 20 -45 20 -38 0 -45 3 -45 20 0 18 -7 20 -60 20
-53 0 -60 2 -60 20 0 17 -7 20 -40 20 -33 0 -40 3 -40 20 0 18 -7 20 -65 20
-58 0 -65 2 -65 20 0 17 -7 20 -40 20 -36 0 -40 3 -40 25 0 23 -4 25 -45 25
-38 0 -45 3 -45 20 0 18 -7 20 -60 20 -53 0 -60 2 -60 20 0 17 -7 20 -40 20
-33 0 -40 3 -40 20 0 17 -7 20 -45 20 -38 0 -45 3 -45 20 0 18 -7 20 -60 20
-53 0 -60 2 -60 20 0 17 -7 20 -45 20 -41 0 -45 2 -45 25 0 24 -3 25 -60 25
-53 0 -60 2 -60 20 0 17 -7 20 -40 20 -33 0 -40 3 -40 20 0 17 -7 20 -45 20
-38 0 -45 3 -45 20 0 17 -7 20 -40 20 -33 0 -40 3 -40 20 0 18 -7 20 -65 20
-58 0 -65 2 -65 20 0 17 -7 20 -40 20 -36 0 -40 3 -40 25 0 24 -3 25 -60 25
-53 0 -60 2 -60 20 0 17 -7 20 -45 20 -38 0 -45 3 -45 20 0 17 -7 20 -40 20
-33 0 -40 3 -40 20 0 18 -7 20 -65 20 -58 0 -65 2 -65 20 0 17 -7 20 -40 20
-33 0 -40 3 -40 20 0 17 -7 20 -40 20 -36 0 -40 3 -40 25 0 24 -2 25 -65 25
-58 0 -65 2 -65 20 0 17 -7 20 -40 20 -33 0 -40 3 -40 20 0 17 -7 20 -40 20
-33 0 -40 3 -40 20 0 18 -7 20 -65 20 -58 0 -65 2 -65 20 0 17 -7 20 -40 20
-33 0 -40 3 -40 20 0 17 -7 20 -45 20 -41 0 -45 2 -45 25 0 24 -3 25 -60 25
-53 0 -60 2 -60 20 0 17 -7 20 -40 20 -33 0 -40 3 -40 20 0 18 -7 20 -65 20
-58 0 -65 2 -65 20 0 17 -7 20 -40 20 -33 0 -40 3 -40 20 0 17 -7 20 -45 20
-38 0 -45 3 -45 20 0 18 -7 20 -60 20 -57 0 -60 1 -60 25 0 23 -4 25 -40 25
-33 0 -40 3 -40 20 0 17 -7 20 -45 20 -38 0 -45 3 -45 20 0 18 -7 20 -60 20
-53 0 -60 2 -60 20 0 17 -7 20 -45 20 -38 0 -45 3 -45 20 0 18 -7 20 -60 20
-53 0 -60 2 -60 20 0 17 -7 20 -40 20 -36 0 -40 3 -40 25 0 23 -4 25 -45 25
-38 0 -45 3 -45 20 0 18 -7 20 -60 20 -53 0 -60 2 -60 20 0 17 -7 20 -45 20
-38 0 -45 3 -45 20 0 17 -7 20 -40 20 -33 0 -40 3 -40 20 0 18 -7 20 -60 20
-53 0 -60 2 -60 20 0 17 -7 20 -45 20 -41 0 -45 2 -45 25 0 24 -3 25 -60 25
-53 0 -60 2 -60 20 0 17 -7 20 -45 20 -38 0 -45 3 -45 20 0 17 -7 20 -40 20
-33 0 -40 3 -40 20 0 18 -7 20 -60 20 -53 0 -60 2 -60 20 0 17 -7 20 -45 20
-38 0 -45 3 -45 20 0 17 -7 20 -40 20 -36 0 -40 3 -40 25 0 24 -2 25 -65 25
-58 0 -65 2 -65 20 0 17 -7 20 -40 20 -33 0 -40 3 -40 20 0 18 -7 20 -60 20
-53 0 -60 2 -60 20 0 17 -7 20 -45 20 -38 0 -45 3 -45 20 0 17 -7 20 -40 20
-33 0 -40 3 -40 20 0 18 -7 20 -65 20 -63 0 -65 1 -65 25 0 23 -4 25 -40 25
-33 0 -40 3 -40 20 0 17 -7 20 -40 20 -33 0 -40 3 -40 20 0 18 -7 20 -65 20
-58 0 -65 2 -65 20 0 17 -7 20 -40 20 -33 0 -40 3 -40 20 0 17 -7 20 -40 20
-33 0 -40 3 -40 20 0 18 -7 20 -65 20 -63 0 -65 1 -65 25 0 23 -4 25 -40 25
-33 0 -40 3 -40 20 0 18 -7 20 -65 20 -58 0 -65 2 -65 20 0 17 -7 20 -40 20
-33 0 -40 3 -40 20 0 17 -7 20 -40 20 -33 0 -40 3 -40 20 0 18 -7 20 -65 20
-58 0 -65 2 -65 20 0 17 -7 20 -40 20 -36 0 -40 3 -40 25 0 23 -4 25 -45 25
-38 0 -45 3 -45 20 0 18 -7 20 -60 20 -53 0 -60 2 -60 20 0 17 -7 20 -40 20
-33 0 -40 3 -40 20 0 17 -7 20 -45 20 -38 0 -45 3 -45 20 0 18 -7 20 -60 20
-53 0 -60 2 -60 20 0 17 -7 20 -45 20 -41 0 -45 2 -45 25 0 23 -4 25 -40 25
-33 0 -40 3 -40 20 0 18 -7 20 -60 20 -53 0 -60 2 -60 20 0 17 -7 20 -45 20
-38 0 -45 3 -45 20 0 17 -7 20 -40 20 -33 0 -40 3 -40 20 0 18 -7 20 -65 20
-58 0 -65 2 -65 20 0 17 -7 20 -40 20 -36 0 -40 3 -40 25 0 23 -4 25 -40 25
-33 0 -40 3 -40 20 0 18 -7 20 -65 20 -58 0 -65 2 -65 20 0 17 -7 20 -40 20
-33 0 -40 3 -40 20 0 18 -7 20 -65 20 -58 0 -65 2 -65 20 0 17 -7 20 -40 20
-33 0 -40 3 -40 20 0 17 -7 20 -40 20 -36 0 -40 3 -40 25 0 24 -2 25 -65 25
-58 0 -65 2 -65 20 0 17 -7 20 -40 20 -33 0 -40 3 -40 20 0 17 -7 20 -40 20
-33 0 -40 3 -40 20 0 18 -7 20 -65 20 -58 0 -65 2 -65 20 0 17 -7 20 -40 20
-33 0 -40 3 -40 20 0 18 -7 20 -65 20 -63 0 -65 1 -65 25 0 23 -4 25 -40 25
-33 0 -40 3 -40 20 0 17 -7 20 -40 20 -33 0 -40 3 -40 20 0 18 -7 20 -65 20
-58 0 -65 2 -65 20 0 17 -7 20 -40 20 -33 0 -40 3 -40 20 0 17 -7 20 -45 20
-38 0 -45 3 -45 20 0 18 -7 20 -60 20 -57 0 -60 1 -60 25 0 23 -4 25 -40 25
-33 0 -40 3 -40 20 0 18 -7 20 -65 20 -58 0 -65 2 -65 20 0 17 -7 20 -40 20
-33 0 -40 3 -40 20 0 17 -7 20 -45 20 -38 0 -45 3 -45 20 0 18 -7 20 -60 20
-53 0 -60 2 -60 20 0 17 -7 20 -40 20 -36 0 -40 3 -40 25 0 23 -4 25 -45 25
-38 0 -45 3 -45 20 0 18 -7 20 -60 20 -53 0 -60 2 -60 20 0 17 -7 20 -45 20
-38 0 -45 3 -45 20 0 18 -7 20 -60 20 -53 0 -60 2 -60 20 0 17 -7 20 -40 20
-33 0 -40 3 -40 20 0 17 -7 20 -45 20 -41 0 -45 2 -45 25 0 24 -3 25 -60 25
-53 0 -60 2 -60 20 0 17 -7 20 -45 20 -38 0 -45 3 -45 20 0 17 -7 20 -40 20
-33 0 -40 3 -40 20 0 18 -7 20 -60 20 -53 0 -60 2 -60 20 0 17 -7 20 -45 20
-38 0 -45 3 -45 20 0 17 -7 20 -40 20 -36 0 -40 3 -40 25 0 24 -2 25 -65 25
-58 0 -65 2 -65 20 0 17 -7 20 -40 20 -33 0 -40 3 -40 20 0 18 -7 20 -60 20
-53 0 -60 2 -60 20 0 17 -7 20 -45 20 -38 0 -45 3 -45 20 0 17 -7 20 -40 20
-33 0 -40 3 -40 20 0 18 -7 20 -65 20 -63 0 -65 1 -65 25 0 23 -4 25 -40 25
-33 0 -40 3 -40 20 0 17 -7 20 -40 20 -33 0 -40 3 -40 20 0 18 -7 20 -65 20
-58 0 -65 2 -65 20 0 17 -7 20 -40 20 -33 0 -40 3 -40 20 0 17 -7 20 -40 20
-33 0 -40 3 -40 20 0 18 -7 20 -65 20 -63 0 -65 1 -65 25 0 23 -4 25 -40 25
-33 0 -40 3 -40 20 0 17 -7 20 -45 20 -38 0 -45 3 -45 20 0 18 -7 20 -60 20
-53 0 -60 2 -60 20 0 17 -7 20 -40 20 -33 0 -40 3 -40 20 0 18 -7 20 -65 20
-58 0 -65 2 -65 20 0 17 -7 20 -40 20 -36 0 -40 3 -40 25 0 23 -4 25 -45 25
-38 0 -45 3 -45 20 0 18 -7 20 -60 20 -53 0 -60 2 -60 20 0 17 -7 20 -40 20
-33 0 -40 3 -40 20 0 17 -7 20 -45 20 -38 0 -45 3 -45 20 0 18 -7 20 -60 20
-53 0 -60 2 -60 20 0 17 -7 20 -45 20 -41 0 -45 2 -45 25 0 24 -3 25 -60 25
-53 0 -60 2 -60 20 0 17 -7 20 -40 20 -33 0 -40 3 -40 20 0 17 -7 20 -45 20
-38 0 -45 3 -45 20 0 18 -7 20 -60 20 -53 0 -60 2 -60 20 0 17 -7 20 -45 20
-38 0 -45 3 -45 20 0 17 -7 20 -40 20 -36 0 -40 3 -40 25 0 24 -3 25 -60 25
-53 0 -60 2 -60 20 0 17 -7 20 -45 20 -38 0 -45 3 -45 20 0 18 -7 20 -60 20
-53 0 -60 2 -60 20 0 17 -7 20 -45 20 -38 0 -45 3 -45 20 0 17 -7 20 -40 20
-33 0 -40 3 -40 20 0 18 -7 20 -60 20 -57 0 -60 1 -60 25 0 23 -4 25 -45 25
-38 0 -45 3 -45 20 0 17 -7 20 -40 20 -33 0 -40 3 -40 20 0 18 -7 20 -65 20
-58 0 -65 2 -65 20 0 17 -7 20 -40 20 -33 0 -40 3 -40 20 0 18 -7 20 -60 20
-53 0 -60 2 -60 20 0 17 -7 20 -45 20 -41 0 -45 2 -45 25 0 23 -4 25 -40 25
-33 0 -40 3 -40 20 0 17 -7 20 -40 20 -33 0 -40 3 -40 20 0 18 -7 20 -65 20
-58 0 -65 2 -65 20 0 17 -7 20 -40 20 -33 0 -40 3 -40 20 0 18 -7 20 -65 20
-58 0 -65 2 -65 20 0 17 -7 20 -40 20 -36 0 -40 3 -40 25 0 23 -4 25 -40 25
-33 0 -40 3 -40 20 0 18 -7 20 -65 20 -58 0 -65 2 -65 20 0 17 -7 20 -40 20
-33 0 -40 3 -40 20 0 17 -7 20 -45 20 -38 0 -45 3 -45 20 0 18 -7 20 -60 20
-53 0 -60 2 -60 20 0 17 -7 20 -40 20 -36 0 -40 3 -40 25 0 23 -4 25 -45 25
-38 0 -45 3 -45 20 0 18 -7 20 -60 20 -53 0 -60 2 -60 20 0 17 -7 20 -45 20
-38 0 -45 3 -45 20 0 18 -7 20 -60 20 -53 0 -60 2 -60 20 0 17 -7 20 -40 20
-33 0 -40 3 -40 20 0 17 -7 20 -45 20 -41 0 -45 2 -45 25 0 24 -3 25 -60 25
-53 0 -60 2 -60 20 0 17 -7 20 -45 20 -38 0 -45 3 -45 20 0 17 -7 20 -40 20
-33 0 -40 3 -40 20 0 18 -7 20 -60 20 -53 0 -60 2 -60 20 0 17 -7 20 -45 20
-38 0 -45 3 -45 20 0 18 -7 20 -60 20 -57 0 -60 1 -60 25 0 23 -4 25 -45 25
-38 0 -45 3 -45 20 0 17 -7 20 -40 20 -33 0 -40 3 -40 20 0 18 -7 20 -60 20
-53 0 -60 2 -60 20 0 17 -7 20 -45 20 -38 0 -45 3 -45 20 0 17 -7 20 -40 20
-33 0 -40 3 -40 20 0 18 -7 20 -65 20 -63 0 -65 1 -65 25 0 23 -4 25 -40 25
-33 0 -40 3 -40 20 0 18 -7 20 -60 20 -53 0 -60 2 -60 20 0 17 -7 20 -45 20
-38 0 -45 3 -45 20 0 17 -7 20 -40 20 -33 0 -40 3 -40 20 0 18 -7 20 -65 20
-58 0 -65 2 -65 20 0 17 -7 20 -40 20 -36 0 -40 3 -40 25 0 23 -4 25 -40 25
-33 0 -40 3 -40 20 0 18 -7 20 -65 20 -58 0 -65 2 -65 20 0 17 -7 20 -40 20
-33 0 -40 3 -40 20 0 18 -7 20 -65 20 -58 0 -65 2 -65 20 0 17 -7 20 -40 20
-33 0 -40 3 -40 20 0 17 -7 20 -40 20 -36 0 -40 3 -40 25 0 24 -2 25 -65 25
-58 0 -65 2 -65 20 0 17 -7 20 -40 20 -33 0 -40 3 -40 20 0 17 -7 20 -40 20
-33 0 -40 3 -40 20 0 18 -7 20 -65 20 -58 0 -65 2 -65 20 0 17 -7 20 -40 20
-33 0 -40 3 -40 20 0 18 -7 20 -65 20 -63 0 -65 1 -65 25 0 23 -4 25 -40 25
-33 0 -40 3 -40 20 0 17 -7 20 -40 20 -33 0 -40 3 -40 20 0 17 -7 20 -45 20
-38 0 -45 3 -45 20 0 18 -7 20 -60 20 -53 0 -60 2 -60 20 0 17 -7 20 -45 20
-38 0 -45 3 -45 20 0 18 -7 20 -60 20 -57 0 -60 1 -60 25 0 23 -4 25 -40 25
-33 0 -40 3 -40 20 0 17 -7 20 -45 20 -38 0 -45 3 -45 20 0 18 -7 20 -60 20
-53 0 -60 2 -60 20 0 17 -7 20 -45 20 -38 0 -45 3 -45 20 0 17 -7 20 -40 20
-33 0 -40 3 -40 20 0 18 -7 20 -60 20 -57 0 -60 1 -60 25 0 23 -4 25 -45 25
-38 0 -45 3 -45 20 0 17 -7 20 -40 20 -33 0 -40 3 -40 20 0 18 -7 20 -65 20
-58 0 -65 2 -65 20 0 17 -7 20 -40 20 -33 0 -40 3 -40 20 0 17 -7 20 -40 20
-33 0 -40 3 -40 20 0 18 -7 20 -65 20 -63 0 -65 1 -65 25 0 23 -4 25 -40 25
-33 0 -40 3 -40 20 0 18 -7 20 -65 20 -58 0 -65 2 -65 20 0 17 -7 20 -40 20
-33 0 -40 3 -40 20 0 17 -7 20 -40 20 -33 0 -40 3 -40 20 0 18 -7 20 -65 20
-58 0 -65 2 -65 20 0 17 -7 20 -40 20 -36 0 -40 3 -40 25 0 23 -4 25 -40 25
-33 0 -40 3 -40 20 0 18 -7 20 -65 20 -58 0 -65 2 -65 20 0 17 -7 20 -40 20
-33 0 -40 3 -40 20 0 18 -7 20 -65 20 -58 0 -65 2 -65 20 0 17 -7 20 -40 20
-33 0 -40 3 -40 20 0 17 -7 20 -40 20 -36 0 -40 3 -40 25 0 23 -4 25 -45 25
-38 0 -45 3 -45 20 0 18 -7 20 -60 20 -53 0 -60 2 -60 20 0 18 -7 20 -65 20
-58 0 -65 2 -65 20 0 17 -7 20 -40 20 -33 0 -40 3 -40 20 0 17 -7 20 -40 20
-33 0 -40 3 -40 20 0 18 -7 20 -65 20 -63 0 -65 1 -65 25 0 23 -4 25 -40 25
-33 0 -40 3 -40 20 0 17 -7 20 -45 20 -38 0 -45 3 -45 20 0 18 -7 20 -60 20
-53 0 -60 2 -60 20 0 17 -7 20 -40 20 -33 0 -40 3 -40 20 0 17 -7 20 -45 20
-38 0 -45 3 -45 20 0 18 -7 20 -60 20 -57 0 -60 1 -60 25 0 23 -4 25 -45 25
-38 0 -45 3 -45 20 0 18 -7 20 -60 20 -53 0 -60 2 -60 20 0 17 -7 20 -40 20
-33 0 -40 3 -40 20 0 17 -7 20 -45 20 -38 0 -45 3 -45 20 0 18 -7 20 -60 20
-53 0 -60 2 -60 20 0 17 -7 20 -45 20 -41 0 -45 2 -45 25 0 23 -4 25 -40 25
-33 0 -40 3 -40 20 0 18 -7 20 -60 20 -53 0 -60 2 -60 20 0 17 -7 20 -45 20
-38 0 -45 3 -45 20 0 17 -7 20 -40 20 -33 0 -40 3 -40 20 0 18 -7 20 -65 20
-58 0 -65 2 -65 20 0 17 -7 20 -40 20 -36 0 -40 3 -40 25 0 24 -3 25 -60 25
-53 0 -60 2 -60 20 0 17 -7 20 -45 20 -38 0 -45 3 -45 20 0 17 -7 20 -40 20
-33 0 -40 3 -40 20 0 17 -7 20 -40 20 -33 0 -40 3 -40 20 0 18 -7 20 -65 20
-58 0 -65 2 -65 20 0 17 -7 20 -40 20 -36 0 -40 3 -40 25 0 24 -2 25 -65 25
-58 0 -65 2 -65 20 0 17 -7 20 -40 20 -33 0 -40 3 -40 20 0 17 -7 20 -40 20
-33 0 -40 3 -40 20 0 18 -7 20 -65 20 -58 0 -65 2 -65 20 0 17 -7 20 -40 20
-33 0 -40 3 -40 20 0 17 -7 20 -45 20 -41 0 -45 2 -45 25 0 24 -3 25 -60 25
-53 0 -60 2 -60 20 0 17 -7 20 -40 20 -33 0 -40 3 -40 20 0 17 -7 20 -45 20
-38 0 -45 3 -45 20 0 18 -7 20 -60 20 -53 0 -60 2 -60 20 0 17 -7 20 -45 20
-38 0 -45 3 -45 20 0 18 -7 20 -60 20 -57 0 -60 1 -60 25 0 23 -4 25 -40 25
-33 0 -40 3 -40 20 0 17 -7 20 -45 20 -38 0 -45 3 -45 20 0 18 -7 20 -60 20
-53 0 -60 2 -60 20 0 17 -7 20 -45 20 -38 0 -45 3 -45 20 0 17 -7 20 -40 20
-33 0 -40 3 -40 20 0 18 -7 20 -60 20 -57 0 -60 1 -60 25 0 23 -4 25 -45 25
-38 0 -45 3 -45 20 0 17 -7 20 -40 20 -33 0 -40 3 -40 20 0 18 -7 20 -65 20
-58 0 -65 2 -65 20 0 17 -7 20 -40 20 -33 0 -40 3 -40 20 0 18 -7 20 -60 20
-53 0 -60 2 -60 20 0 17 -7 20 -45 20 -41 0 -45 2 -45 25 0 24 -3 25 -60 25
-53 0 -60 2 -60 20 0 17 -7 20 -45 20 -38 0 -45 3 -45 20 0 17 -7 20 -40 20
-33 0 -40 3 -40 20 0 17 -7 20 -40 20 -33 0 -40 3 -40 20 0 18 -7 20 -65 20
-58 0 -65 2 -65 20 0 17 -7 20 -40 20 -36 0 -40 3 -40 25 0 24 -2 25 -65 25
-58 0 -65 2 -65 20 0 17 -7 20 -40 20 -33 0 -40 3 -40 20 0 17 -7 20 -40 20
-33 0 -40 3 -40 20 0 18 -7 20 -65 20 -58 0 -65 2 -65 20 0 17 -7 20 -40 20
-33 0 -40 3 -40 20 0 17 -7 20 -40 20 -36 0 -40 3 -40 25 0 24 -2 25 -65 25
-58 0 -65 2 -65 20 0 17 -7 20 -40 20 -33 0 -40 3 -40 20 0 18 -7 20 -65 20
-58 0 -65 2 -65 20 0 17 -7 20 -40 20 -33 0 -40 3 -40 20 0 17 -7 20 -40 20
-33 0 -40 3 -40 20 0 17 -7 20 -45 20 -41 0 -45 2 -45 25 0 24 -3 25 -60 25
-53 0 -60 2 -60 20 0 17 -7 20 -45 20 -38 0 -45 3 -45 20 0 18 -7 20 -60 20
-53 0 -60 2 -60 20 0 17 -7 20 -40 20 -33 0 -40 3 -40 20 0 17 -7 20 -45 20
-38 0 -45 3 -45 20 0 18 -7 20 -60 20 -57 0 -60 1 -60 25 0 23 -4 25 -45 25
-38 0 -45 3 -45 20 0 18 -7 20 -60 20 -53 0 -60 2 -60 20 0 17 -7 20 -40 20
-33 0 -40 3 -40 20 0 17 -7 20 -45 20 -38 0 -45 3 -45 20 0 18 -7 20 -60 20
-53 0 -60 2 -60 20 0 17 -7 20 -45 20 -41 0 -45 2 -45 25 0 23 -4 25 -40 25
-33 0 -40 3 -40 20 0 18 -7 20 -60 20 -53 0 -60 2 -60 20 0 17 -7 20 -45 20
-38 0 -45 3 -45 20 0 17 -7 20 -40 20 -33 0 -40 3 -40 20 0 18 -7 20 -65 20
-58 0 -65 2 -65 20 0 17 -7 20 -40 20 -36 0 -40 3 -40 25 0 24 -3 25 -60 25
-53 0 -60 2 -60 20 0 17 -7 20 -45 20 -38 0 -45 3 -45 20 0 17 -7 20 -40 20
-33 0 -40 3 -40 20 0 18 -7 20 -65 20 -58 0 -65 2 -65 20 0 17 -7 20 -40 20
-33 0 -40 3 -40 20 0 17 -7 20 -40 20 -36 0 -40 3 -40 25 0 24 -2 25 -65 25
-58 0 -65 2 -65 20 0 17 -7 20 -40 20 -33 0 -40 3 -40 20 0 17 -7 20 -40 20
-33 0 -40 3 -40 20 0 18 -7 20 -65 20 -58 0 -65 2 -65 20 0 17 -7 20 -40 20
-33 0 -40 3 -40 20 0 18 -7 20 -65 20 -63 0 -65 1 -65 25 0 23 -4 25 -40 25
-33 0 -40 3 -40 20 0 17 -7 20 -40 20 -33 0 -40 3 -40 20 0 18 -7 20 -65 20
-58 0 -65 2 -65 20 0 17 -7 20 -40 20 -33 0 -40 3 -40 20 0 17 -7 20 -45 20
-38 0 -45 3 -45 20 0 18 -7 20 -60 20 -57 0 -60 1 -60 25 0 23 -4 25 -40 25
-33 0 -40 3 -40 20 0 18 -7 20 -65 20 -58 0 -65 2 -65 20 0 17 -7 20 -40 20
-33 0 -40 3 -40 20 0 17 -7 20 -45 20 -38 0 -45 3 -45 20 0 18 -7 20 -60 20
-53 0 -60 2 -60 20 0 17 -7 20 -40 20 -36 0 -40 3 -40 25 0 23 -4 25 -45 25
-38 0 -45 3 -45 20 0 18 -7 20 -60 20 -53 0 -60 2 -60 20 0 17 -7 20 -45 20
-38 0 -45 3 -45 20 0 18 -7 20 -60 20 -53 0 -60 2 -60 20 0 17 -7 20 -40 20
-33 0 -40 3 -40 20 0 17 -7 20 -45 20 -41 0 -45 2 -45 25 0 23 -4 25 -40 25
-33 0 -40 3 -40 20 0 18 -7 20 -65 20 -58 0 -65 2 -65 20 0 17 -7 20 -40 20
-33 0 -40 3 -40 20 0 18 -7 20 -60 20 -53 0 -60 2 -60 20 0 17 -7 20 -45 20
-38 0 -45 3 -45 20 0 17 -7 20 -40 20 -36 0 -40 3 -40 25 0 24 -2 25 -65 25
-58 0 -65 2 -65 20 0 17 -7 20 -40 20 -33 0 -40 3 -40 20 0 17 -7 20 -40 20
-33 0 -40 3 -40 20 0 18 -7 20 -65 20 -58 0 -65 2 -65 20 0 17 -7 20 -40 20
-33 0 -40 3 -40 20 0 17 -7 20 -40 20 -36 0 -40 3 -40 25 0 24 -2 25 -65 25
-58 0 -65 2 -65 20 0 17 -7 20 -40 20 -33 0 -40 3 -40 20 0 18 -7 20 -65 20
-58 0 -65 2 -65 20 0 17 -7 20 -40 20 -33 0 -40 3 -40 20 0 17 -7 20 -40 20
-33 0 -40 3 -40 20 0 18 -7 20 -65 20 -63 0 -65 1 -65 25 0 23 -4 25 -40 25
-33 0 -40 3 -40 20 0 17 -7 20 -45 20 -38 0 -45 3 -45 20 0 18 -7 20 -60 20
-53 0 -60 2 -60 20 0 17 -7 20 -40 20 -33 0 -40 3 -40 20 0 18 -7 20 -65 20
-58 0 -65 2 -65 20 0 17 -7 20 -40 20 -36 0 -40 3 -40 25 0 23 -4 25 -45 25
-38 0 -45 3 -45 20 0 18 -7 20 -60 20 -53 0 -60 2 -60 20 0 17 -7 20 -40 20
-33 0 -40 3 -40 20 0 17 -7 20 -45 20 -38 0 -45 3 -45 20 0 18 -7 20 -60 20
-53 0 -60 2 -60 20 0 17 -7 20 -45 20 -41 0 -45 2 -45 25 0 24 -3 25 -60 25
-53 0 -60 2 -60 20 0 17 -7 20 -40 20 -33 0 -40 3 -40 20 0 17 -7 20 -45 20
-38 0 -45 3 -45 20 0 18 -7 20 -60 20 -53 0 -60 2 -60 20 0 17 -7 20 -45 20
-38 0 -45 3 -45 20 0 17 -7 20 -40 20 -36 0 -40 3 -40 25 0 24 -3 25 -60 25
-53 0 -60 2 -60 20 0 17 -7 20 -45 20 -38 0 -45 3 -45 20 0 18 -7 20 -60 20
-53 0 -60 2 -60 20 0 17 -7 20 -45 20 -38 0 -45 3 -45 20 0 17 -7 20 -40 20
-33 0 -40 3 -40 20 0 18 -7 20 -60 20 -57 0 -60 1 -60 25 0 23 -4 25 -45 25
-38 0 -45 3 -45 20 0 17 -7 20 -40 20 -33 0 -40 3 -40 20 0 18 -7 20 -65 20
-58 0 -65 2 -65 20 0 17 -7 20 -40 20 -33 0 -40 3 -40 20 0 17 -7 20 -40 20
-33 0 -40 3 -40 20 0 18 -7 20 -65 20 -63 0 -65 1 -65 25 0 23 -4 25 -40 25
-33 0 -40 3 -40 20 0 17 -7 20 -40 20 -33 0 -40 3 -40 20 0 18 -7 20 -65 20
-58 0 -65 -2 -65 -20z m-2080 -5630 c0 -17 7 -20 40 -20 28 0 40 -4 40 -14 0
-9 15 -17 40 -21 22 -4 40 -12 40 -20 0 -12 50 -25 103 -25 20 0 27 -5 27 -20
0 -17 7 -20 40 -20 27 0 40 -4 40 -14 0 -15 42 -26 96 -26 30 0 34 -3 34 -25
0 -22 4 -25 40 -25 33 0 40 -3 40 -20 0 -17 7 -20 40 -20 27 0 40 -4 40 -14 0
-13 48 -26 103 -26 20 0 27 -5 27 -20 0 -17 7 -20 40 -20 27 0 40 -4 40 -14 0
-15 42 -26 96 -26 27 0 34 -4 34 -20 0 -17 7 -20 40 -20 36 0 40 -2 40 -25 0
-22 4 -25 40 -25 27 0 40 -4 40 -14 0 -13 48 -26 103 -26 20 0 27 -5 27 -20 0
-17 7 -20 40 -20 28 0 40 -4 40 -14 0 -10 16 -17 45 -22 26 -3 45 -12 45 -19
0 -13 43 -25 91 -25 22 0 29 -5 29 -20 0 -17 7 -20 40 -20 32 0 40 -4 40 -19
0 -19 39 -31 103 -31 20 0 27 -5 27 -20 0 -17 7 -20 40 -20 33 0 40 -3 40 -20
0 -17 7 -20 45 -20 32 0 45 -4 45 -14 0 -14 42 -26 91 -26 22 0 29 -5 29 -20
0 -17 7 -20 40 -20 27 0 40 -4 40 -14 0 -9 17 -16 45 -20 34 -6 45 -12 45 -25
0 -19 35 -31 91 -31 22 0 29 -5 29 -20 0 -17 7 -20 45 -20 32 0 45 -4 45 -14
0 -9 15 -17 40 -21 22 -4 40 -12 40 -20 0 -13 43 -25 91 -25 22 0 29 -5 29
-20 0 -17 7 -20 45 -20 32 0 45 -4 45 -14 0 -9 15 -17 40 -21 29 -5 40 -12 40
-25 0 -19 35 -30 96 -30 23 0 34 -5 34 -14 0 -9 15 -17 40 -21 23 -4 40 -12
40 -20 0 -8 17 -16 40 -20 22 -4 40 -12 40 -20 0 -14 43 -25 96 -25 23 0 34
-5 34 -14 0 -9 15 -17 40 -21 23 -4 40 -12 40 -20 0 -8 17 -16 40 -20 29 -5
40 -12 40 -25 0 -18 40 -30 103 -30 16 0 27 -5 27 -14 0 -9 15 -17 40 -21 22
-4 40 -12 40 -20 0 -14 43 -25 96 -25 27 0 34 -4 34 -20 0 -17 7 -20 40 -20
28 0 40 -4 40 -14 0 -9 15 -17 40 -21 22 -4 40 -12 40 -20 0 -12 50 -25 103
-25 20 0 27 -5 27 -19 0 -15 10 -21 40 -26 24 -4 40 -12 40 -20 0 -9 17 -16
45 -21 26 -3 45 -12 45 -19 0 -13 43 -25 91 -25 18 0 29 -5 29 -14 0 -9 15
-17 40 -21 22 -4 40 -12 40 -20 0 -12 50 -25 103 -25 20 0 27 -5 27 -20 0 -17
7 -20 40 -20 33 0 40 -3 40 -19 0 -16 9 -21 45 -27 26 -3 45 -12 45 -19 0 -13
43 -25 91 -25 22 0 29 -5 29 -20 0 -17 7 -20 40 -20 27 0 40 -4 40 -14 0 -9
17 -16 45 -20 27 -5 45 -12 45 -20 0 -14 42 -26 91 -26 22 0 29 -5 29 -20 0
-17 7 -20 45 -20 37 0 45 -3 45 -19 0 -19 34 -31 91 -31 22 0 29 -5 29 -20 0
-17 7 -20 40 -20 33 0 40 -3 40 -20 0 -17 7 -20 45 -20 32 0 45 -4 45 -14 0
-14 42 -26 91 -26 22 0 29 -5 29 -20 0 -17 7 -20 45 -20 32 0 45 -4 45 -14 0
-9 15 -17 40 -21 29 -5 40 -12 40 -25 0 -18 35 -30 91 -30 22 0 29 -5 29 -20
0 -17 7 -20 45 -20 32 0 45 -4 45 -14 0 -14 42 -26 91 -26 22 0 29 -5 29 -20
0 -17 7 -20 45 -20 38 0 45 -3 45 -20 0 -17 7 -20 40 -20 27 0 40 -4 40 -14 0
-14 42 -26 91 -26 24 0 29 -4 29 -25 0 -23 4 -25 45 -25 32 0 45 -4 45 -14 0
-9 15 -17 40 -21 22 -4 40 -12 40 -20 0 -14 43 -25 96 -25 27 0 34 -4 34 -20
0 -17 7 -20 40 -20 28 0 40 -4 40 -14 0 -9 15 -17 40 -21 22 -4 40 -12 40 -20
0 -14 43 -25 96 -25 27 0 34 -4 34 -19 0 -15 10 -21 40 -26 22 -4 40 -12 40
-20 0 -14 43 -25 96 -25 27 0 34 -4 34 -20 0 -17 7 -20 40 -20 28 0 40 -4 40
-14 0 -9 15 -17 40 -21 22 -4 40 -12 40 -20 0 -14 43 -25 96 -25 27 0 34 -4
34 -20 0 -17 7 -20 40 -20 33 0 40 -3 40 -19 0 -15 10 -21 40 -26 22 -4 40
-12 40 -20 0 -12 50 -25 103 -25 16 0 27 -5 27 -14 0 -9 15 -17 40 -21 24 -4
40 -12 40 -20 0 -9 17 -16 45 -21 26 -3 45 -12 45 -19 0 -13 43 -25 91 -25 18
0 29 -5 29 -14 0 -9 15 -17 40 -21 29 -5 40 -12 40 -25 0 -13 11 -19 45 -24
27 -5 45 -12 45 -20 0 -14 42 -26 91 -26 19 0 29 -5 29 -14 0 -10 16 -17 45
-22 27 -4 45 -12 45 -19 0 -8 17 -16 40 -20 22 -4 40 -12 40 -20 0 -13 43 -25
91 -25 18 0 29 -5 29 -14 0 -9 17 -16 45 -20 34 -6 45 -12 45 -25 0 -19 35
-31 91 -31 22 0 29 -5 29 -20 0 -17 7 -20 45 -20 32 0 45 -4 45 -14 0 -9 15
-17 40 -21 22 -4 40 -12 40 -20 0 -13 43 -25 91 -25 18 0 29 -5 29 -14 0 -9
17 -16 45 -20 27 -5 45 -12 45 -20 0 -14 42 -26 91 -26 24 0 29 -4 29 -25 0
-23 4 -25 45 -25 38 0 45 -3 45 -20 0 -17 7 -20 40 -20 27 0 40 -4 40 -14 0
-14 42 -26 91 -26 22 0 29 -5 29 -20 0 -17 7 -20 45 -20 32 0 45 -4 45 -14 0
-9 15 -17 40 -21 22 -4 40 -12 40 -20 0 -14 43 -25 96 -25 30 0 34 -3 34 -25
0 -22 4 -25 40 -25 27 0 40 -4 40 -14 0 -14 42 -26 91 -26 22 0 29 -5 29 -20
0 -17 7 -20 45 -20 38 0 45 -3 45 -20 0 -17 7 -20 40 -20 27 0 40 -4 40 -14 0
-15 42 -26 96 -26 27 0 34 -4 34 -20 0 -17 7 -20 40 -20 33 0 40 -3 40 -19 0
-15 10 -21 40 -26 22 -4 40 -12 40 -20 0 -14 43 -25 96 -25 27 0 34 -4 34 -20
0 -17 7 -20 40 -20 27 0 40 -4 40 -14 0 -15 42 -26 96 -26 27 0 34 -4 34 -20
0 -17 7 -20 40 -20 33 0 40 -3 40 -20 0 -17 7 -20 40 -20 32 0 40 -4 40 -19 0
-20 34 -31 96 -31 27 0 34 -4 34 -20 0 -17 7 -20 40 -20 28 0 40 -4 40 -14 0
-9 15 -17 40 -21 22 -4 40 -12 40 -20 0 -12 50 -25 103 -25 20 0 27 -5 27 -20
0 -17 7 -20 40 -20 28 0 40 -4 40 -14 0 -10 16 -17 45 -22 34 -5 45 -11 45
-24 0 -18 36 -30 91 -30 22 0 29 -5 29 -20 0 -17 7 -20 40 -20 27 0 40 -4 40
-14 0 -9 17 -16 45 -20 27 -5 45 -12 45 -20 0 -14 42 -26 91 -26 19 0 29 -5
29 -14 0 -10 16 -17 45 -22 27 -4 45 -12 45 -19 0 -8 17 -16 40 -20 29 -5 40
-12 40 -25 0 -18 35 -30 91 -30 18 0 29 -5 29 -14 0 -9 17 -16 45 -20 27 -5
45 -12 45 -20 0 -14 42 -26 91 -26 22 0 29 -5 29 -20 0 -17 7 -20 45 -20 32 0
45 -4 45 -14 0 -9 15 -17 40 -21 22 -4 40 -12 40 -20 0 -13 43 -25 91 -25 24
0 29 -4 29 -25 0 -23 4 -25 45 -25 32 0 45 -4 45 -14 0 -9 15 -17 40 -21 22
-4 40 -12 40 -20 0 -14 43 -25 96 -25 23 0 34 -5 34 -14 0 -9 15 -17 40 -21
23 -4 40 -12 40 -20 0 -8 17 -16 40 -20 22 -4 40 -12 40 -20 0 -14 43 -25 96
-25 27 0 34 -4 34 -19 0 -15 10 -21 40 -26 22 -4 40 -12 40 -20 0 -14 43 -25
96 -25 27 0 34 -4 34 -20 0 -17 7 -20 40 -20 28 0 40 -4 40 -14 0 -9 15 -17
40 -21 22 -4 40 -12 40 -20 0 -14 43 -25 96 -25 27 0 34 -4 34 -20 0 -17 7
-20 40 -20 33 0 40 -3 40 -19 0 -15 10 -21 40 -26 22 -4 40 -12 40 -20 0 -12
50 -25 103 -25 20 0 27 -5 27 -20 0 -17 7 -20 40 -20 27 0 40 -4 40 -14 0 -15
42 -26 96 -26 27 0 34 -4 34 -20 0 -17 7 -20 40 -20 33 0 40 -3 40 -20 0 -17
7 -20 40 -20 32 0 40 -4 40 -19 0 -19 39 -31 103 -31 20 0 27 -5 27 -20 0 -17
7 -20 40 -20 28 0 40 -4 40 -14 0 -10 16 -17 45 -22 26 -3 45 -12 45 -19 0
-13 43 -25 91 -25 22 0 29 -5 29 -20 0 -17 7 -20 40 -20 27 0 40 -4 40 -14 0
-13 48 -26 103 -26 22 0 27 -4 27 -25 0 -22 4 -25 40 -25 33 0 40 -3 40 -20 0
-17 7 -20 45 -20 32 0 45 -4 45 -14 0 -14 42 -26 91 -26 22 0 29 -5 29 -20 0
-17 7 -20 40 -20 33 0 40 -3 40 -20 0 -17 7 -20 45 -20 32 0 45 -4 45 -14 0
-14 42 -26 91 -26 24 0 29 -4 29 -25 0 -23 4 -25 45 -25 32 0 45 -4 45 -14 0
-14 42 -26 91 -26 22 0 29 -5 29 -20 0 -17 7 -20 40 -20 33 0 40 -3 40 -20 0
-17 7 -20 45 -20 32 0 45 -4 45 -14 0 -14 42 -26 91 -26 22 0 29 -5 29 -20 0
-17 7 -20 45 -20 38 0 45 -3 45 -19 0 -15 10 -21 40 -26 22 -4 40 -12 40 -20
0 -13 43 -25 91 -25 22 0 29 -5 29 -20 0 -17 7 -20 45 -20 32 0 45 -4 45 -14
0 -9 15 -17 40 -21 22 -4 40 -12 40 -20 0 -14 43 -25 96 -25 27 0 34 -4 34
-20 0 -17 7 -20 40 -20 33 0 40 -3 40 -19 0 -15 10 -21 40 -26 22 -4 40 -12
40 -20 0 -14 43 -25 96 -25 23 0 34 -5 34 -14 0 -9 15 -17 40 -21 23 -4 40
-12 40 -20 0 -8 17 -16 40 -20 22 -4 40 -12 40 -20 0 -12 50 -25 103 -25 16 0
27 -5 27 -14 0 -9 15 -17 40 -21 30 -5 40 -11 40 -25 0 -15 10 -20 45 -26 26
-3 45 -12 45 -19 0 -13 43 -25 91 -25 18 0 29 -5 29 -14 0 -9 15 -17 40 -21
22 -4 40 -12 40 -20 0 -12 50 -25 103 -25 20 0 27 -5 27 -20 0 -17 7 -20 40
-20 28 0 40 -4 40 -14 0 -10 16 -17 45 -22 34 -5 45 -11 45 -24 0 -18 36 -30
91 -30 22 0 29 -5 29 -20 0 -17 7 -20 40 -20 27 0 40 -4 40 -14 0 -9 17 -16
45 -20 27 -5 45 -12 45 -20 0 -14 42 -26 91 -26 19 0 29 -5 29 -14 0 -10 16
-17 45 -22 26 -3 45 -12 45 -19 0 -13 43 -25 91 -25 24 0 29 -4 29 -25 0 -22
4 -25 40 -25 27 0 40 -4 40 -14 0 -9 17 -16 45 -20 27 -5 45 -12 45 -20 0 -14
42 -26 91 -26 22 0 29 -5 29 -20 0 -17 7 -20 45 -20 32 0 45 -4 45 -14 0 -9
15 -17 40 -21 22 -4 40 -12 40 -20 0 -13 43 -25 91 -25 24 0 29 -4 29 -25 0
-23 4 -25 45 -25 32 0 45 -4 45 -14 0 -14 42 -26 91 -26 22 0 29 -5 29 -20 0
-17 7 -20 45 -20 38 0 45 -3 45 -20 0 -17 7 -20 40 -20 27 0 40 -4 40 -14 0
-14 42 -26 91 -26 22 0 29 -5 29 -20 0 -17 7 -20 45 -20 38 0 45 -3 45 -19 0
-15 10 -21 40 -26 22 -4 40 -12 40 -20 0 -14 43 -25 96 -25 27 0 34 -4 34 -20
0 -17 7 -20 40 -20 27 0 40 -4 40 -14 0 -14 42 -26 91 -26 22 0 29 -5 29 -20
0 -17 7 -20 45 -20 38 0 45 -3 45 -20 0 -17 7 -20 40 -20 32 0 40 -4 40 -19 0
-20 34 -31 96 -31 27 0 34 -4 34 -20 0 -17 7 -20 40 -20 28 0 40 -4 40 -14 0
-9 15 -17 40 -21 22 -4 40 -12 40 -20 0 -14 43 -25 96 -25 27 0 34 -4 34 -20
0 -17 7 -20 40 -20 28 0 40 -4 40 -14 0 -9 15 -17 40 -21 29 -5 40 -12 40 -25
0 -18 40 -30 103 -30 20 0 27 -5 27 -20 0 -17 7 -20 40 -20 28 0 40 -4 40 -14
0 -10 16 -17 45 -22 26 -3 45 -12 45 -19 0 -13 43 -25 91 -25 18 0 29 -5 29
-14 0 -9 15 -17 40 -21 22 -4 40 -12 40 -20 0 -12 50 -25 103 -25 22 0 27 -4
27 -25 0 -22 4 -25 40 -25 28 0 40 -4 40 -14 0 -10 16 -17 45 -22 26 -3 45
-12 45 -19 0 -13 43 -25 91 -25 22 0 29 -5 29 -20 0 -17 7 -20 40 -20 27 0 40
-4 40 -14 0 -9 17 -16 45 -20 27 -5 45 -12 45 -20 0 -14 42 -26 91 -26 22 0
29 -5 29 -19 0 -16 9 -21 45 -27 27 -4 45 -12 45 -19 0 -8 17 -16 40 -20 22
-4 40 -12 40 -20 0 -13 43 -25 91 -25 18 0 29 -5 29 -14 0 -9 17 -16 45 -20
28 -5 45 -12 45 -21 0 -8 16 -16 40 -20 22 -4 40 -12 40 -20 0 -14 43 -25 96
-25 27 0 34 -4 34 -19 0 -15 10 -21 40 -26 22 -4 40 -12 40 -20 0 -13 43 -25
91 -25 22 0 29 -5 29 -20 0 -17 7 -20 45 -20 32 0 45 -4 45 -14 0 -9 15 -17
40 -21 22 -4 40 -12 40 -20 0 -14 43 -25 96 -25 27 0 34 -4 34 -20 0 -17 7
-20 40 -20 33 0 40 -3 40 -19 0 -15 10 -21 40 -26 22 -4 40 -12 40 -20 0 -14
43 -25 96 -25 27 0 34 -4 34 -20 0 -17 7 -20 40 -20 27 0 40 -4 40 -14 0 -15
42 -26 96 -26 27 0 34 -4 34 -20 0 -17 7 -20 40 -20 33 0 40 -3 40 -20 0 -17
7 -20 40 -20 32 0 40 -4 40 -19 0 -20 34 -31 96 -31 27 0 34 -4 34 -20 0 -17
7 -20 40 -20 28 0 40 -4 40 -14 0 -9 15 -17 40 -21 22 -4 40 -12 40 -20 0 -12
50 -25 103 -25 20 0 27 -5 27 -20 0 -17 7 -20 40 -20 27 0 40 -4 40 -14 0 -15
42 -26 96 -26 30 0 34 -3 34 -25 0 -22 4 -25 40 -25 33 0 40 -3 40 -20 0 -17
7 -20 40 -20 27 0 40 -4 40 -14 0 -13 48 -26 103 -26 20 0 27 -5 27 -20 0 -17
7 -20 40 -20 28 0 40 -4 40 -14 0 -10 16 -17 45 -22 26 -3 45 -12 45 -19 0
-13 43 -25 91 -25 24 0 29 -4 29 -25 0 -22 4 -25 40 -25 27 0 40 -4 40 -14 0
-13 48 -26 103 -26 20 0 27 -5 27 -20 0 -17 7 -20 40 -20 28 0 40 -4 40 -14 0
-10 16 -17 45 -22 26 -3 45 -12 45 -19 0 -13 43 -25 91 -25 22 0 29 -5 29 -20
0 -17 7 -20 40 -20 33 0 40 -4 40 -19 0 -15 10 -20 45 -25 27 -5 45 -12 45
-20 0 -14 42 -26 91 -26 22 0 29 -5 29 -20 0 -17 7 -20 45 -20 32 0 45 -4 45
-14 0 -9 15 -17 40 -21 22 -4 40 -12 40 -20 0 -13 43 -25 91 -25 18 0 29 -5
29 -14 0 -9 17 -16 45 -20 35 -6 45 -11 45 -26 0 -14 10 -20 40 -25 22 -4 40
-12 40 -20 0 -14 43 -25 96 -25 23 0 34 -5 34 -14 0 -9 15 -17 40 -21 23 -4
40 -12 40 -20 0 -8 17 -16 40 -20 22 -4 40 -12 40 -20 0 -14 43 -25 96 -25 23
0 34 -5 34 -14 0 -9 15 -17 40 -21 29 -5 40 -12 40 -25 0 -19 35 -30 96 -30
23 0 34 -5 34 -14 0 -9 15 -17 40 -21 23 -4 40 -12 40 -20 0 -8 17 -16 40 -20
22 -4 40 -12 40 -20 0 -14 43 -25 96 -25 23 0 34 -5 34 -14 0 -9 15 -17 40
-21 23 -4 40 -12 40 -20 0 -8 17 -16 40 -20 29 -5 40 -12 40 -25 0 -18 40 -30
103 -30 16 0 27 -5 27 -14 0 -9 15 -17 40 -21 22 -4 40 -12 40 -20 0 -14 43
-25 96 -25 27 0 34 -4 34 -20 0 -17 7 -20 40 -20 28 0 40 -4 40 -14 0 -9 15
-17 40 -21 22 -4 40 -12 40 -20 0 -12 50 -25 103 -25 22 0 27 -4 27 -25 0 -22
4 -25 40 -25 28 0 40 -4 40 -14 0 -10 16 -17 45 -22 26 -3 45 -12 45 -19 0
-13 43 -25 91 -25 22 0 29 -5 29 -20 0 -17 7 -20 40 -20 27 0 40 -4 40 -14 0
-13 48 -26 103 -26 20 0 27 -5 27 -20 0 -17 7 -20 40 -20 36 0 40 -2 40 -25 0
-23 4 -25 45 -25 32 0 45 -4 45 -14 0 -14 42 -26 91 -26 22 0 29 -5 29 -20 0
-17 7 -20 40 -20 27 0 40 -4 40 -14 0 -9 17 -16 45 -20 27 -5 45 -12 45 -20 0
-14 42 -26 91 -26 22 0 29 -5 29 -20 0 -17 7 -20 45 -20 37 0 45 -3 45 -19 0
-19 34 -31 91 -31 22 0 29 -5 29 -20 0 -17 7 -20 40 -20 33 0 40 -3 40 -20 0
-17 7 -20 45 -20 32 0 45 -4 45 -14 0 -14 42 -26 91 -26 22 0 29 -5 29 -20 0
-17 7 -20 45 -20 32 0 45 -4 45 -14 0 -9 15 -17 40 -21 29 -5 40 -12 40 -25 0
-18 35 -30 91 -30 22 0 29 -5 29 -20 0 -17 7 -20 45 -20 32 0 45 -4 45 -14 0
-14 42 -26 91 -26 22 0 29 -5 29 -20 0 -17 7 -20 45 -20 38 0 45 -3 45 -20 0
-17 7 -20 40 -20 27 0 40 -4 40 -14 0 -14 42 -26 91 -26 24 0 29 -4 29 -25 0
-23 4 -25 45 -25 32 0 45 -4 45 -14 0 -9 15 -17 40 -21 22 -4 40 -12 40 -20 0
-14 43 -25 96 -25 27 0 34 -4 34 -20 0 -17 7 -20 40 -20 28 0 40 -4 40 -14 0
-9 15 -17 40 -21 22 -4 40 -12 40 -20 0 -14 43 -25 96 -25 30 0 34 -3 34 -25
0 -22 4 -25 40 -25 28 0 40 -4 40 -14 0 -9 15 -17 40 -21 22 -4 40 -12 40 -20
0 -12 50 -25 103 -25 16 0 27 -5 27 -14 0 -9 15 -17 40 -21 24 -4 40 -12 40
-20 0 -9 17 -16 45 -21 26 -3 45 -12 45 -19 0 -13 43 -25 91 -25 22 0 29 -5
29 -19 0 -15 10 -21 40 -26 23 -4 40 -12 40 -20 0 -7 18 -15 45 -19 27 -5 45
-12 45 -20 0 -14 42 -26 91 -26 19 0 29 -5 29 -14 0 -10 16 -17 45 -22 26 -3
45 -12 45 -19 0 -13 43 -25 91 -25 22 0 29 -5 29 -20 0 -17 7 -20 40 -20 33 0
40 -4 40 -19 0 -15 10 -20 45 -25 27 -5 45 -12 45 -20 0 -14 42 -26 91 -26 22
0 29 -5 29 -20 0 -17 7 -20 45 -20 32 0 45 -4 45 -14 0 -9 15 -17 40 -21 22
-4 40 -12 40 -20 0 -13 43 -25 91 -25 22 0 29 -5 29 -20 0 -17 7 -20 45 -20
37 0 45 -3 45 -19 0 -19 34 -31 91 -31 22 0 29 -5 29 -20 0 -17 7 -20 45 -20
38 0 45 -3 45 -20 0 -17 7 -20 40 -20 27 0 40 -4 40 -14 0 -14 42 -26 91 -26
22 0 29 -5 29 -20 0 -17 7 -20 45 -20 32 0 45 -4 45 -14 0 -9 15 -17 40 -21
29 -5 40 -12 40 -25 0 -19 35 -30 96 -30 27 0 34 -4 34 -20 0 -17 7 -20 40
-20 27 0 40 -4 40 -14 0 -14 42 -26 91 -26 22 0 29 -5 29 -20 0 -17 7 -20 45
-20 38 0 45 -3 45 -20 0 -17 7 -20 40 -20 27 0 40 -4 40 -14 0 -15 42 -26 96
-26 30 0 34 -3 34 -25 0 -22 4 -25 40 -25 28 0 40 -4 40 -14 0 -9 15 -17 40
-21 22 -4 40 -12 40 -20 0 -14 43 -25 96 -25 27 0 34 -4 34 -20 0 -17 7 -20
40 -20 27 0 40 -4 40 -14 0 -15 42 -26 96 -26 27 0 34 -4 34 -20 0 -17 7 -20
40 -20 36 0 40 -2 40 -25 0 -22 4 -25 40 -25 27 0 40 -4 40 -14 0 -15 42 -26
96 -26 27 0 34 -4 34 -20 0 -17 7 -20 40 -20 28 0 40 -4 40 -14 0 -9 15 -17
40 -21 22 -4 40 -12 40 -20 0 -12 50 -25 103 -25 20 0 27 -5 27 -20 0 -17 7
-20 40 -20 33 0 40 -3 40 -19 0 -16 9 -21 44 -26 38 -6 45 -11 50 -36 7 -39 7
-31270 0 -31309 -5 -23 -12 -30 -30 -30 -14 0 -24 6 -24 14 0 9 -15 17 -40 21
-22 4 -40 12 -40 20 0 13 -43 25 -91 25 -22 0 -29 5 -29 20 0 17 -7 20 -45 20
-38 0 -45 3 -45 19 0 15 -10 21 -40 26 -22 4 -40 12 -40 20 0 14 -43 25 -96
25 -27 0 -34 4 -34 20 0 17 -7 20 -40 20 -27 0 -40 4 -40 14 0 14 -42 26 -91
26 -22 0 -29 5 -29 20 0 17 -7 20 -45 20 -38 0 -45 3 -45 20 0 17 -7 20 -40
20 -32 0 -40 4 -40 19 0 20 -34 31 -96 31 -27 0 -34 4 -34 20 0 17 -7 20 -40
20 -28 0 -40 4 -40 14 0 9 -15 17 -40 21 -22 4 -40 12 -40 20 0 14 -43 25 -96
25 -27 0 -34 4 -34 20 0 17 -7 20 -40 20 -27 0 -40 4 -40 14 0 15 -42 26 -96
26 -30 0 -34 3 -34 25 0 23 -4 25 -40 25 -33 0 -40 3 -40 20 0 17 -7 20 -40
20 -27 0 -40 4 -40 14 0 15 -42 26 -96 26 -27 0 -34 4 -34 20 0 17 -7 20 -40
20 -28 0 -40 4 -40 14 0 9 -15 17 -40 21 -22 4 -40 12 -40 20 0 12 -50 25
-102 25 -23 0 -28 4 -28 25 0 23 -4 25 -40 25 -28 0 -40 4 -40 14 0 10 -16 17
-45 22 -26 3 -45 12 -45 19 0 13 -43 25 -91 25 -18 0 -29 5 -29 14 0 9 -15 17
-40 21 -22 4 -40 12 -40 20 0 12 -50 25 -102 25 -21 0 -28 5 -28 20 0 17 -7
20 -40 20 -33 0 -40 3 -40 19 0 16 -9 21 -45 27 -27 4 -45 12 -45 19 0 8 -17
16 -40 20 -22 4 -40 12 -40 20 0 13 -43 25 -91 25 -18 0 -29 5 -29 14 0 9 -17
16 -45 20 -27 5 -45 12 -45 20 0 14 -42 26 -91 26 -22 0 -29 5 -29 20 0 17 -7
20 -45 20 -38 0 -45 3 -45 19 0 15 -10 21 -40 26 -22 4 -40 12 -40 20 0 13
-43 25 -91 25 -18 0 -29 5 -29 14 0 9 -17 16 -45 20 -28 5 -45 12 -45 21 0 8
-16 16 -40 20 -22 4 -40 12 -40 20 0 14 -43 25 -96 25 -23 0 -34 5 -34 14 0 9
-15 17 -40 21 -30 5 -40 12 -40 25 0 13 -10 20 -40 25 -22 4 -40 12 -40 20 0
14 -43 25 -96 25 -23 0 -34 5 -34 14 0 9 -15 17 -40 21 -22 4 -40 12 -40 20 0
14 -43 25 -96 25 -27 0 -34 4 -34 20 0 17 -7 20 -40 20 -28 0 -40 4 -40 14 0
9 -15 17 -40 21 -29 5 -40 12 -40 25 0 19 -35 30 -96 30 -27 0 -34 4 -34 20 0
17 -7 20 -40 20 -28 0 -40 4 -40 14 0 9 -15 17 -40 21 -22 4 -40 12 -40 20 0
12 -50 25 -102 25 -21 0 -28 5 -28 20 0 17 -7 20 -40 20 -27 0 -40 4 -40 14 0
15 -42 26 -96 26 -30 0 -34 3 -34 25 0 23 -4 25 -40 25 -28 0 -40 4 -40 14 0
9 -15 17 -40 21 -22 4 -40 12 -40 20 0 12 -50 25 -102 25 -21 0 -28 5 -28 20
0 17 -7 20 -40 20 -27 0 -40 4 -40 14 0 15 -42 26 -96 26 -27 0 -34 4 -34 20
0 17 -7 20 -40 20 -36 0 -40 3 -40 25 0 23 -4 25 -40 25 -27 0 -40 4 -40 14 0
13 -48 26 -102 26 -21 0 -28 5 -28 20 0 17 -7 20 -40 20 -33 0 -40 3 -40 20 0
17 -7 20 -45 20 -32 0 -45 4 -45 14 0 14 -42 26 -91 26 -22 0 -29 5 -29 20 0
17 -7 20 -40 20 -33 0 -40 4 -40 19 0 15 -10 20 -45 25 -27 5 -45 12 -45 20 0
14 -42 26 -91 26 -22 0 -29 5 -29 20 0 17 -7 20 -45 20 -32 0 -45 4 -45 14 0
14 -42 26 -91 26 -22 0 -29 5 -29 20 0 17 -7 20 -40 20 -33 0 -40 3 -40 20 0
17 -7 20 -45 20 -37 0 -45 3 -45 19 0 19 -34 31 -91 31 -22 0 -29 5 -29 20 0
17 -7 20 -45 20 -32 0 -45 4 -45 14 0 9 -15 17 -40 21 -22 4 -40 12 -40 20 0
13 -43 25 -91 25 -22 0 -29 5 -29 20 0 17 -7 20 -45 20 -32 0 -45 4 -45 14 0
9 -15 17 -40 21 -29 5 -40 12 -40 25 0 19 -35 30 -96 30 -27 0 -34 4 -34 20 0
17 -7 20 -40 20 -28 0 -40 4 -40 14 0 9 -15 17 -40 21 -22 4 -40 12 -40 20 0
14 -43 25 -96 25 -23 0 -34 5 -34 14 0 9 -15 17 -40 21 -23 4 -40 12 -40 20 0
8 -17 16 -40 20 -29 5 -40 12 -40 25 0 18 -40 30 -102 30 -17 0 -28 5 -28 14
0 9 -15 17 -40 21 -22 4 -40 12 -40 20 0 14 -43 25 -96 25 -27 0 -34 4 -34 20
0 17 -7 20 -40 20 -28 0 -40 4 -40 14 0 9 -15 17 -40 21 -22 4 -40 12 -40 20
0 12 -50 25 -102 25 -21 0 -28 5 -28 19 0 15 -10 21 -40 26 -24 4 -40 12 -40
20 0 9 -17 16 -45 21 -26 3 -45 12 -45 19 0 13 -43 25 -91 25 -18 0 -29 5 -29
14 0 9 -15 17 -40 21 -23 4 -40 12 -40 20 0 7 -18 15 -45 19 -27 5 -45 12 -45
20 0 14 -42 26 -91 26 -22 0 -29 5 -29 19 0 16 -9 21 -45 27 -26 3 -45 12 -45
19 0 13 -43 25 -91 25 -22 0 -29 5 -29 20 0 17 -7 20 -40 20 -27 0 -40 4 -40
14 0 9 -17 16 -45 20 -27 5 -45 12 -45 20 0 14 -42 26 -91 26 -22 0 -29 5 -29
20 0 17 -7 20 -45 20 -37 0 -45 3 -45 19 0 19 -34 31 -91 31 -22 0 -29 5 -29
20 0 17 -7 20 -40 20 -33 0 -40 3 -40 20 0 17 -7 20 -45 20 -32 0 -45 4 -45
14 0 14 -42 26 -91 26 -22 0 -29 5 -29 20 0 17 -7 20 -45 20 -38 0 -45 3 -45
20 0 17 -7 20 -40 20 -32 0 -40 4 -40 19 0 19 -34 31 -91 31 -22 0 -29 5 -29
20 0 17 -7 20 -45 20 -32 0 -45 4 -45 14 0 14 -42 26 -91 26 -22 0 -29 5 -29
20 0 17 -7 20 -45 20 -38 0 -45 3 -45 20 0 17 -7 20 -40 20 -27 0 -40 4 -40
14 0 14 -42 26 -91 26 -24 0 -29 4 -29 25 0 23 -4 25 -45 25 -38 0 -45 3 -45
20 0 17 -7 20 -40 20 -27 0 -40 4 -40 14 0 15 -42 26 -96 26 -27 0 -34 4 -34
20 0 17 -7 20 -40 20 -28 0 -40 4 -40 14 0 9 -15 17 -40 21 -22 4 -40 12 -40
20 0 14 -43 25 -96 25 -30 0 -34 3 -34 25 0 23 -4 25 -40 25 -27 0 -40 4 -40
14 0 15 -42 26 -96 26 -27 0 -34 4 -34 20 0 17 -7 20 -40 20 -28 0 -40 4 -40
14 0 9 -15 17 -40 21 -22 4 -40 12 -40 20 0 14 -43 25 -96 25 -27 0 -34 4 -34
20 0 17 -7 20 -40 20 -33 0 -40 3 -40 19 0 15 -10 21 -40 26 -22 4 -40 12 -40
20 0 12 -50 25 -102 25 -21 0 -28 5 -28 20 0 17 -7 20 -40 20 -28 0 -40 4 -40
14 0 10 -16 17 -45 22 -26 3 -45 12 -45 19 0 13 -43 25 -91 25 -18 0 -29 5
-29 14 0 9 -15 17 -40 21 -29 5 -40 12 -40 25 0 13 -11 19 -45 24 -27 5 -45
12 -45 20 0 14 -42 26 -91 26 -19 0 -29 5 -29 14 0 10 -16 17 -45 22 -27 4
-45 12 -45 19 0 8 -17 16 -40 20 -22 4 -40 12 -40 20 0 13 -43 25 -91 25 -18
0 -29 5 -29 14 0 9 -17 16 -45 20 -35 6 -45 11 -45 26 0 14 -10 20 -40 25 -22
4 -40 12 -40 20 0 14 -43 25 -96 25 -23 0 -34 5 -34 14 0 9 -15 17 -40 21 -22
4 -40 12 -40 20 0 13 -43 25 -91 25 -22 0 -29 5 -29 20 0 17 -7 20 -45 20 -32
0 -45 4 -45 14 0 9 -15 17 -40 21 -29 5 -40 12 -40 25 0 19 -35 30 -96 30 -23
0 -34 5 -34 14 0 9 -15 17 -40 21 -22 4 -40 12 -40 20 0 13 -43 25 -91 25 -22
0 -29 5 -29 20 0 17 -7 20 -45 20 -38 0 -45 3 -45 20 0 17 -7 20 -40 20 -27 0
-40 4 -40 14 0 15 -42 26 -96 26 -30 0 -34 3 -34 25 0 23 -4 25 -40 25 -28 0
-40 4 -40 14 0 9 -15 17 -40 21 -22 4 -40 12 -40 20 0 14 -43 25 -96 25 -27 0
-34 4 -34 20 0 17 -7 20 -40 20 -27 0 -40 4 -40 14 0 15 -42 26 -96 26 -27 0
-34 4 -34 20 0 17 -7 20 -40 20 -36 0 -40 3 -40 25 0 23 -4 25 -40 25 -27 0
-40 4 -40 14 0 15 -42 26 -96 26 -27 0 -34 4 -34 20 0 17 -7 20 -40 20 -28 0
-40 4 -40 14 0 9 -15 17 -40 21 -22 4 -40 12 -40 20 0 12 -50 25 -102 25 -21
0 -28 5 -28 20 0 17 -7 20 -40 20 -32 0 -40 4 -40 19 0 20 -34 31 -96 31 -27
0 -34 4 -34 20 0 17 -7 20 -40 20 -33 0 -40 3 -40 20 0 17 -7 20 -40 20 -27 0
-40 4 -40 14 0 13 -48 26 -102 26 -21 0 -28 5 -28 20 0 17 -7 20 -40 20 -28 0
-40 4 -40 14 0 10 -16 17 -45 22 -34 5 -45 11 -45 24 0 18 -36 30 -91 30 -22
0 -29 5 -29 20 0 17 -7 20 -40 20 -27 0 -40 4 -40 14 0 9 -17 16 -45 20 -27 5
-45 12 -45 20 0 14 -42 26 -91 26 -22 0 -29 5 -29 20 0 17 -7 20 -45 20 -32 0
-45 4 -45 14 0 9 -15 17 -40 21 -29 5 -40 12 -40 25 0 18 -35 30 -91 30 -18 0
-29 5 -29 14 0 9 -17 16 -45 20 -27 5 -45 12 -45 20 0 14 -42 26 -91 26 -22 0
-29 5 -29 20 0 17 -7 20 -45 20 -32 0 -45 4 -45 14 0 9 -15 17 -40 21 -23 4
-40 12 -40 20 0 8 -17 16 -40 20 -29 5 -40 12 -40 25 0 19 -35 30 -96 30 -23
0 -34 5 -34 14 0 9 -15 17 -40 21 -22 4 -40 12 -40 20 0 14 -43 25 -96 25 -27
0 -34 4 -34 20 0 17 -7 20 -40 20 -28 0 -40 4 -40 14 0 9 -15 17 -40 21 -22 4
-40 12 -40 20 0 14 -43 25 -96 25 -27 0 -34 4 -34 19 0 15 -10 21 -40 26 -23
4 -40 12 -40 20 0 8 -17 16 -40 20 -22 4 -40 12 -40 20 0 12 -50 25 -102 25
-17 0 -28 5 -28 14 0 9 -15 17 -40 21 -22 4 -40 12 -40 20 0 14 -43 25 -96 25
-27 0 -34 4 -34 20 0 17 -7 20 -40 20 -33 0 -40 3 -40 19 0 15 -10 21 -40 26
-22 4 -40 12 -40 20 0 12 -50 25 -102 25 -21 0 -28 5 -28 20 0 17 -7 20 -40
20 -28 0 -40 4 -40 14 0 10 -16 17 -45 22 -26 3 -45 12 -45 19 0 13 -43 25
-91 25 -22 0 -29 5 -29 20 0 17 -7 20 -40 20 -32 0 -40 4 -40 19 0 19 -39 31
-102 31 -21 0 -28 5 -28 20 0 17 -7 20 -40 20 -33 0 -40 3 -40 20 0 17 -7 20
-45 20 -32 0 -45 4 -45 14 0 14 -42 26 -91 26 -22 0 -29 5 -29 20 0 17 -7 20
-40 20 -27 0 -40 4 -40 14 0 9 -17 16 -45 20 -34 6 -45 12 -45 25 0 19 -35 31
-91 31 -22 0 -29 5 -29 20 0 17 -7 20 -45 20 -32 0 -45 4 -45 14 0 14 -42 26
-91 26 -22 0 -29 5 -29 20 0 17 -7 20 -40 20 -33 0 -40 3 -40 20 0 17 -7 20
-45 20 -32 0 -45 4 -45 14 0 14 -42 26 -91 26 -24 0 -29 4 -29 25 0 23 -4 25
-45 25 -32 0 -45 4 -45 14 0 9 -15 17 -40 21 -22 4 -40 12 -40 20 0 13 -43 25
-91 25 -22 0 -29 5 -29 20 0 17 -7 20 -45 20 -32 0 -45 4 -45 14 0 14 -42 26
-91 26 -22 0 -29 5 -29 20 0 17 -7 20 -45 20 -38 0 -45 3 -45 19 0 15 -10 21
-40 26 -22 4 -40 12 -40 20 0 13 -43 25 -91 25 -22 0 -29 5 -29 20 0 17 -7 20
-45 20 -32 0 -45 4 -45 14 0 9 -15 17 -40 21 -22 4 -40 12 -40 20 0 14 -43 25
-96 25 -27 0 -34 4 -34 20 0 17 -7 20 -40 20 -33 0 -40 3 -40 19 0 15 -10 21
-40 26 -22 4 -40 12 -40 20 0 14 -43 25 -96 25 -23 0 -34 5 -34 14 0 9 -15 17
-40 21 -23 4 -40 12 -40 20 0 8 -17 16 -40 20 -22 4 -40 12 -40 20 0 12 -50
25 -102 25 -17 0 -28 5 -28 14 0 9 -15 17 -40 21 -30 5 -40 11 -40 25 0 15
-10 20 -45 26 -26 3 -45 12 -45 19 0 13 -43 25 -91 25 -18 0 -29 5 -29 14 0 9
-15 17 -40 21 -22 4 -40 12 -40 20 0 12 -50 25 -102 25 -21 0 -28 5 -28 20 0
17 -7 20 -40 20 -28 0 -40 4 -40 14 0 10 -16 17 -45 22 -34 5 -45 11 -45 24 0
18 -36 30 -91 30 -18 0 -29 5 -29 14 0 9 -15 17 -40 21 -23 4 -40 12 -40 20 0
7 -18 15 -45 19 -27 5 -45 12 -45 20 0 14 -42 26 -91 26 -19 0 -29 5 -29 14 0
10 -16 17 -45 22 -27 4 -45 12 -45 19 0 8 -17 16 -40 20 -29 5 -40 12 -40 25
0 18 -35 30 -91 30 -22 0 -29 5 -29 20 0 17 -7 20 -45 20 -32 0 -45 4 -45 14
0 14 -42 26 -91 26 -22 0 -29 5 -29 20 0 17 -7 20 -45 20 -32 0 -45 4 -45 14
0 9 -15 17 -40 21 -22 4 -40 12 -40 20 0 13 -43 25 -91 25 -24 0 -29 4 -29 25
0 23 -4 25 -45 25 -32 0 -45 4 -45 14 0 14 -42 26 -91 26 -22 0 -29 5 -29 20
0 17 -7 20 -45 20 -38 0 -45 3 -45 20 0 17 -7 20 -40 20 -27 0 -40 4 -40 14 0
14 -42 26 -91 26 -22 0 -29 5 -29 20 0 17 -7 20 -45 20 -38 0 -45 3 -45 19 0
15 -10 21 -40 26 -22 4 -40 12 -40 20 0 14 -43 25 -96 25 -27 0 -34 4 -34 20
0 17 -7 20 -40 20 -27 0 -40 4 -40 14 0 14 -42 26 -91 26 -22 0 -29 5 -29 20
0 17 -7 20 -45 20 -38 0 -45 3 -45 20 0 17 -7 20 -40 20 -32 0 -40 4 -40 19 0
20 -34 31 -96 31 -27 0 -34 4 -34 20 0 17 -7 20 -40 20 -28 0 -40 4 -40 14 0
9 -15 17 -40 21 -22 4 -40 12 -40 20 0 14 -43 25 -96 25 -27 0 -34 4 -34 20 0
17 -7 20 -40 20 -28 0 -40 4 -40 14 0 9 -15 17 -40 21 -29 5 -40 12 -40 25 0
18 -40 30 -102 30 -21 0 -28 5 -28 20 0 17 -7 20 -40 20 -27 0 -40 4 -40 14 0
15 -42 26 -96 26 -27 0 -34 4 -34 20 0 17 -7 20 -40 20 -28 0 -40 4 -40 14 0
9 -15 17 -40 21 -22 4 -40 12 -40 20 0 12 -50 25 -102 25 -23 0 -28 4 -28 25
0 23 -4 25 -40 25 -28 0 -40 4 -40 14 0 10 -16 17 -45 22 -26 3 -45 12 -45 19
0 13 -43 25 -91 25 -22 0 -29 5 -29 20 0 17 -7 20 -40 20 -27 0 -40 4 -40 14
0 9 -17 16 -45 20 -27 5 -45 12 -45 20 0 14 -42 26 -91 26 -24 0 -29 4 -29 25
0 23 -4 25 -45 25 -32 0 -45 4 -45 14 0 9 -15 17 -40 21 -22 4 -40 12 -40 20
0 13 -43 25 -91 25 -18 0 -29 5 -29 14 0 9 -17 16 -45 20 -28 5 -45 12 -45 21
0 8 -16 16 -40 20 -22 4 -40 12 -40 20 0 14 -43 25 -96 25 -27 0 -34 4 -34 19
0 15 -10 21 -40 26 -22 4 -40 12 -40 20 0 13 -43 25 -91 25 -22 0 -29 5 -29
20 0 17 -7 20 -45 20 -32 0 -45 4 -45 14 0 9 -15 17 -40 21 -22 4 -40 12 -40
20 0 14 -43 25 -96 25 -27 0 -34 4 -34 20 0 17 -7 20 -40 20 -33 0 -40 3 -40
19 0 15 -10 21 -40 26 -22 4 -40 12 -40 20 0 14 -43 25 -96 25 -27 0 -34 4
-34 20 0 17 -7 20 -40 20 -27 0 -40 4 -40 14 0 15 -42 26 -96 26 -27 0 -34 4
-34 20 0 17 -7 20 -40 20 -33 0 -40 3 -40 20 0 17 -7 20 -40 20 -32 0 -40 4
-40 19 0 20 -34 31 -96 31 -27 0 -34 4 -34 20 0 17 -7 20 -40 20 -33 0 -40 3
-40 20 0 17 -7 20 -40 20 -27 0 -40 4 -40 14 0 13 -48 26 -102 26 -21 0 -28 5
-28 20 0 17 -7 20 -40 20 -27 0 -40 4 -40 14 0 15 -42 26 -96 26 -30 0 -34 3
-34 25 0 23 -4 25 -40 25 -33 0 -40 3 -40 20 0 17 -7 20 -40 20 -27 0 -40 4
-40 14 0 13 -48 26 -102 26 -21 0 -28 5 -28 20 0 17 -7 20 -40 20 -33 0 -40 3
-40 20 0 17 -7 20 -45 20 -32 0 -45 4 -45 14 0 14 -42 26 -91 26 -24 0 -29 4
-29 25 0 23 -4 25 -40 25 -27 0 -40 4 -40 14 0 13 -48 26 -102 26 -21 0 -28 5
-28 20 0 17 -7 20 -40 20 -33 0 -40 3 -40 20 0 17 -7 20 -45 20 -32 0 -45 4
-45 14 0 14 -42 26 -91 26 -22 0 -29 5 -29 20 0 17 -7 20 -40 20 -33 0 -40 4
-40 19 0 15 -10 20 -45 25 -27 5 -45 12 -45 20 0 14 -42 26 -91 26 -22 0 -29
5 -29 20 0 17 -7 20 -45 20 -32 0 -45 4 -45 14 0 9 -15 17 -40 21 -22 4 -40
12 -40 20 0 13 -43 25 -91 25 -22 0 -29 5 -29 20 0 17 -7 20 -45 20 -38 0 -45
3 -45 19 0 15 -10 21 -40 26 -22 4 -40 12 -40 20 0 14 -43 25 -96 25 -23 0
-34 5 -34 14 0 9 -15 17 -40 21 -23 4 -40 12 -40 20 0 8 -17 16 -40 20 -22 4
-40 12 -40 20 0 14 -43 25 -96 25 -23 0 -34 5 -34 14 0 9 -15 17 -40 21 -30 5
-40 12 -40 25 0 13 -10 20 -40 25 -22 4 -40 12 -40 20 0 12 -50 25 -102 25
-17 0 -28 5 -28 14 0 9 -15 17 -40 21 -22 4 -40 12 -40 20 0 14 -43 25 -96 25
-23 0 -34 5 -34 14 0 9 -15 17 -40 21 -23 4 -40 12 -40 20 0 8 -17 16 -40 20
-29 5 -40 12 -40 25 0 18 -40 30 -102 30 -17 0 -28 5 -28 14 0 9 -15 17 -40
21 -24 4 -40 12 -40 20 0 9 -17 16 -45 21 -26 3 -45 12 -45 19 0 13 -43 25
-91 25 -18 0 -29 5 -29 14 0 9 -15 17 -40 21 -22 4 -40 12 -40 20 0 12 -50 25
-102 25 -23 0 -28 4 -28 25 0 23 -4 25 -40 25 -28 0 -40 4 -40 14 0 10 -16 17
-45 22 -26 3 -45 12 -45 19 0 13 -43 25 -91 25 -22 0 -29 5 -29 20 0 17 -7 20
-40 20 -27 0 -40 4 -40 14 0 9 -17 16 -45 20 -27 5 -45 12 -45 20 0 14 -42 26
-91 26 -24 0 -29 4 -29 25 0 23 -4 25 -45 25 -32 0 -45 4 -45 14 0 14 -42 26
-91 26 -22 0 -29 5 -29 20 0 17 -7 20 -40 20 -33 0 -40 3 -40 20 0 17 -7 20
-45 20 -32 0 -45 4 -45 14 0 14 -42 26 -91 26 -22 0 -29 5 -29 20 0 17 -7 20
-45 20 -38 0 -45 3 -45 19 0 15 -10 21 -40 26 -22 4 -40 12 -40 20 0 13 -43
25 -91 25 -22 0 -29 5 -29 20 0 17 -7 20 -45 20 -32 0 -45 4 -45 14 0 14 -42
26 -91 26 -22 0 -29 5 -29 20 0 17 -7 20 -45 20 -38 0 -45 3 -45 20 0 17 -7
20 -40 20 -32 0 -40 4 -40 19 0 19 -34 31 -91 31 -22 0 -29 5 -29 20 0 17 -7
20 -45 20 -32 0 -45 4 -45 14 0 9 -15 17 -40 21 -22 4 -40 12 -40 20 0 14 -43
25 -96 25 -27 0 -34 4 -34 20 0 17 -7 20 -40 20 -27 0 -40 4 -40 14 0 14 -42
26 -91 26 -24 0 -29 4 -29 25 0 23 -4 25 -45 25 -38 0 -45 3 -45 20 0 17 -7
20 -40 20 -27 0 -40 4 -40 14 0 14 -42 26 -95 26 -28 0 -33 4 -39 31 -8 40 -8
31287 0 31317 5 18 13 22 50 22 37 0 44 -3 44 -20z"/>
<path d="M15506 37338 c-3 -134 -45 -1757 -91 -3608 -47 -1851 -91 -3585 -98
-3855 -10 -350 -10 -493 -3 -502 6 -7 745 -321 1641 -698 897 -378 1729 -729
1850 -780 351 -149 4505 -1897 4660 -1960 183 -75 3583 -1503 6220 -2613 1144
-481 2127 -894 2185 -917 58 -23 1001 -419 2095 -879 1095 -461 2904 -1222
4020 -1691 1117 -469 2716 -1142 3555 -1495 839 -353 1530 -644 1537 -647 9
-3 10 907 6 3919 -3 2158 -8 3926 -12 3930 -3 3 -4337 1898 -9631 4211 -5294
2313 -9655 4219 -9693 4236 -37 17 -69 31 -71 31 -2 0 -1833 799 -4067 1776
-2235 977 -4071 1778 -4080 1781 -14 4 -17 -23 -23 -239z m3551 -1834 c1649
-718 3001 -1309 3006 -1313 4 -4 -36 -22 -88 -40 -250 -84 -457 -213 -631
-393 -185 -191 -262 -315 -397 -638 -36 -85 -113 -270 -172 -410 -129 -306
-160 -381 -258 -615 -72 -173 -107 -258 -285 -680 -44 -104 -144 -343 -222
-530 -78 -187 -159 -380 -180 -430 -21 -49 -101 -241 -178 -425 -77 -184 -169
-405 -205 -490 -36 -85 -111 -265 -168 -400 -56 -135 -136 -324 -176 -420 -41
-96 -88 -210 -106 -254 -17 -43 -36 -80 -42 -82 -11 -5 -3062 1279 -3077 1294
-5 5 9 728 31 1608 22 879 61 2454 86 3499 43 1776 50 2025 61 2025 2 0 1353
-588 3001 -1306z m4906 -4475 c320 -138 627 -273 682 -301 542 -271 890 -676
990 -1153 23 -105 23 -312 1 -420 -45 -216 -176 -358 -381 -410 -77 -20 -247
-19 -361 0 -129 23 -311 88 -639 228 -159 69 -293 123 -297 120 -5 -2 -9 -133
-9 -291 -1 -158 -4 -319 -8 -358 l-6 -71 -300 127 -300 128 -3 98 c-2 55 6
608 18 1229 11 622 20 1174 20 1228 0 53 2 97 5 97 3 0 268 -113 588 -251z
m2376 -1679 c192 -24 439 -107 656 -219 504 -260 776 -648 800 -1141 7 -137
-8 -1237 -17 -1246 -4 -3 -126 45 -272 107 l-266 113 0 118 c0 65 -2 118 -5
118 -3 0 -16 -9 -28 -21 -108 -102 -321 -96 -585 16 -192 82 -342 185 -477
326 -227 238 -322 528 -250 766 55 182 220 255 470 208 138 -26 253 -66 555
-196 153 -65 282 -119 287 -119 15 0 -4 130 -26 191 -64 170 -206 302 -429
398 -108 47 -189 68 -318 83 -85 10 -113 9 -180 -4 -43 -9 -82 -13 -85 -9 -12
12 -202 492 -197 497 23 22 235 30 367 14z m2436 -1015 c159 -36 290 -83 460
-165 468 -225 736 -538 831 -970 18 -79 19 -132 16 -759 -1 -371 -4 -677 -7
-679 -2 -2 -123 47 -269 109 l-266 113 0 118 c0 106 -8 143 -23 104 -3 -8 -36
-29 -73 -47 -64 -32 -75 -34 -164 -33 -113 1 -205 24 -358 90 -444 189 -736
554 -736 919 0 184 54 294 172 352 53 26 65 28 182 28 188 -1 266 -24 686
-204 l279 -120 3 33 c5 50 -24 158 -59 229 -41 81 -170 210 -264 264 -101 58
-235 109 -352 132 -117 24 -201 26 -292 7 l-63 -13 -18 41 c-55 129 -180 443
-180 453 0 7 17 15 38 18 20 4 44 8 52 10 8 2 76 2 150 0 100 -2 166 -10 255
-30z m2450 -436 c383 -82 846 -336 1170 -642 l100 -95 -95 -191 c-52 -105 -96
-191 -99 -191 -2 0 -43 37 -90 83 -251 242 -558 428 -801 487 -126 30 -204 24
-254 -19 -55 -48 -65 -157 -22 -244 59 -121 179 -222 601 -505 537 -360 753
-601 831 -928 21 -87 24 -270 5 -344 -80 -324 -403 -427 -871 -278 -402 128
-848 403 -1152 712 -60 60 -108 112 -108 117 0 7 194 356 204 366 2 2 44 -37
93 -88 220 -229 528 -444 788 -550 170 -70 326 -92 393 -56 48 26 72 71 72
137 0 86 -35 149 -143 255 -94 92 -184 160 -432 325 -559 372 -783 609 -875
930 -30 104 -38 299 -16 393 68 291 320 408 701 326z"/>
<path d="M17312 33738 c-6 -8 -19 -417 -34 -1053 -28 -1154 -30 -1083 40
-1122 85 -48 307 -134 336 -131 27 3 31 7 37 43 4 22 10 227 14 455 4 229 10
433 14 455 7 44 -49 134 609 -980 l219 -370 189 -81 c104 -45 199 -84 212 -87
32 -6 55 19 50 57 -2 19 -169 300 -422 711 -231 374 -427 692 -438 707 -10 14
-18 29 -18 32 0 3 196 136 435 296 337 225 435 295 435 311 0 36 -29 78 -68
98 -72 36 -350 151 -366 151 -14 0 -480 -307 -753 -497 -35 -24 -68 -43 -74
-43 -8 0 -9 31 -5 103 14 246 18 737 7 765 -17 39 -44 55 -212 127 -153 66
-189 75 -207 53z"/>
<path d="M23976 30273 c-9 -379 -11 -661 -4 -668 14 -14 497 -218 593 -250
227 -76 367 -49 432 83 35 72 43 210 19 314 -46 196 -198 372 -423 490 -73 38
-592 268 -606 268 -2 0 -7 -107 -11 -237z"/>
<path d="M26525 28050 c-11 -4 -31 -20 -45 -35 -22 -24 -25 -35 -25 -103 0
-99 26 -154 114 -242 75 -75 148 -119 258 -156 146 -49 270 -31 340 50 41 46
45 60 41 174 l-3 94 -230 98 c-284 120 -385 147 -450 120z"/>
<path d="M28808 27053 c-37 -23 -51 -62 -50 -135 2 -130 108 -264 275 -347
207 -102 368 -89 455 39 19 29 22 46 22 134 l0 101 -196 84 c-108 46 -233 97
-278 112 -95 34 -185 38 -228 12z"/>
<path d="M2280 21060 c0 -13 7 -20 20 -20 13 0 20 7 20 20 0 13 -7 20 -20 20
-13 0 -20 -7 -20 -20z"/>
<path d="M2360 21020 c0 -13 7 -20 20 -20 13 0 20 7 20 20 0 13 -7 20 -20 20
-13 0 -20 -7 -20 -20z"/>
</g>
</svg>
