<svg xmlns="http://www.w3.org/2000/svg" width="24" height="24" fill="#002835" viewBox="0 0 24 24"><path d="M 13 2 C 9.28125 2 8.316406 4.828125 7.992188 6.46875 C 8.4375 6.277344 9.535156 6 10 6 L 10.019531 6 C 11.164063 6.007813 11.519531 6.332031 11.75 7.390625 C 11.917969 8.167969 12.003906 9.378906 12 10 C 11.996094 11.359375 11.667969 12.296875 11.425781 12.925781 L 11.347656 13.128906 C 11.289063 13.296875 11.21875 13.453125 11.15625 13.597656 C 11.09375 13.75 11.039063 13.882813 11 14 C 11.242188 14.054688 11.433594 14.132813 11.5625 14.1875 L 11.636719 14.222656 C 11.660156 14.234375 11.683594 14.242188 11.703125 14.257813 C 12.128906 14.515625 12 15.109375 12 15.578125 C 12 15.96875 12.011719 17.523438 12 19.003906 C 12.042969 19.644531 12.207031 20.183594 12.347656 20.578125 C 12.554688 21.132813 13.019531 21.957031 14 22 C 14.773438 22.035156 15.890625 21.628906 16 20.003906 L 16 16.003906 C 16.074219 14.667969 17.605469 14.136719 18 13.84375 C 17.945313 13.769531 17.734375 13.117188 17.511719 12.769531 L 17.46875 12.6875 C 17.4375 12.609375 17.355469 12.46875 17.253906 12.28125 C 16.664063 11.210938 15.429688 8.464844 16.273438 7.058594 C 16.640625 6.441406 17 6.085938 18 6 C 17.59375 4.839844 16.46875 2.058594 13 2 Z M 6.4375 2 C 4.566406 2.070313 2 3.230469 2 7.011719 C 2 9.574219 3.742188 17 6.492188 17 C 6.617188 17 6.742188 16.957031 6.871094 16.890625 C 6.628906 16.679688 6.453125 16.40625 6.429688 16.046875 C 6.386719 15.320313 6.914063 14.808594 8.050781 14.519531 C 8.105469 14.511719 8.394531 14.425781 9.03125 14.066406 C 8.695313 13.921875 8.34375 13.726563 8.054688 13.425781 C 7.261719 12.597656 6.859375 11.4375 7.007813 10.394531 C 7.148438 9.378906 7.066406 8.382813 7.023438 7.851563 L 7.019531 7.800781 L 7.007813 7.625 L 6.984375 7.257813 L 7.015625 6.273438 C 7.339844 4.609375 8.019531 3.320313 9 2.429688 C 8.257813 2.1875 7.324219 1.96875 6.4375 2 Z M 16.933594 2.003906 C 16.742188 2.007813 16.5625 2.023438 16.386719 2.042969 C 17.390625 2.742188 18.3125 3.871094 18.941406 5.671875 L 18.984375 7.046875 C 18.988281 7.09375 18.996094 7.140625 19.003906 7.1875 C 19.035156 7.359375 19.074219 7.59375 19.042969 7.875 C 19.003906 8.195313 18.964844 8.523438 18.953125 8.851563 C 18.945313 9.175781 18.988281 9.492188 19.035156 9.828125 C 19.121094 10.425781 19.074219 11.03125 18.886719 11.679688 L 18.59375 12.6875 C 18.671875 12.859375 18.746094 13.035156 18.820313 13.21875 C 18.835938 13.265625 18.851563 13.300781 18.863281 13.332031 L 19.191406 13.785156 C 20.957031 12.230469 22 8.976563 22 5.625 C 22 4.976563 21.824219 4.476563 21.597656 4.1875 C 20.257813 2.472656 18.402344 1.980469 16.933594 2.003906 Z M 10 7 C 9.71875 7 8.75 7.230469 8.382813 7.386719 L 8.023438 7.539063 C 8.015625 7.546875 8.007813 7.554688 8.003906 7.5625 C 8.007813 7.617188 8.015625 7.683594 8.023438 7.765625 C 8.066406 8.339844 8.152344 9.40625 7.996094 10.535156 C 7.890625 11.277344 8.191406 12.121094 8.78125 12.734375 C 9.117188 13.085938 9.71875 13.316406 10.15625 13.414063 C 10.183594 13.34375 10.207031 13.285156 10.238281 13.207031 C 10.292969 13.074219 10.355469 12.933594 10.414063 12.777344 L 10.492188 12.566406 C 10.667969 12.109375 10.996094 11.253906 11 9.996094 C 11.003906 9.582031 10.957031 8.828125 10.871094 8.183594 C 10.859375 8.199219 10.851563 8.199219 10.84375 8.21875 C 10.695313 8.367188 10.464844 8.5 10.210938 8.460938 C 9.796875 8.394531 9.480469 7.890625 9.5 7.703125 C 9.523438 7.519531 9.878906 7.421875 10.292969 7.488281 C 10.433594 7.511719 10.566406 7.554688 10.675781 7.601563 C 10.714844 7.632813 10.746094 7.652344 10.78125 7.675781 C 10.777344 7.652344 10.777344 7.625 10.769531 7.601563 C 10.675781 7.160156 10.597656 7.078125 10.59375 7.074219 C 10.589844 7.070313 10.484375 7.003906 10 7 Z M 17.984375 7.011719 C 17.5 7.070313 17.363281 7.199219 17.1875 7.484375 C 17.527344 7.484375 17.773438 7.597656 17.800781 7.808594 C 17.828125 7.988281 17.675781 8.160156 17.609375 8.226563 C 17.46875 8.359375 17.292969 8.449219 17.117188 8.46875 C 17.085938 8.476563 17.054688 8.476563 17.019531 8.476563 C 17.011719 8.476563 17.007813 8.472656 17 8.472656 C 17.058594 9.296875 17.429688 10.410156 17.925781 11.402344 C 18.0625 10.925781 18.117188 10.460938 18.046875 9.96875 C 17.996094 9.605469 17.941406 9.230469 17.953125 8.820313 C 17.96875 8.449219 18.007813 8.101563 18.046875 7.761719 C 18.078125 7.5 17.976563 7.257813 17.984375 7.011719 Z M 20.179688 14.53125 C 20.101563 14.519531 19.992188 14.527344 19.859375 14.554688 C 19.230469 14.683594 18.8125 14.71875 18.503906 14.699219 C 18.394531 14.773438 18.28125 14.84375 18.140625 14.921875 C 17.578125 15.230469 17.078125 15.550781 17.011719 16 L 17.011719 16.582031 C 17.671875 16.613281 18.554688 16.203125 19.0625 15.96875 C 20.019531 15.527344 20.738281 14.605469 20.179688 14.53125 Z M 9.835938 14.761719 C 9.285156 15.089844 8.664063 15.414063 8.25 15.5 C 6.78125 15.890625 7.691406 16.347656 8.210938 16.398438 C 8.765625 16.535156 10.125 16.84375 11 16.128906 C 11 16.128906 11 16.128906 11 16.125 L 11 15.578125 C 11 15.472656 11.003906 15.367188 11.011719 15.253906 C 11.011719 15.195313 11.015625 15.117188 11.015625 15.046875 C 10.949219 15.019531 10.867188 14.996094 10.777344 14.972656 Z"/></svg>