<?xml version="1.0" standalone="no"?>
<!DOCTYPE svg PUBLIC "-//W3C//DTD SVG 20010904//EN"
 "http://www.w3.org/TR/2001/REC-SVG-20010904/DTD/svg10.dtd">
<svg version="1.0" xmlns="http://www.w3.org/2000/svg"
 width="512.000000pt" height="512.000000pt" viewBox="0 0 512.000000 512.000000"
 preserveAspectRatio="xMidYMid meet">

<g transform="translate(0.000000,512.000000) scale(0.100000,-0.100000)"
fill="#002835" stroke="none">
<path d="M960 4560 l0 -79 -325 -3 -325 -3 -32 -33 -33 -32 0 -1770 0 -1770
33 -32 32 -33 1125 -3 1125 -2 0 120 0 120 -1040 0 -1040 0 0 1160 0 1160
1600 0 1600 0 0 -320 0 -320 120 0 120 0 -2 845 -3 845 -33 32 -32 33 -325 3
-325 3 0 79 0 80 -120 0 -120 0 0 -80 0 -80 -880 0 -880 0 0 80 0 80 -120 0
-120 0 0 -80z m0 -440 l0 -120 120 0 120 0 0 120 0 120 880 0 880 0 0 -120 0
-120 120 0 120 0 0 120 0 120 240 0 240 0 0 -320 0 -320 -1600 0 -1600 0 0
320 0 320 240 0 240 0 0 -120z"/>
<path d="M880 2640 l0 -400 400 0 400 0 0 400 0 400 -400 0 -400 0 0 -400z
m560 0 l0 -160 -160 0 -160 0 0 160 0 160 160 0 160 0 0 -160z"/>
<path d="M1920 2600 l0 -120 160 0 160 0 0 120 0 120 -160 0 -160 0 0 -120z"/>
<path d="M2560 2600 l0 -120 160 0 160 0 0 120 0 120 -160 0 -160 0 0 -120z"/>
<path d="M3675 2474 c-261 -39 -481 -148 -651 -325 -402 -419 -405 -1068 -7
-1490 92 -97 179 -161 308 -224 464 -230 1023 -98 1336 314 71 94 155 267 186
386 23 89 26 119 26 265 0 146 -3 176 -26 265 -31 119 -115 292 -186 386 -199
261 -497 415 -826 424 -71 2 -143 1 -160 -1z m255 -245 c181 -29 325 -104 460
-239 165 -165 250 -365 250 -590 0 -225 -85 -425 -250 -590 -165 -165 -365
-250 -590 -250 -225 0 -425 85 -590 250 -105 105 -162 194 -204 320 -78 234
-55 472 67 690 57 102 205 250 307 307 171 96 367 132 550 102z"/>
<path d="M3680 1695 c0 -246 3 -311 14 -333 8 -15 100 -112 205 -217 l191
-190 85 85 85 85 -170 170 -170 170 0 268 0 267 -120 0 -120 0 0 -305z"/>
<path d="M880 1720 l0 -120 160 0 160 0 0 120 0 120 -160 0 -160 0 0 -120z"/>
<path d="M1520 1720 l0 -120 160 0 160 0 0 120 0 120 -160 0 -160 0 0 -120z"/>
<path d="M2160 1720 l0 -120 160 0 160 0 0 120 0 120 -160 0 -160 0 0 -120z"/>
</g>
</svg>
