<svg xmlns="http://www.w3.org/2000/svg" xmlns:xlink="http://www.w3.org/1999/xlink" width="48" height="48" preserveAspectRatio="xMidYMid meet" viewBox="0 0 48 48" style="-ms-transform: rotate(360deg); -webkit-transform: rotate(360deg); transform: rotate(360deg);"><path fill="#002835" d="M7 31h10v10H7z"/><path fill="#002835" d="M35.3 19.3l-5.6-5.6c-.4-.4-.4-1 0-1.4l5.6-5.6c.4-.4 1-.4 1.4 0l5.6 5.6c.4.4.4 1 0 1.4l-5.6 5.6c-.4.4-1 .4-1.4 0z"/><circle fill="#002835" cx="12" cy="13" r="6"/><circle fill="#002835" cx="36" cy="36" r="6"/><g fill="#90A4AE"><path d="M11 24h2v5h-2z"/><path d="M12 21l-3 4h6z"/></g><g fill="#90A4AE"><path d="M20 12h5v2h-5z"/><path d="M28 13l-4-3v6z"/></g><g fill="#90A4AE"><path d="M35 21h2v5h-2z"/><path d="M36 29l3-4h-6z"/></g><rect x="0" y="0" width="48" height="48" fill="rgba(0, 0, 0, 0)" /></svg>