<?xml version="1.0" encoding="UTF-8" standalone="no"?>
<!-- Svg Vector Icons : http://www.onlinewebfonts.com/icon -->

<svg
   xmlns:dc="http://purl.org/dc/elements/1.1/"
   xmlns:cc="http://creativecommons.org/ns#"
   xmlns:rdf="http://www.w3.org/1999/02/22-rdf-syntax-ns#"
   xmlns:svg="http://www.w3.org/2000/svg"
   xmlns="http://www.w3.org/2000/svg"
   xmlns:sodipodi="http://sodipodi.sourceforge.net/DTD/sodipodi-0.dtd"
   xmlns:inkscape="http://www.inkscape.org/namespaces/inkscape"
   version="1.1"
   x="0px"
   y="0px"
   viewBox="0 0 1000 1000"
   enable-background="new 0 0 1000 1000"
   xml:space="preserve"
   id="svg7230"
   sodipodi:docname="cluster.svg"
   inkscape:version="0.92.3 (2405546, 2018-03-11)"><defs
   id="defs7234" /><sodipodi:namedview
   pagecolor="#ffffff"
   bordercolor="#666666"
   borderopacity="1"
   objecttolerance="10"
   gridtolerance="10"
   guidetolerance="10"
   inkscape:pageopacity="0"
   inkscape:pageshadow="2"
   inkscape:window-width="1853"
   inkscape:window-height="1016"
   id="namedview7232"
   showgrid="false"
   inkscape:zoom="0.6675088"
   inkscape:cx="529.83314"
   inkscape:cy="377.03633"
   inkscape:window-x="1987"
   inkscape:window-y="1107"
   inkscape:window-maximized="1"
   inkscape:current-layer="svg7230" />
<metadata
   id="metadata7200"> Svg Vector Icons : http://www.onlinewebfonts.com/icon <rdf:RDF><cc:Work
     rdf:about=""><dc:format>image/svg+xml</dc:format><dc:type
       rdf:resource="http://purl.org/dc/dcmitype/StillImage" /></cc:Work></rdf:RDF></metadata>
<g
   id="g7228"><path
     d="M683.8,561.2H745v61.3h-61.3V561.2z"
     id="path7202" /><path
     d="M581.7,826.7h61.3v61.2h-61.3V826.7z"
     id="path7204" /><path
     d="M581.7,561.2h61.3v61.3h-61.3V561.2z"
     id="path7206" /><path
     d="M112.1,745h775.8v20.4H112.1V745z"
     id="path7208" /><path
     d="M683.8,826.7H745v61.2h-61.3V826.7z"
     id="path7210" /><path
     d="M785.8,826.7h61.3v61.2h-61.3V826.7z"
     id="path7212" /><path
     d="M785.8,295.8h61.3v61.2h-61.3V295.8z"
     id="path7214" /><path
     d="M785.8,561.2h61.3v61.3h-61.3V561.2z"
     id="path7216" /><path
     d="M847.1,10H152.9L50.8,152.9V990h898.3V152.9L847.1,10z M908.3,949.2H91.7V724.6h816.7V949.2z M908.3,683.7H91.7V459.2h816.7V683.7z M908.3,418.3H91.7V193.8h816.7V418.3z M91.7,152.9l81.7-102.1h653.3l81.7,102.1H91.7z"
     id="path7218" /><path
     d="M112.1,214.2h775.8v20.4H112.1V214.2z"
     id="path7220" /><path
     d="M112.1,479.6h775.8V500H112.1V479.6z"
     id="path7222" /><path
     d="M683.8,295.8H745v61.2h-61.3V295.8z"
     id="path7224" /><path
     d="M581.7,295.8h61.3v61.2h-61.3V295.8z"
     id="path7226" /></g>
<path
   style="fill:#364e59;stroke-width:1.49810755"
   d="M 51.037958,571.78704 V 153.87366 l 50.625582,-70.844226 50.62557,-70.84423 347.49692,-0.37769 347.49692,-0.37769 50.56073,71.005656 50.56072,71.00566 V 571.57077 989.70041 H 499.72118 51.037958 Z M 909.45361,836.89343 V 724.53536 H 500.47023 91.486862 V 836.89343 949.2515 H 500.47023 909.45361 Z m 0,-265.9141 V 457.87221 H 500.47023 91.486862 V 570.97933 684.08646 H 500.47023 909.45361 Z m 0,-265.16504 V 192.70717 H 500.47023 91.486862 V 305.81429 418.92141 H 500.47023 909.45361 Z m -2.49674,-155.75424 c -1.51066,-2.03298 -19.93743,-25.25748 -40.94838,-51.610019 L 827.80674,50.536332 500.23986,50.461639 172.67297,50.386948 132.07992,101.14237 c -22.32618,27.91548 -40.593058,51.1736 -40.593058,51.68471 0,0.51111 184.098738,0.92929 409.108328,0.92929 h 409.10832 z"
   id="path7241"
   inkscape:connector-curvature="0" /><path
   style="fill:#364e59;stroke-width:1.49810755"
   d="m 112.46037,224.91648 v -9.7377 h 387.26081 387.26081 v 9.7377 9.7377 H 499.72118 112.46037 Z"
   id="path7243"
   inkscape:connector-curvature="0" /><path
   style="fill:#364e59;stroke-width:1.49810755"
   d="m 582.86615,326.03874 v -29.96215 h 29.96215 29.96215 v 29.96215 29.96216 H 612.8283 582.86615 Z"
   id="path7245"
   inkscape:connector-curvature="0" /><path
   style="fill:#364e59;stroke-width:1.49810755"
   d="m 684.73747,326.03874 v -29.96215 h 29.96215 29.96215 v 29.96215 29.96216 h -29.96215 -29.96215 z"
   id="path7247"
   inkscape:connector-curvature="0" /><path
   style="fill:#364e59;stroke-width:1.49810755"
   d="m 786.60878,326.03874 v -29.96215 h 29.96216 29.96215 v 29.96215 29.96216 h -29.96215 -29.96216 z"
   id="path7249"
   inkscape:connector-curvature="0" /><path
   style="fill:#364e59;stroke-width:1.49810755"
   d="m 112.46037,490.08153 v -9.7377 h 387.26081 387.26081 v 9.7377 9.73769 H 499.72118 112.46037 Z"
   id="path7251"
   inkscape:connector-curvature="0" /><path
   style="fill:#364e59;stroke-width:1.49810755"
   d="m 643.42457,591.95284 c 10e-4,-17.30314 0.2193,-24.17652 0.48462,-15.27418 0.26531,8.90235 0.26431,23.05946 -0.002,31.46026 -0.26654,8.4008 -0.48362,1.11706 -0.4824,-16.18608 z"
   id="path7253"
   inkscape:connector-curvature="0" /><path
   style="fill:#364e59;stroke-width:1.49810755"
   d="m 582.86615,591.20379 v -29.96215 h 29.96215 29.96215 v 29.96215 29.96215 H 612.8283 582.86615 Z"
   id="path7255"
   inkscape:connector-curvature="0" /><path
   style="fill:#364e59;stroke-width:1.49810755"
   d="m 684.73747,591.20379 v -29.96215 h 29.96215 29.96215 v 29.96215 29.96215 h -29.96215 -29.96215 z"
   id="path7257"
   inkscape:connector-curvature="0" /><path
   style="fill:#364e59;stroke-width:1.49810755"
   d="m 786.60878,591.20379 v -29.96215 h 29.96216 29.96215 v 29.96215 29.96215 h -29.96215 -29.96216 z"
   id="path7259"
   inkscape:connector-curvature="0" /><path
   style="fill:#364e59;stroke-width:1.49810755"
   d="m 305.22114,744.38535 c 106.4304,-0.21221 281.03484,-0.21222 388.00986,-2e-5 106.97503,0.21219 19.89561,0.38581 -193.50982,0.38582 -213.40543,2e-5 -300.93045,-0.1736 -194.50004,-0.3858 z"
   id="path7261"
   inkscape:connector-curvature="0" /><path
   style="fill:#364e59;stroke-width:1.49810755"
   d="m 112.46037,755.24657 v -9.7377 h 387.26081 387.26081 v 9.7377 9.7377 H 499.72118 112.46037 Z"
   id="path7263"
   inkscape:connector-curvature="0" /><path
   style="fill:#364e59;stroke-width:1.49810755"
   d="m 582.86615,857.86694 v -29.96215 h 29.96215 29.96215 v 29.96215 29.96215 H 612.8283 582.86615 Z"
   id="path7265"
   inkscape:connector-curvature="0" /><path
   style="fill:#364e59;stroke-width:1.49810755"
   d="m 684.73747,857.86694 v -29.96215 h 29.96215 29.96215 v 29.96215 29.96215 h -29.96215 -29.96215 z"
   id="path7267"
   inkscape:connector-curvature="0" /><path
   style="fill:#0e232e;stroke-width:1.49810755"
   d="m 786.60878,857.86694 v -29.96215 h 29.96216 29.96215 v 29.96215 29.96215 h -29.96215 -29.96216 z"
   id="path7269"
   inkscape:connector-curvature="0" /><path
   style="fill:#0e232e;stroke-width:1.49810755"
   d="M 51.037958,572.26571 V 154.83102 l 50.483862,-70.700668 50.48385,-70.70067 346.83014,-1.002304 c 277.08507,-0.800748 347.20432,-0.624617 348.6909,0.875868 1.0234,1.032996 24.13956,33.183139 51.36922,71.444764 L 948.4044,154.3146 V 572.0075 989.70041 H 499.72118 51.037958 Z M 909.45361,836.89343 V 724.53536 H 500.47023 91.486862 V 836.89343 949.2515 H 500.47023 909.45361 Z m 0,-265.9141 V 457.87221 H 500.47023 91.486862 V 570.97933 684.08646 H 500.47023 909.45361 Z m 0,-265.16504 V 192.70717 H 500.47023 91.486862 V 305.81429 418.92141 H 500.47023 909.45361 Z m -1.05704,-154.21278 c -0.66326,-1.18517 -18.93915,-24.44329 -40.6131,-51.684709 l -39.40716,-49.529853 -328.37034,0.07391 -328.37035,0.07391 -32.20931,40.469643 c -17.71513,22.258299 -32.48439,41.269739 -32.82059,42.247629 -0.3362,0.97789 -1.85304,2.6589 -3.37075,3.73557 -1.5177,1.07667 -2.75946,2.76841 -2.75946,3.75943 0,0.99102 -1.348299,2.64387 -2.996217,3.67302 -1.647919,1.02914 -2.996215,2.87667 -2.996215,4.10563 0,1.22896 -0.713936,2.23447 -1.586522,2.23447 -0.872586,0 -1.169875,0.67414 -0.66064,1.4981 0.613589,0.99281 138.615324,1.49811 409.146234,1.49811 354.65111,0 408.06209,-0.28277 407.01442,-2.15486 z"
   id="path7271"
   inkscape:connector-curvature="0" /><path
   style="fill:#0e232e;stroke-width:1.49810755"
   d="m 112.46037,224.91648 v -9.7377 h 387.26081 387.26081 v 9.7377 9.7377 H 499.72118 112.46037 Z"
   id="path7273"
   inkscape:connector-curvature="0" /><path
   style="fill:#0e232e;stroke-width:1.49810755"
   d="m 582.86615,326.03874 v -29.96215 h 29.96215 29.96215 v 29.96215 29.96216 H 612.8283 582.86615 Z"
   id="path7275"
   inkscape:connector-curvature="0" /><path
   style="fill:#0e232e;stroke-width:1.49810755"
   d="m 684.73747,326.03874 v -29.96215 h 29.96215 29.96215 v 29.96215 29.96216 h -29.96215 -29.96215 z"
   id="path7277"
   inkscape:connector-curvature="0" /><path
   style="fill:#0e232e;stroke-width:1.49810755"
   d="m 786.60878,326.03874 v -29.96215 h 29.96216 29.96215 v 29.96215 29.96216 h -29.96215 -29.96216 z"
   id="path7279"
   inkscape:connector-curvature="0" /><path
   style="fill:#0e232e;stroke-width:1.49810755"
   d="m 112.46037,490.08153 v -9.7377 h 387.26081 387.26081 v 9.7377 9.73769 H 499.72118 112.46037 Z"
   id="path7281"
   inkscape:connector-curvature="0" /><path
   style="fill:#0e232e;stroke-width:1.49810755"
   d="m 582.86615,591.20379 v -29.96215 h 29.96215 29.96215 v 29.96215 29.96215 H 612.8283 582.86615 Z"
   id="path7283"
   inkscape:connector-curvature="0" /><path
   style="fill:#0e232e;stroke-width:1.49810755"
   d="m 684.73747,591.20379 v -29.96215 h 29.96215 29.96215 v 29.96215 29.96215 h -29.96215 -29.96215 z"
   id="path7285"
   inkscape:connector-curvature="0" /><path
   style="fill:#0e232e;stroke-width:1.49810755"
   d="m 786.60878,591.20379 v -29.96215 h 29.96216 29.96215 v 29.96215 29.96215 h -29.96215 -29.96216 z"
   id="path7287"
   inkscape:connector-curvature="0" /><path
   style="fill:#0e232e;stroke-width:1.49810755"
   d="m 112.46037,755.24657 v -9.7377 h 387.26081 387.26081 v 9.7377 9.7377 H 499.72118 112.46037 Z"
   id="path7289"
   inkscape:connector-curvature="0" /><path
   style="fill:#0e232e;stroke-width:1.49810755"
   d="m 582.86615,857.86694 v -29.96215 h 29.96215 29.96215 v 29.96215 29.96215 H 612.8283 582.86615 Z"
   id="path7291"
   inkscape:connector-curvature="0" /><path
   style="fill:#0e232e;stroke-width:1.49810755"
   d="m 684.73747,857.86694 v -29.96215 h 29.96215 29.96215 v 29.96215 29.96215 h -29.96215 -29.96215 z"
   id="path7293"
   inkscape:connector-curvature="0" /></svg>