<?xml version="1.0" encoding="UTF-8" standalone="no"?>
<!-- Created with Inkscape (http://www.inkscape.org/) -->

<svg
   xmlns:dc="http://purl.org/dc/elements/1.1/"
   xmlns:cc="http://creativecommons.org/ns#"
   xmlns:rdf="http://www.w3.org/1999/02/22-rdf-syntax-ns#"
   xmlns:svg="http://www.w3.org/2000/svg"
   xmlns="http://www.w3.org/2000/svg"
   xmlns:sodipodi="http://sodipodi.sourceforge.net/DTD/sodipodi-0.dtd"
   xmlns:inkscape="http://www.inkscape.org/namespaces/inkscape"
   width="117.64915mm"
   height="94.112549mm"
   viewBox="0 0 416.86706 333.46966"
   id="svg7351"
   version="1.1"
   inkscape:version="0.91 r13725"
   sodipodi:docname="private-cloud-icon.svg">
  <defs
     id="defs7353" />
  <sodipodi:namedview
     id="base"
     pagecolor="#ffffff"
     bordercolor="#666666"
     borderopacity="1.0"
     inkscape:pageopacity="0.0"
     inkscape:pageshadow="2"
     inkscape:zoom="0.35"
     inkscape:cx="-1690.8522"
     inkscape:cy="349.59208"
     inkscape:document-units="px"
     inkscape:current-layer="layer1"
     showgrid="false"
     fit-margin-top="0"
     fit-margin-left="0"
     fit-margin-right="0"
     fit-margin-bottom="0"
     inkscape:window-width="3200"
     inkscape:window-height="1671"
     inkscape:window-x="0"
     inkscape:window-y="55"
     inkscape:window-maximized="1" />
  <metadata
     id="metadata7356">
    <rdf:RDF>
      <cc:Work
         rdf:about="">
        <dc:format>image/svg+xml</dc:format>
        <dc:type
           rdf:resource="http://purl.org/dc/dcmitype/StillImage" />
        <dc:title />
      </cc:Work>
    </rdf:RDF>
  </metadata>
  <g
     inkscape:label="Layer 1"
     inkscape:groupmode="layer"
     id="layer1"
     transform="translate(-222.9951,-548.48461)">
    <path
       style="fill:#ffffff;fill-opacity:1;stroke:#000000;stroke-width:21.78635597;stroke-miterlimit:4;stroke-dasharray:none;stroke-opacity:1"
       d="m 393.7031,604.77724 c 10.92259,-0.53267 17.90294,-0.66121 24.16978,0.33987 6.26576,1.00108 11.75483,3.30466 19.40293,6.80823 9.11323,4.17187 18.94106,10.67815 27.5739,18.38224 8.63284,7.70409 16.15785,16.47441 21.10553,24.85006 2.14923,3.63952 4.2015,5.754 6.80824,7.14865 2.60674,1.39465 5.88667,2.03506 10.55222,2.04247 10.36813,0.0218 20.30924,2.08201 29.61637,5.787 9.30604,3.70499 17.76024,8.99657 25.19047,15.65895 7.42915,6.66237 13.98467,14.59979 18.72211,23.48841 4.73744,8.88861 7.62087,18.89182 8.85071,29.27541 0.87145,7.3261 1.81044,11.49928 3.74507,14.63771 1.93463,3.13844 5.17862,5.02982 10.55222,7.82947 10.13937,5.28167 17.29619,13.05646 22.12731,22.12677 4.83113,9.0702 7.1895,19.65434 6.80824,29.95624 -0.38126,10.30189 -3.35074,20.29878 -8.85071,29.27541 -5.49996,8.97653 -13.64588,16.69195 -24.16978,21.78636 -7.11869,3.44616 -11.58816,5.25487 -31.65775,6.12741 -20.07068,0.87254 -55.64889,0.82026 -124.59072,0.68083 -77.9396,-0.15687 -145.63634,-1.26361 -150.46202,-2.7233 -9.77336,-2.95619 -18.66328,-8.02773 -26.21225,-14.2973 -7.54897,-6.26956 -13.93238,-13.84762 -18.72211,-22.46717 -4.79082,-8.61956 -8.03589,-18.24793 -9.53153,-28.25418 -1.49563,-10.00626 -0.96949,-20.54791 1.36165,-30.97748 2.57079,-11.4899 8.36814,-22.61227 16.33977,-31.99871 7.97162,-9.38654 17.95849,-16.70316 28.59459,-20.76512 7.05987,-2.69628 10.52825,-4.38254 12.59469,-7.48906 2.06753,-3.10651 2.7636,-7.96944 3.74507,-17.361 1.29629,-12.40373 3.61218,-22.06326 7.48906,-30.97747 3.87689,-8.91422 9.26029,-17.00883 17.36046,-26.21171 9.51628,-10.81148 19.42798,-18.53354 30.97802,-23.82883 11.55004,-5.29528 24.76673,-8.08197 40.50846,-8.8507 z"
       id="path4178"
       inkscape:connector-curvature="0" />
    <path
       transform="matrix(10.893178,0,0,10.893178,-477.59207,-4673.5588)"
       sodipodi:type="inkscape:offset"
       inkscape:radius="1.759402"
       inkscape:original="M 92.648438 481.14648 L 92.648438 481.14844 C 92.594638 481.14885 92.540118 481.14822 92.486328 481.15039 C 90.016648 481.16609 87.801212 483.36354 87.794922 485.83984 C 87.766922 486.42358 87.802875 487.00592 87.796875 487.58984 L 86.607422 487.58984 C 86.638922 490.15556 86.543803 492.72904 86.658203 495.29102 C 86.904403 496.9408 88.385801 498.43187 90.113281 498.35156 C 92.004721 498.34856 93.900883 498.4092 95.789062 498.3125 C 97.561472 498.00711 98.806295 496.18738 98.671875 494.42578 C 98.692175 492.14788 98.670687 489.86975 98.679688 487.5918 C 98.284828 487.5818 97.888981 487.59989 97.494141 487.58789 C 97.524141 486.20085 97.589548 484.68473 96.798828 483.48242 C 95.943768 482.05567 94.314338 481.13579 92.648438 481.14648 z M 92.669922 483.12891 C 94.073112 483.14821 95.460302 484.30942 95.419922 485.77148 C 95.447822 486.37768 95.466016 486.98509 95.478516 487.5918 C 93.590816 487.59098 91.704086 487.59389 89.816406 487.58789 C 89.822406 486.6389 89.566547 485.60251 90.085938 484.74805 C 90.557528 483.84274 91.500276 483.14932 92.535156 483.13086 C 92.580456 483.12886 92.624632 483.12791 92.669922 483.12891 z "
       style="opacity:0.98000004;fill:#ffffff;fill-opacity:1;stroke:none;stroke-width:2.65287852;stroke-linejoin:miter;stroke-miterlimit:4;stroke-dasharray:none;stroke-dashoffset:0;stroke-opacity:1"
       id="path7338"
       d="m 92.636719,479.38672 a 1.759578,1.759578 0 0 0 -0.05078,0.002 c -0.02538,-8e-5 -0.06411,9.9e-4 -0.111329,0.002 -0.0015,10e-6 -0.0024,0.002 -0.0039,0.002 -0.02341,1.6e-4 -0.04305,0.0132 -0.06641,0.0137 a 1.759578,1.759578 0 0 0 -0.230469,0.0469 c -3.360837,0.18823 -6.122523,2.96125 -6.136719,6.37305 -0.0016,0.0386 0.0012,0.0617 0,0.0996 a 1.759578,1.759578 0 0 0 -1.189453,1.68555 c 0.03079,2.5078 -0.06595,5.09996 0.05273,7.75781 a 1.759578,1.759578 0 0 0 0.01758,0.18164 c 0.375425,2.51571 2.494111,4.68799 5.277343,4.5586 l -0.08008,0.002 c 1.851971,-0.003 3.777884,0.0607 5.763672,-0.041 a 1.759578,1.759578 0 0 0 0.208985,-0.0234 c 2.789108,-0.48057 4.541999,-3.08095 4.337889,-5.75586 l 0.006,0.15039 c 0.0205,-2.29942 -0.001,-4.57955 0.008,-6.8418 a 1.759578,1.759578 0 0 0 -1.212888,-1.67773 c -0.03753,-1.07205 -0.199029,-2.21818 -0.943359,-3.36915 -1.194203,-1.96736 -3.337973,-3.18082 -5.646484,-3.16601 z m -0.02344,5.50195 c 0.0059,0 0.028,0 0.0332,0 0.448748,0.006 1.024595,0.50922 1.015625,0.83399 a 1.759578,1.759578 0 0 0 0,0.10742 c -0.692012,10e-5 -1.383262,6.1e-4 -2.074218,0 0.0035,-0.0156 -0.0031,-0.15967 0.002,-0.16797 a 1.759578,1.759578 0 0 0 0.05664,-0.10156 c 0.197799,-0.37972 0.65154,-0.66514 0.919922,-0.66993 a 1.759578,1.759578 0 0 0 0.04687,-0.002 z" />
    <path
       inkscape:connector-curvature="0"
       style="opacity:0.98000004;fill:#000000;fill-opacity:1;stroke:none;stroke-width:2.65287852;stroke-linejoin:miter;stroke-miterlimit:4;stroke-dasharray:none;stroke-dashoffset:0;stroke-opacity:1"
       d="m 531.64014,567.66767 c -0.58823,0.004 -1.17102,0.009 -1.75707,0.0327 -26.90288,0.17102 -51.03998,24.09571 -51.10861,51.07049 -0.30501,6.35878 0.10893,12.72225 0,19.08299 -4.32023,-1.1e-4 -8.64047,-1.1e-4 -12.96179,0 0.34858,27.94884 -0.69717,55.96228 0.54466,83.87039 2.6819,17.97134 18.81905,34.22288 37.63701,33.34804 20.60445,-0.0327 41.27208,0.63726 61.84057,-0.41611 19.30707,-3.32667 32.86581,-23.15204 31.40177,-42.34146 0.21786,-24.81357 0,-49.62834 0.10893,-74.44245 -4.30172,-0.10893 -8.60343,0.0762 -12.90515,-0.0545 0.3268,-15.10927 1.03485,-31.62496 -7.5762,-44.72194 -9.31367,-15.54184 -27.06628,-25.54787 -45.21323,-25.43143 z m 0.25054,21.57699 c 15.28531,0.21024 30.38652,12.868 29.94644,28.79448 0.30501,6.60344 0.50108,13.21081 0.6427,19.81981 -20.56306,-0.009 -41.12611,0.0327 -61.68807,-0.0327 0.10893,-10.33752 -2.71022,-21.64049 2.9466,-30.94828 5.13723,-9.8617 15.40514,-17.40817 26.67849,-17.60926 0.49019,-0.0218 0.98038,-0.0327 1.47384,-0.0218 z"
       id="path3355" />
  </g>
</svg>
